<svg width="123" height="35" viewBox="0 0 123 35" fill="none" xmlns="http://www.w3.org/2000/svg">
<path d="M122 18.9999H122.75V18.9551L122.745 18.9106L122 18.9999ZM56.973 5.34973C57.3869 5.36466 57.7346 5.0412 57.7495 4.62726C57.7644 4.21331 57.441 3.86564 57.027 3.85071L56.973 5.34973ZM44.5383 1.00277L44.4841 1.75081L44.5383 1.00277ZM121.25 18.9999C121.25 20.6391 119.891 22.4186 116.866 24.1916C113.894 25.9341 109.542 27.5292 104.099 28.8786C93.2257 31.5746 78.1641 33.2499 61.5 33.2499V34.7499C78.2491 34.7499 93.4376 33.0675 104.46 30.3345C109.966 28.9695 114.475 27.3323 117.625 25.4857C120.723 23.6695 122.75 21.5029 122.75 18.9999H121.25ZM61.5 33.2499C44.8359 33.2499 29.7743 31.5746 18.9005 28.8786C13.4578 27.5292 9.10636 25.9341 6.13367 24.1916C3.10899 22.4186 1.75 20.6391 1.75 18.9999H0.25C0.25 21.5029 2.27686 23.6695 5.37511 25.4857C8.52535 27.3323 13.0339 28.9695 18.5396 30.3345C29.5624 33.0675 44.7509 34.7499 61.5 34.7499V33.2499ZM1.75 18.9999C1.75 18.3883 2.03648 17.6733 2.72607 16.8642C3.41377 16.0574 4.45803 15.2112 5.85259 14.3573C8.63981 12.6506 12.7092 10.9835 17.7668 9.55128C27.8736 6.68931 41.7951 4.80222 56.973 5.34973L57.027 3.85071C41.7049 3.298 27.6264 5.20031 17.3582 8.10803C12.2283 9.56067 8.01644 11.2735 5.06928 13.0781C3.59666 13.9798 2.41045 14.9222 1.58448 15.8912C0.760391 16.8581 0.25 17.9064 0.25 18.9999H1.75ZM44.4458 1.74804L44.4841 1.75081L44.5925 0.254734L44.5542 0.251961L44.4458 1.74804ZM44.4841 1.75081C57.0664 2.66242 76.0207 4.03627 92.0135 6.7391C100.015 8.09136 107.231 9.76942 112.524 11.8705C115.172 12.9216 117.299 14.0632 118.797 15.2938C120.294 16.5246 121.099 17.7895 121.255 19.0893L122.745 18.9106C122.526 17.087 121.415 15.5038 119.749 14.1349C118.083 12.7657 115.797 11.5557 113.078 10.4763C107.636 8.31634 100.296 6.61762 92.2634 5.26007C76.1879 2.54326 57.1609 1.16533 44.5925 0.254734L44.4841 1.75081Z" fill="#B19DFF"/>
</svg>
