<svg width="176" height="35" viewBox="0 0 176 35" fill="none" xmlns="http://www.w3.org/2000/svg">
<path d="M175 19H175.75V18.9357L175.739 18.8724L175 19ZM81.5101 5.34999C81.9242 5.36038 82.2683 5.03312 82.2787 4.61903C82.2891 4.20495 81.9618 3.86085 81.5477 3.85046L81.5101 5.34999ZM63.6088 1.00277L63.571 1.75182V1.75182L63.6088 1.00277ZM174.25 19C174.25 19.7187 173.829 20.5395 172.749 21.4495C171.676 22.3538 170.048 23.2605 167.88 24.1441C163.551 25.9087 157.242 27.5138 149.391 28.8675C133.701 31.5727 111.995 33.25 88 33.25V34.75C112.054 34.75 133.848 33.0694 149.646 30.3457C157.538 28.9849 163.97 27.3577 168.446 25.5332C170.681 24.6223 172.471 23.6451 173.716 22.5966C174.954 21.5536 175.75 20.3523 175.75 19H174.25ZM88 33.25C64.0048 33.25 42.2994 31.5727 26.6091 28.8675C18.7579 27.5138 12.4489 25.9087 8.12 24.1441C5.95214 23.2605 4.32417 22.3538 3.25079 21.4495C2.1708 20.5395 1.75 19.7187 1.75 19H0.25C0.25 20.3523 1.04642 21.5536 2.28427 22.5966C3.52872 23.6451 5.31921 24.6223 7.55378 25.5332C12.0298 27.3577 18.4616 28.9849 26.3543 30.3457C42.1518 33.0694 63.9464 34.75 88 34.75V33.25ZM1.75 19C1.75 18.492 2.10125 17.8026 3.13543 16.9589C4.14588 16.1345 5.67714 15.2728 7.70873 14.4078C11.7643 12.6809 17.6619 11.0031 24.9621 9.56554C39.553 6.69228 59.63 4.80112 81.5101 5.34999L81.5477 3.85046C59.5684 3.29911 39.3809 5.19736 24.6722 8.0938C17.3226 9.5411 11.3117 11.2432 7.12107 13.0277C5.0296 13.9183 3.35341 14.8451 2.18718 15.7966C1.04467 16.7288 0.25 17.8027 0.25 19H1.75ZM63.516 1.74905L63.571 1.75182L63.6465 0.253723L63.5915 0.25095L63.516 1.74905ZM63.571 1.75182C81.6596 2.66318 108.943 4.03808 131.971 6.74446C143.49 8.09818 153.91 9.78139 161.572 11.8964C165.407 12.955 168.51 14.1109 170.706 15.3655C172.937 16.6401 174.051 17.9134 174.261 19.1275L175.739 18.8724C175.41 16.9631 173.769 15.3884 171.45 14.0632C169.096 12.718 165.855 11.5224 161.971 10.4504C154.196 8.3044 143.685 6.61083 132.146 5.25472C109.059 2.54146 81.7251 1.16457 63.6465 0.253723L63.571 1.75182Z" fill="#FF9D9E"/>
</svg>
