<svg width="264" height="35" viewBox="0 0 264 35" fill="none" xmlns="http://www.w3.org/2000/svg">
<path d="M263 19H263.75V18.9041L263.726 18.8114L263 19ZM122.244 5.35012C122.658 5.35702 122.999 5.02688 123.006 4.61272C123.013 4.19856 122.683 3.85723 122.269 3.85033L122.244 5.35012ZM95.273 1.00277L95.2479 1.75235L95.273 1.00277ZM262.25 19C262.25 19.2807 262.129 19.6227 261.763 20.036C261.392 20.4539 260.805 20.9024 259.972 21.3685C258.307 22.3003 255.803 23.2232 252.509 24.1147C245.934 25.8947 236.386 27.5057 224.546 28.8615C200.876 31.5718 168.155 33.25 132 33.25V34.75C168.194 34.75 200.974 33.0703 224.716 30.3517C236.583 28.993 246.218 27.3718 252.901 25.5626C256.237 24.6596 258.88 23.6986 260.705 22.6775C261.617 22.1672 262.361 21.6219 262.885 21.0313C263.413 20.4361 263.75 19.7548 263.75 19H262.25ZM132 33.25C95.8446 33.25 63.1244 31.5718 39.4543 28.8615C27.6143 27.5057 18.0656 25.8947 11.4906 24.1147C8.19725 23.2232 5.69293 22.3003 4.02769 21.3685C3.1947 20.9024 2.60806 20.4539 2.23744 20.036C1.87088 19.6227 1.75 19.2807 1.75 19H0.25C0.25 19.7548 0.58733 20.4361 1.11523 21.0313C1.63908 21.6219 2.38317 22.1672 3.29522 22.6775C5.12005 23.6986 7.76305 24.6596 11.0986 25.5626C17.7816 27.3718 27.4174 28.993 39.2837 30.3517C63.0263 33.0703 95.8061 34.75 132 34.75V33.25ZM1.75 19C1.75 18.8403 1.8299 18.5833 2.17721 18.2216C2.52278 17.8616 3.07378 17.4625 3.8588 17.0372C5.42565 16.1882 7.77873 15.3117 10.8633 14.4394C17.0214 12.6979 25.9465 11.0137 36.9599 9.57334C58.9787 6.69373 89.2558 4.80056 122.244 5.35012L122.269 3.85033C89.2153 3.29967 58.8643 5.19591 36.7653 8.086C25.7198 9.53053 16.7136 11.2262 10.4551 12.996C7.33142 13.8794 4.85489 14.7914 3.1442 15.7183C2.29045 16.1809 1.5907 16.6666 1.09521 17.1827C0.601471 17.6969 0.25 18.3071 0.25 19H1.75ZM95.165 1.74958L95.2479 1.75235L95.298 0.253193L95.2152 0.250419L95.165 1.74958ZM95.2479 1.75235C122.481 2.66357 163.584 4.03902 198.283 6.74732C215.636 8.10172 231.363 9.78779 242.946 11.9111C248.742 12.9736 253.466 14.1397 256.828 15.4156C258.511 16.054 259.819 16.7079 260.743 17.3689C261.678 18.0376 262.135 18.6533 262.274 19.1886L263.726 18.8114C263.459 17.785 262.676 16.9078 261.616 16.1491C260.545 15.3826 259.104 14.6746 257.361 14.0132C253.872 12.6892 249.043 11.5038 243.217 10.4357C231.555 8.298 215.765 6.60728 198.399 5.25187C163.661 2.54051 122.524 1.16418 95.298 0.253193L95.2479 1.75235Z" fill="#BA4490"/>
</svg>
