<svg width="323" height="47" viewBox="0 0 323 47" fill="none" xmlns="http://www.w3.org/2000/svg">
<path d="M32.888 4.464V9.968H6.2V22.896H28.024V28.272H6.2V46H0.0560002V4.464H32.888ZM36.0945 14.064H42.2385V46H36.0945V14.064ZM53.0545 19.504C50.8358 19.504 48.9372 20.016 47.3585 21.04C45.8225 22.064 44.5852 23.3227 43.6465 24.816C42.7505 26.3093 42.1532 27.7387 41.8545 29.104L41.7905 25.456C41.8332 25.0293 41.9398 24.368 42.1105 23.472C42.3238 22.5333 42.6865 21.488 43.1985 20.336C43.7105 19.184 44.3932 18.096 45.2465 17.072C46.0998 16.0053 47.1665 15.1307 48.4465 14.448C49.7265 13.7653 51.2625 13.424 53.0545 13.424V19.504ZM88.7385 46H82.6585V14.064H88.7385V46ZM82.9785 30.96L83.0425 32.88C82.9998 33.4347 82.8505 34.2667 82.5945 35.376C82.3812 36.4427 81.9972 37.616 81.4425 38.896C80.9305 40.176 80.2052 41.4133 79.2665 42.608C78.3705 43.8027 77.2185 44.784 75.8105 45.552C74.4025 46.32 72.6958 46.704 70.6905 46.704C69.3252 46.704 67.9172 46.512 66.4665 46.128C65.0585 45.744 63.7572 45.104 62.5625 44.208C61.3678 43.312 60.4078 42.096 59.6825 40.56C58.9572 38.9813 58.5945 37.0187 58.5945 34.672V14.064H64.7385V33.392C64.7385 35.3547 65.0372 36.8907 65.6345 38C66.2745 39.1093 67.1705 39.8987 68.3225 40.368C69.4745 40.8373 70.7758 41.072 72.2265 41.072C74.4452 41.072 76.3012 40.5387 77.7945 39.472C79.3305 38.3627 80.5252 37.04 81.3785 35.504C82.2318 33.9253 82.7652 32.4107 82.9785 30.96ZM95.374 35.632H101.006C101.219 37.3387 101.987 38.7467 103.31 39.856C104.633 40.9227 106.489 41.456 108.878 41.456C110.414 41.456 111.609 41.2853 112.462 40.944C113.315 40.56 113.913 40.048 114.254 39.408C114.638 38.768 114.83 38.064 114.83 37.296C114.83 36.3147 114.574 35.568 114.062 35.056C113.55 34.5013 112.825 34.0533 111.886 33.712C110.947 33.328 109.838 32.9653 108.558 32.624C107.15 32.24 105.742 31.792 104.334 31.28C102.926 30.768 101.625 30.1493 100.43 29.424C99.278 28.6987 98.3393 27.8027 97.614 26.736C96.9313 25.6267 96.59 24.2827 96.59 22.704C96.59 21.3813 96.8673 20.144 97.422 18.992C98.0193 17.84 98.8513 16.8587 99.918 16.048C101.027 15.1947 102.307 14.5547 103.758 14.128C105.209 13.6587 106.809 13.424 108.558 13.424C110.99 13.424 113.038 13.872 114.702 14.768C116.366 15.6213 117.625 16.8373 118.478 18.416C119.374 19.9947 119.843 21.808 119.886 23.856H114.51C114.211 22.064 113.593 20.7627 112.654 19.952C111.715 19.0987 110.307 18.672 108.43 18.672C106.595 18.672 105.187 19.0347 104.206 19.76C103.225 20.4853 102.734 21.4667 102.734 22.704C102.734 23.6427 103.075 24.4107 103.758 25.008C104.441 25.5627 105.358 26.0533 106.51 26.48C107.662 26.9067 108.963 27.3547 110.414 27.824C111.779 28.2933 113.081 28.784 114.318 29.296C115.598 29.7653 116.729 30.3413 117.71 31.024C118.734 31.664 119.523 32.5173 120.078 33.584C120.675 34.608 120.974 35.888 120.974 37.424C120.974 39.3013 120.505 40.944 119.566 42.352C118.627 43.7173 117.262 44.784 115.47 45.552C113.721 46.32 111.587 46.704 109.07 46.704C106.766 46.704 104.803 46.4267 103.182 45.872C101.603 45.3173 100.259 44.592 99.15 43.696C98.0833 42.8 97.2513 41.8613 96.654 40.88C96.0993 39.856 95.7153 38.8747 95.502 37.936C95.3313 36.9973 95.2887 36.2293 95.374 35.632ZM125.167 14.064H145.839V19.376H125.167V14.064ZM132.463 5.616H138.543V46H132.463V5.616ZM151.657 14.064H157.801V46H151.657V14.064ZM168.617 19.504C166.398 19.504 164.5 20.016 162.921 21.04C161.385 22.064 160.148 23.3227 159.209 24.816C158.313 26.3093 157.716 27.7387 157.417 29.104L157.353 25.456C157.396 25.0293 157.502 24.368 157.673 23.472C157.886 22.5333 158.249 21.488 158.761 20.336C159.273 19.184 159.956 18.096 160.809 17.072C161.662 16.0053 162.729 15.1307 164.009 14.448C165.289 13.7653 166.825 13.424 168.617 13.424V19.504ZM187.341 46.64C184.61 46.64 182.114 45.936 179.853 44.528C177.592 43.12 175.8 41.1787 174.477 38.704C173.154 36.1867 172.493 33.3067 172.493 30.064C172.493 26.8213 173.154 23.9627 174.477 21.488C175.842 18.9707 177.698 17.008 180.045 15.6C182.392 14.1493 185.016 13.424 187.917 13.424C191.117 13.424 193.592 14.1707 195.341 15.664C197.133 17.1573 198.37 19.1627 199.053 21.68C199.778 24.1973 200.141 26.992 200.141 30.064C200.141 31.7707 199.928 33.584 199.501 35.504C199.074 37.424 198.392 39.2373 197.453 40.944C196.514 42.6507 195.213 44.0373 193.549 45.104C191.885 46.128 189.816 46.64 187.341 46.64ZM189.069 41.328C191.33 41.328 193.229 40.8373 194.765 39.856C196.344 38.832 197.517 37.4667 198.285 35.76C199.053 34.0533 199.437 32.1547 199.437 30.064C199.437 27.8027 199.032 25.8187 198.221 24.112C197.453 22.4053 196.28 21.0827 194.701 20.144C193.165 19.2053 191.288 18.736 189.069 18.736C185.741 18.736 183.16 19.8027 181.325 21.936C179.533 24.0693 178.637 26.7787 178.637 30.064C178.637 32.2827 179.085 34.2453 179.981 35.952C180.877 37.616 182.093 38.9387 183.629 39.92C185.208 40.8587 187.021 41.328 189.069 41.328ZM199.437 14.064H205.581V46H199.949C199.949 46 199.906 45.616 199.821 44.848C199.736 44.0373 199.65 43.0773 199.565 41.968C199.48 40.8587 199.437 39.8773 199.437 39.024V14.064ZM211.355 14.064H232.027V19.376H211.355V14.064ZM218.651 5.616H224.731V46H218.651V5.616ZM245.205 0.879997V7.472H237.589V0.879997H245.205ZM238.357 14.064H244.437V46H238.357V14.064ZM268.519 46.704C265.404 46.704 262.545 46.0427 259.943 44.72C257.34 43.3973 255.271 41.4987 253.735 39.024C252.199 36.5493 251.431 33.584 251.431 30.128C251.431 26.6293 252.199 23.6427 253.735 21.168C255.271 18.6507 257.34 16.7307 259.943 15.408C262.545 14.0853 265.404 13.424 268.519 13.424C271.633 13.424 274.471 14.0853 277.031 15.408C279.591 16.7307 281.639 18.6507 283.175 21.168C284.711 23.6427 285.479 26.6293 285.479 30.128C285.479 33.584 284.711 36.5493 283.175 39.024C281.639 41.4987 279.591 43.3973 277.031 44.72C274.471 46.0427 271.633 46.704 268.519 46.704ZM268.519 41.392C270.439 41.392 272.209 40.9653 273.831 40.112C275.495 39.216 276.817 37.936 277.799 36.272C278.823 34.5653 279.335 32.5173 279.335 30.128C279.335 27.696 278.823 25.6267 277.799 23.92C276.817 22.2133 275.495 20.912 273.831 20.016C272.209 19.12 270.439 18.672 268.519 18.672C266.599 18.672 264.807 19.12 263.143 20.016C261.479 20.8693 260.135 22.1493 259.111 23.856C258.087 25.5627 257.575 27.6533 257.575 30.128C257.575 32.5173 258.065 34.5653 259.047 36.272C260.071 37.936 261.415 39.216 263.079 40.112C264.743 40.9653 266.556 41.392 268.519 41.392ZM291.907 14.064H298.051V46H291.907V14.064ZM310.211 13.424C312.003 13.424 313.624 13.68 315.075 14.192C316.526 14.704 317.763 15.472 318.787 16.496C319.811 17.4773 320.6 18.7147 321.155 20.208C321.752 21.6587 322.051 23.3227 322.051 25.2V46H315.971V26.544C315.971 24.0267 315.352 22.1493 314.115 20.912C312.92 19.632 311.086 18.992 308.611 18.992C306.691 18.992 304.942 19.44 303.363 20.336C301.784 21.232 300.483 22.4267 299.459 23.92C298.478 25.3707 297.88 27.0133 297.667 28.848L297.603 25.328C297.816 23.6213 298.264 22.0427 298.947 20.592C299.672 19.1413 300.568 17.8827 301.635 16.816C302.744 15.7067 304.024 14.8747 305.475 14.32C306.926 13.7227 308.504 13.424 310.211 13.424Z" fill="#1E1E1E"/>
</svg>
