<svg width="583" height="72" viewBox="0 0 583 72" fill="none" xmlns="http://www.w3.org/2000/svg">
<path d="M31.4456 58.91C27.2456 58.91 23.4423 58.42 20.0356 57.44C16.6756 56.46 13.759 54.99 11.2856 53.03C8.85896 51.07 6.99229 48.6433 5.68563 45.75C4.37896 42.8567 3.72563 39.52 3.72563 35.74C3.72563 31.9133 4.40229 28.53 5.75563 25.59C7.15563 22.6033 9.11563 20.0833 11.6356 18.03C14.2023 15.9767 17.2356 14.4367 20.7356 13.41C24.2823 12.3367 28.2023 11.8 32.4956 11.8C37.5823 11.8 41.969 12.5233 45.6556 13.97C49.3423 15.37 52.2356 17.3533 54.3356 19.92C56.4823 22.4867 57.6956 25.5433 57.9756 29.09H49.0156C48.409 27.2233 47.4056 25.6133 46.0056 24.26C44.6523 22.86 42.8556 21.7867 40.6156 21.04C38.3756 20.2467 35.669 19.85 32.4956 19.85C28.4356 19.85 24.959 20.5033 22.0656 21.81C19.219 23.1167 17.049 24.96 15.5556 27.34C14.0623 29.72 13.3156 32.52 13.3156 35.74C13.3156 38.8667 13.969 41.5733 15.2756 43.86C16.5823 46.1 18.589 47.8267 21.2956 49.04C24.049 50.2533 27.549 50.86 31.7956 50.86C35.0623 50.86 37.9323 50.44 40.4056 49.6C42.9256 48.7133 45.0256 47.5467 46.7056 46.1C48.3856 44.6067 49.5756 42.95 50.2756 41.13L53.9156 39.8C53.309 45.82 51.0223 50.51 47.0556 53.87C43.1356 57.23 37.9323 58.91 31.4456 58.91ZM51.5356 58C51.5356 56.5533 51.629 54.8967 51.8156 53.03C52.0023 51.1167 52.2356 49.2033 52.5156 47.29C52.7956 45.33 53.0523 43.5333 53.2856 41.9H32.5656V35.95H59.5856V58H51.5356ZM78.7 39.1V50.23H113.63V58H69.39V12.71H113.56V20.48H78.7V31.75H107.26V39.1H78.7ZM119.199 12.71H166.939V20.48H119.199V12.71ZM138.449 19.5H147.759V58H138.449V19.5ZM191.921 12.71H201.231V58H191.921V12.71ZM259.206 48.76L256.266 49.95V12.71H265.576V58H256.266L219.656 22.23L222.596 21.04V58H213.286V12.71H222.596L259.206 48.76ZM286.474 12.71H334.214V20.48H286.474V12.71ZM305.724 19.5H315.034V58H305.724V19.5ZM364.445 58.91C358.425 58.91 353.269 57.9767 348.975 56.11C344.729 54.1967 341.462 51.49 339.175 47.99C336.935 44.49 335.815 40.29 335.815 35.39C335.815 30.4433 336.935 26.22 339.175 22.72C341.462 19.22 344.729 16.5367 348.975 14.67C353.269 12.7567 358.425 11.8 364.445 11.8C370.512 11.8 375.669 12.7567 379.915 14.67C384.162 16.5367 387.405 19.22 389.645 22.72C391.932 26.22 393.075 30.4433 393.075 35.39C393.075 40.29 391.932 44.49 389.645 47.99C387.405 51.49 384.162 54.1967 379.915 56.11C375.669 57.9767 370.512 58.91 364.445 58.91ZM364.445 50.86C368.179 50.86 371.445 50.3 374.245 49.18C377.092 48.06 379.309 46.3567 380.895 44.07C382.529 41.7833 383.345 38.89 383.345 35.39C383.345 31.89 382.529 28.9967 380.895 26.71C379.309 24.4233 377.092 22.72 374.245 21.6C371.445 20.4333 368.179 19.85 364.445 19.85C360.759 19.85 357.469 20.4333 354.575 21.6C351.682 22.72 349.419 24.4233 347.785 26.71C346.152 28.9967 345.335 31.89 345.335 35.39C345.335 38.89 346.152 41.7833 347.785 44.07C349.419 46.3567 351.682 48.06 354.575 49.18C357.469 50.3 360.759 50.86 364.445 50.86ZM443.743 37.98V12.71H453.053V38.96C453.053 41.9467 452.61 44.56 451.723 46.8C450.883 49.04 449.67 50.93 448.083 52.47C446.497 54.01 444.63 55.27 442.483 56.25C440.383 57.1833 438.073 57.86 435.553 58.28C433.08 58.7 430.467 58.91 427.713 58.91C424.867 58.91 422.16 58.7 419.593 58.28C417.027 57.86 414.67 57.1833 412.523 56.25C410.423 55.27 408.603 54.01 407.063 52.47C405.523 50.93 404.31 49.04 403.423 46.8C402.583 44.56 402.163 41.9467 402.163 38.96V12.71H411.473V37.98C411.473 41.5267 412.173 44.2333 413.573 46.1C414.973 47.92 416.887 49.18 419.313 49.88C421.787 50.5333 424.587 50.86 427.713 50.86C430.747 50.86 433.453 50.5333 435.833 49.88C438.26 49.18 440.173 47.92 441.573 46.1C443.02 44.2333 443.743 41.5267 443.743 37.98ZM516.674 41.69C516.254 45.33 514.97 48.4333 512.824 51C510.677 53.5667 507.76 55.5267 504.074 56.88C500.387 58.2333 496 58.91 490.914 58.91C486.667 58.91 482.77 58.42 479.224 57.44C475.724 56.46 472.69 54.99 470.124 53.03C467.604 51.07 465.644 48.6433 464.244 45.75C462.844 42.81 462.144 39.38 462.144 35.46C462.144 31.54 462.844 28.11 464.244 25.17C465.644 22.23 467.604 19.78 470.124 17.82C472.69 15.8133 475.724 14.32 479.224 13.34C482.77 12.3133 486.667 11.8 490.914 11.8C496 11.8 500.387 12.5 504.074 13.9C507.807 15.3 510.747 17.3067 512.894 19.92C515.04 22.4867 516.3 25.6133 516.674 29.3H507.434C506.827 27.34 505.8 25.66 504.354 24.26C502.954 22.8133 501.134 21.7167 498.894 20.97C496.654 20.2233 493.994 19.85 490.914 19.85C487.087 19.85 483.727 20.4567 480.834 21.67C477.94 22.8367 475.7 24.5867 474.114 26.92C472.527 29.2067 471.734 32.0533 471.734 35.46C471.734 38.82 472.527 41.6433 474.114 43.93C475.7 46.2167 477.94 47.9667 480.834 49.18C483.727 50.3467 487.087 50.93 490.914 50.93C493.994 50.93 496.63 50.5567 498.824 49.81C501.064 49.0633 502.884 47.99 504.284 46.59C505.73 45.19 506.78 43.5567 507.434 41.69H516.674ZM533.947 31.4H569.857V39.17H533.947V31.4ZM568.317 12.71H577.627V58H568.317V12.71ZM525.757 12.71H535.067V58H525.757V12.71Z" fill="#F0ABFC"/>
<path d="M20.0356 59.44L19.6156 60.88L19.6209 60.8815L20.0356 59.44ZM11.2856 55.03L10.3431 56.197L10.354 56.2056L11.2856 55.03ZM5.68563 47.75L4.31857 48.3674L5.68563 47.75ZM5.75563 27.59L4.3974 26.9533L4.39305 26.9628L5.75563 27.59ZM11.6356 20.03L10.6985 18.8586L10.6881 18.8671L11.6356 20.03ZM20.7356 15.41L21.1579 16.8494L21.1701 16.8457L20.7356 15.41ZM45.6556 15.97L45.1077 17.3663L45.1154 17.3694L45.1231 17.3723L45.6556 15.97ZM54.3356 21.92L53.1747 22.8699L53.1798 22.8761L53.185 22.8823L54.3356 21.92ZM57.9756 31.09V32.59H59.5987L59.471 30.9719L57.9756 31.09ZM49.0156 31.09L47.5891 31.5536L47.9259 32.59H49.0156V31.09ZM46.0056 26.26L44.9271 27.3025L44.9448 27.3208L44.9631 27.3385L46.0056 26.26ZM40.6156 23.04L40.1149 24.4539L40.128 24.4586L40.1413 24.463L40.6156 23.04ZM22.0656 23.81L21.4482 22.4429L21.4399 22.4468L22.0656 23.81ZM15.5556 29.34L16.8262 30.1372L15.5556 29.34ZM15.2756 45.86L13.9732 46.6042L13.98 46.6158L15.2756 45.86ZM21.2956 51.04L20.682 52.4088L20.6907 52.4126L21.2956 51.04ZM40.4056 51.6L40.888 53.0203L40.8958 53.0177L40.9035 53.015L40.4056 51.6ZM46.7056 48.1L47.6844 49.2367L47.6934 49.229L47.7022 49.2211L46.7056 48.1ZM50.2756 43.13L49.7608 41.7211L49.1204 41.9551L48.8756 42.5915L50.2756 43.13ZM53.9156 41.8L55.4081 41.9504L55.6479 39.57L53.4008 40.3911L53.9156 41.8ZM47.0556 55.87L46.0861 54.7254L46.0794 54.7311L47.0556 55.87ZM51.5356 60H50.0356V61.5H51.5356V60ZM51.8156 55.03L53.3082 55.1793L53.3085 55.1757L51.8156 55.03ZM52.5156 49.29L53.9998 49.5072L54.0006 49.5021L52.5156 49.29ZM53.2856 43.9L54.7706 44.1121L55.0151 42.4H53.2856V43.9ZM32.5656 43.9H31.0656V45.4H32.5656V43.9ZM32.5656 37.95V36.45H31.0656V37.95H32.5656ZM59.5856 37.95H61.0856V36.45H59.5856V37.95ZM59.5856 60V61.5H61.0856V60H59.5856ZM31.4456 59.41C27.3608 59.41 23.7 58.9333 20.4503 57.9985L19.6209 60.8815C23.1846 61.9067 27.1304 62.41 31.4456 62.41V59.41ZM20.4556 58C17.2613 57.0683 14.523 55.6816 12.2172 53.8544L10.354 56.2056C12.9949 58.2984 16.0899 59.8517 19.6156 60.88L20.4556 58ZM12.2281 53.8631C9.98735 52.0532 8.26454 49.816 7.05268 47.1326L4.31857 48.3674C5.72004 51.4706 7.73057 54.0868 10.3431 56.1969L12.2281 53.8631ZM7.05268 47.1326C5.84873 44.4667 5.22563 41.3471 5.22563 37.74H2.22563C2.22563 41.6929 2.90919 45.2466 4.31857 48.3674L7.05268 47.1326ZM5.22563 37.74C5.22563 34.0908 5.87042 30.9279 7.1182 28.2172L4.39305 26.9628C2.93416 30.1321 2.22563 33.7358 2.22563 37.74H5.22563ZM7.11381 28.2266C8.41964 25.4409 10.2405 23.1017 12.5831 21.1929L10.6881 18.8671C7.9908 21.065 5.89161 23.7658 4.39744 26.9533L7.11381 28.2266ZM12.5727 21.2013C14.9709 19.2827 17.8247 17.8271 21.1578 16.8494L20.3134 13.9706C16.6466 15.0463 13.4337 16.6706 10.6986 18.8587L12.5727 21.2013ZM21.1701 16.8457C24.5556 15.8211 28.3267 15.3 32.4956 15.3V12.3C28.0779 12.3 24.009 12.8522 20.3011 13.9743L21.1701 16.8457ZM32.4956 15.3C37.4457 15.3 41.6374 16.0046 45.1077 17.3663L46.2036 14.5737C42.3005 13.0421 37.7189 12.3 32.4956 12.3V15.3ZM45.1231 17.3723C48.6109 18.6968 51.2699 20.5418 53.1747 22.8699L55.4966 20.9701C53.2014 18.1649 50.0737 16.0432 46.1881 14.5677L45.1231 17.3723ZM53.185 22.8823C55.119 25.1947 56.2231 27.951 56.4803 31.2081L59.471 30.9719C59.1681 27.1357 57.8456 23.7787 55.4862 20.9577L53.185 22.8823ZM57.9756 29.59H49.0156V32.59H57.9756V29.59ZM50.4422 30.6264C49.7603 28.5284 48.626 26.7067 47.0482 25.1815L44.9631 27.3385C46.1853 28.5199 47.0576 29.9183 47.5891 31.5536L50.4422 30.6264ZM47.0841 25.2175C45.5309 23.6107 43.5108 22.4239 41.09 21.617L40.1413 24.463C42.2004 25.1494 43.7737 26.1093 44.9271 27.3025L47.0841 25.2175ZM41.1164 21.6261C38.6718 20.7603 35.7859 20.35 32.4956 20.35V23.35C35.552 23.35 38.0795 23.7331 40.1149 24.4539L41.1164 21.6261ZM32.4956 20.35C28.2799 20.35 24.5817 21.0278 21.4482 22.4429L22.683 25.1771C25.3362 23.9788 28.5913 23.35 32.4956 23.35V20.35ZM21.4399 22.4468C18.3593 23.8608 15.9511 25.8875 14.285 28.5428L16.8262 30.1372C18.1468 28.0325 20.0786 26.3725 22.6914 25.1732L21.4399 22.4468ZM14.285 28.5428C12.6209 31.195 11.8156 34.2801 11.8156 37.74H14.8156C14.8156 34.7599 15.5037 32.245 16.8262 30.1372L14.285 28.5428ZM11.8156 37.74C11.8156 41.0787 12.5148 44.0518 13.9733 46.6042L16.578 45.1158C15.4232 43.0948 14.8156 40.6547 14.8156 37.74H11.8156ZM13.98 46.6158C15.4664 49.1641 17.7323 51.0864 20.682 52.4088L21.9092 49.6712C19.4457 48.5669 17.6981 47.0359 16.5713 45.1042L13.98 46.6158ZM20.6907 52.4126C23.6961 53.737 27.4203 54.36 31.7956 54.36V51.36C27.6776 51.36 24.4018 50.7696 21.9005 49.6674L20.6907 52.4126ZM31.7956 54.36C35.187 54.36 38.226 53.9244 40.888 53.0203L39.9233 50.1797C37.6386 50.9556 34.9376 51.36 31.7956 51.36V54.36ZM40.9035 53.015C43.5645 52.0787 45.8371 50.8274 47.6844 49.2367L45.7268 46.9633C44.2142 48.2659 42.2867 49.348 39.9078 50.185L40.9035 53.015ZM47.7022 49.2211C49.5338 47.593 50.8773 45.7441 51.6756 43.6685L48.8756 42.5915C48.2739 44.1559 47.2374 45.6203 45.7091 46.9789L47.7022 49.2211ZM50.7904 44.5389L54.4304 43.2089L53.4008 40.3911L49.7608 41.7211L50.7904 44.5389ZM52.4232 41.6496C51.8486 47.3511 49.7079 51.6576 46.0861 54.7254L48.0251 57.0146C52.3367 53.3624 54.7693 48.2889 55.4081 41.9504L52.4232 41.6496ZM46.0794 54.7311C42.4954 57.8031 37.6689 59.41 31.4456 59.41V62.41C38.1957 62.41 43.7758 60.6569 48.0318 57.0089L46.0794 54.7311ZM53.0356 60C53.0356 58.6152 53.1251 57.01 53.3082 55.1793L50.3231 54.8807C50.1328 56.7833 50.0356 58.4914 50.0356 60H53.0356ZM53.3085 55.1757C53.4929 53.2864 53.7233 51.3969 53.9998 49.5072L51.0314 49.0728C50.748 51.0098 50.5117 52.947 50.3227 54.8843L53.3085 55.1757ZM54.0006 49.5021C54.2806 47.5421 54.5372 45.7455 54.7706 44.1121L51.8007 43.6879C51.5674 45.3212 51.3107 47.1179 51.0307 49.0779L54.0006 49.5021ZM53.2856 42.4H32.5656V45.4H53.2856V42.4ZM34.0656 43.9V37.95H31.0656V43.9H34.0656ZM32.5656 39.45H59.5856V36.45H32.5656V39.45ZM58.0856 37.95V60H61.0856V37.95H58.0856ZM59.5856 58.5H51.5356V61.5H59.5856V58.5ZM78.7 41.1V39.6H77.2V41.1H78.7ZM78.7 52.23H77.2V53.73H78.7V52.23ZM113.63 52.23H115.13V50.73H113.63V52.23ZM113.63 60V61.5H115.13V60H113.63ZM69.39 60H67.89V61.5H69.39V60ZM69.39 14.71V13.21H67.89V14.71H69.39ZM113.56 14.71H115.06V13.21H113.56V14.71ZM113.56 22.48V23.98H115.06V22.48H113.56ZM78.7 22.48V20.98H77.2V22.48H78.7ZM78.7 33.75H77.2V35.25H78.7V33.75ZM107.26 33.75H108.76V32.25H107.26V33.75ZM107.26 41.1V42.6H108.76V41.1H107.26ZM77.2 41.1V52.23H80.2V41.1H77.2ZM78.7 53.73H113.63V50.73H78.7V53.73ZM112.13 52.23V60H115.13V52.23H112.13ZM113.63 58.5H69.39V61.5H113.63V58.5ZM70.89 60V14.71H67.89V60H70.89ZM69.39 16.21H113.56V13.21H69.39V16.21ZM112.06 14.71V22.48H115.06V14.71H112.06ZM113.56 20.98H78.7V23.98H113.56V20.98ZM77.2 22.48V33.75H80.2V22.48H77.2ZM78.7 35.25H107.26V32.25H78.7V35.25ZM105.76 33.75V41.1H108.76V33.75H105.76ZM107.26 39.6H78.7V42.6H107.26V39.6ZM119.199 14.71V13.21H117.699V14.71H119.199ZM166.939 14.71H168.439V13.21H166.939V14.71ZM166.939 22.48V23.98H168.439V22.48H166.939ZM119.199 22.48H117.699V23.98H119.199V22.48ZM138.449 21.5V20H136.949V21.5H138.449ZM147.759 21.5H149.259V20H147.759V21.5ZM147.759 60V61.5H149.259V60H147.759ZM138.449 60H136.949V61.5H138.449V60ZM119.199 16.21H166.939V13.21H119.199V16.21ZM165.439 14.71V22.48H168.439V14.71H165.439ZM166.939 20.98H119.199V23.98H166.939V20.98ZM120.699 22.48V14.71H117.699V22.48H120.699ZM138.449 23H147.759V20H138.449V23ZM146.259 21.5V60H149.259V21.5H146.259ZM147.759 58.5H138.449V61.5H147.759V58.5ZM139.949 60V21.5H136.949V60H139.949ZM191.921 14.71V13.21H190.421V14.71H191.921ZM201.231 14.71H202.731V13.21H201.231V14.71ZM201.231 60V61.5H202.731V60H201.231ZM191.921 60H190.421V61.5H191.921V60ZM191.921 16.21H201.231V13.21H191.921V16.21ZM199.731 14.71V60H202.731V14.71H199.731ZM201.231 58.5H191.921V61.5H201.231V58.5ZM193.421 60V14.71H190.421V60H193.421ZM259.206 50.76L259.769 52.1504L261.886 51.2936L260.259 49.6912L259.206 50.76ZM256.266 51.95H254.766V54.1754L256.829 53.3404L256.266 51.95ZM256.266 14.71V13.21H254.766V14.71H256.266ZM265.576 14.71H267.076V13.21H265.576V14.71ZM265.576 60V61.5H267.076V60H265.576ZM256.266 60L255.218 61.0729L255.655 61.5H256.266V60ZM219.656 24.23L219.094 22.8396L216.968 23.7001L218.608 25.3029L219.656 24.23ZM222.596 23.04H224.096V20.8146L222.034 21.6496L222.596 23.04ZM222.596 60V61.5H224.096V60H222.596ZM213.286 60H211.786V61.5H213.286V60ZM213.286 14.71V13.21H211.786V14.71H213.286ZM222.596 14.71L223.649 13.6412L223.211 13.21H222.596V14.71ZM258.644 49.3696L255.704 50.5596L256.829 53.3404L259.769 52.1504L258.644 49.3696ZM257.766 51.95V14.71H254.766V51.95H257.766ZM256.266 16.21H265.576V13.21H256.266V16.21ZM264.076 14.71V60H267.076V14.71H264.076ZM265.576 58.5H256.266V61.5H265.576V58.5ZM257.315 58.9271L220.705 23.1571L218.608 25.3029L255.218 61.0729L257.315 58.9271ZM220.219 25.6204L223.159 24.4304L222.034 21.6496L219.094 22.8396L220.219 25.6204ZM221.096 23.04V60H224.096V23.04H221.096ZM222.596 58.5H213.286V61.5H222.596V58.5ZM214.786 60V14.71H211.786V60H214.786ZM213.286 16.21H222.596V13.21H213.286V16.21ZM221.544 15.7788L258.154 51.8288L260.259 49.6912L223.649 13.6412L221.544 15.7788ZM286.474 14.71V13.21H284.974V14.71H286.474ZM334.214 14.71H335.714V13.21H334.214V14.71ZM334.214 22.48V23.98H335.714V22.48H334.214ZM286.474 22.48H284.974V23.98H286.474V22.48ZM305.724 21.5V20H304.224V21.5H305.724ZM315.034 21.5H316.534V20H315.034V21.5ZM315.034 60V61.5H316.534V60H315.034ZM305.724 60H304.224V61.5H305.724V60ZM286.474 16.21H334.214V13.21H286.474V16.21ZM332.714 14.71V22.48H335.714V14.71H332.714ZM334.214 20.98H286.474V23.98H334.214V20.98ZM287.974 22.48V14.71H284.974V22.48H287.974ZM305.724 23H315.034V20H305.724V23ZM313.534 21.5V60H316.534V21.5H313.534ZM315.034 58.5H305.724V61.5H315.034V58.5ZM307.224 60V21.5H304.224V60H307.224ZM348.975 58.11L348.359 59.4776L348.368 59.4817L348.377 59.4856L348.975 58.11ZM339.175 49.99L337.912 50.7986L337.92 50.8104L339.175 49.99ZM339.175 24.72L337.92 23.8995L337.912 23.9114L339.175 24.72ZM348.975 16.67L349.579 18.0432L349.586 18.0401L348.975 16.67ZM379.915 16.67L379.299 18.0377L379.312 18.0432L379.915 16.67ZM389.645 24.72L388.382 25.5286L388.39 25.5404L389.645 24.72ZM389.645 49.99L388.39 49.1695L388.382 49.1814L389.645 49.99ZM379.915 58.11L380.519 59.4833L380.532 59.4776L379.915 58.11ZM374.245 51.18L373.696 49.7841L373.688 49.7873L374.245 51.18ZM380.895 46.07L379.675 45.1981L379.669 45.2065L379.663 45.2149L380.895 46.07ZM380.895 28.71L379.663 29.5651L379.669 29.5735L379.675 29.5819L380.895 28.71ZM374.245 23.6L373.669 24.9846L373.682 24.9904L373.696 24.9958L374.245 23.6ZM354.575 23.6L355.117 24.9988L355.127 24.9951L355.136 24.9912L354.575 23.6ZM347.785 46.07L349.006 45.1981L347.785 46.07ZM354.575 51.18L354.034 52.5789L354.575 51.18ZM364.445 59.41C358.575 59.41 353.633 58.4992 349.574 56.7344L348.377 59.4856C352.905 61.4542 358.276 62.41 364.445 62.41V59.41ZM349.592 56.7424C345.575 54.9328 342.544 52.4031 340.431 49.1696L337.92 50.8104C340.38 54.5769 343.882 57.4605 348.359 59.4776L349.592 56.7424ZM340.439 49.1814C338.379 45.9633 337.315 42.0556 337.315 37.39H334.315C334.315 42.5244 335.492 47.0167 337.912 50.7986L340.439 49.1814ZM337.315 37.39C337.315 32.6746 338.381 28.7445 340.439 25.5286L337.912 23.9114C335.49 27.6955 334.315 32.212 334.315 37.39H337.315ZM340.431 25.5404C342.542 22.3103 345.569 19.8061 349.579 18.0432L348.372 15.2968C343.889 17.2673 340.383 20.1297 337.92 23.8996L340.431 25.5404ZM349.586 18.0401C353.641 16.2329 358.579 15.3 364.445 15.3V12.3C358.272 12.3 352.896 13.2805 348.365 15.2999L349.586 18.0401ZM364.445 15.3C370.361 15.3 375.296 16.2337 379.299 18.0376L380.532 15.3024C376.042 13.2796 370.663 12.3 364.445 12.3V15.3ZM379.312 18.0432C383.32 19.8052 386.32 22.3062 388.382 25.5286L390.909 23.9114C388.491 20.1338 385.004 17.2681 380.519 15.2968L379.312 18.0432ZM388.39 25.5404C390.49 28.7547 391.575 32.6804 391.575 37.39H394.575C394.575 32.2062 393.375 27.6853 390.901 23.8996L388.39 25.5404ZM391.575 37.39C391.575 42.0497 390.491 45.9531 388.39 49.1696L390.901 50.8104C393.373 47.0269 394.575 42.5303 394.575 37.39H391.575ZM388.382 49.1814C386.318 52.4073 383.314 54.9337 379.299 56.7424L380.532 59.4776C385.011 57.4596 388.493 54.5727 390.909 50.7986L388.382 49.1814ZM379.312 56.7368C375.304 58.4983 370.365 59.41 364.445 59.41V62.41C370.659 62.41 376.033 61.455 380.519 59.4832L379.312 56.7368ZM364.445 54.36C368.326 54.36 371.789 53.7783 374.803 52.5727L373.688 49.7873C371.102 50.8218 368.032 51.36 364.445 51.36V54.36ZM374.795 52.5758C377.889 51.3584 380.355 49.4797 382.128 46.9251L379.663 45.2149C378.262 47.2337 376.295 48.7616 373.696 49.7841L374.795 52.5758ZM382.116 46.9419C383.972 44.3442 384.845 41.1251 384.845 37.39H381.845C381.845 40.6549 381.086 43.2224 379.675 45.1981L382.116 46.9419ZM384.845 37.39C384.845 33.6549 383.972 30.4358 382.116 27.8381L379.675 29.5819C381.086 31.5575 381.845 34.1251 381.845 37.39H384.845ZM382.128 27.8549C380.355 25.3003 377.889 23.4216 374.795 22.2041L373.696 24.9958C376.295 26.0184 378.262 27.5463 379.663 29.5651L382.128 27.8549ZM374.822 22.2154C371.803 20.9572 368.332 20.35 364.445 20.35V23.35C368.025 23.35 371.088 23.9095 373.669 24.9846L374.822 22.2154ZM364.445 20.35C360.601 20.35 357.115 20.9585 354.015 22.2088L355.136 24.9912C357.822 23.9082 360.917 23.35 364.445 23.35V20.35ZM354.034 22.2011C350.897 23.4154 348.386 25.2888 346.565 27.8381L349.006 29.5819C350.452 27.5578 352.467 26.0246 355.117 24.9988L354.034 22.2011ZM346.565 27.8381C344.709 30.4358 343.835 33.6549 343.835 37.39H346.835C346.835 34.1251 347.595 31.5575 349.006 29.5819L346.565 27.8381ZM343.835 37.39C343.835 41.1251 344.709 44.3442 346.565 46.9419L349.006 45.1981C347.595 43.2225 346.835 40.6549 346.835 37.39H343.835ZM346.565 46.9419C348.386 49.4912 350.897 51.3646 354.034 52.5789L355.117 49.7811C352.467 48.7554 350.452 47.2221 349.006 45.1981L346.565 46.9419ZM354.034 52.5789C357.129 53.777 360.608 54.36 364.445 54.36V51.36C360.91 51.36 357.808 50.823 355.117 49.7811L354.034 52.5789ZM443.743 14.71V13.21H442.243V14.71H443.743ZM453.053 14.71H454.553V13.21H453.053V14.71ZM451.723 48.8L450.329 48.2479L450.324 48.2606L450.319 48.2733L451.723 48.8ZM442.483 58.25L443.093 59.6207L443.1 59.6177L443.106 59.6145L442.483 58.25ZM435.553 60.28L435.307 58.8004L435.302 58.8012L435.553 60.28ZM419.593 60.28L419.351 61.7603L419.593 60.28ZM412.523 58.25L411.889 59.6093L411.907 59.6177L411.925 59.6256L412.523 58.25ZM407.063 54.47L406.003 55.5307L407.063 54.47ZM403.423 48.8L402.019 49.3267L402.024 49.3394L402.029 49.3521L403.423 48.8ZM402.163 14.71V13.21H400.663V14.71H402.163ZM411.473 14.71H412.973V13.21H411.473V14.71ZM413.573 48.1L412.373 49L412.379 49.0073L412.384 49.0146L413.573 48.1ZM419.313 51.88L418.898 53.3212L418.914 53.3259L418.93 53.3303L419.313 51.88ZM435.833 51.88L436.231 53.3265L436.24 53.3239L436.249 53.3212L435.833 51.88ZM441.573 48.1L440.388 47.1811L440.384 47.1854L441.573 48.1ZM445.243 39.98V14.71H442.243V39.98H445.243ZM443.743 16.21H453.053V13.21H443.743V16.21ZM451.553 14.71V40.96H454.553V14.71H451.553ZM451.553 40.96C451.553 43.8014 451.131 46.2202 450.329 48.2479L453.118 49.3521C454.089 46.8998 454.553 44.0919 454.553 40.96H451.553ZM450.319 48.2733C449.55 50.323 448.454 52.0204 447.039 53.3936L449.128 55.5464C450.887 53.8396 452.217 51.757 453.128 49.3267L450.319 48.2733ZM447.039 53.3936C445.583 54.8064 443.862 55.9719 441.861 56.8855L443.106 59.6145C445.399 58.5681 447.41 57.2136 449.128 55.5464L447.039 53.3936ZM441.874 56.8793C439.902 57.7558 437.716 58.3989 435.307 58.8004L435.8 61.7596C438.431 61.321 440.865 60.6109 443.093 59.6207L441.874 56.8793ZM435.302 58.8012C432.92 59.2058 430.391 59.41 427.713 59.41V62.41C430.543 62.41 433.241 62.1942 435.805 61.7588L435.302 58.8012ZM427.713 59.41C424.94 59.41 422.315 59.2054 419.836 58.7997L419.351 61.7603C422.005 62.1946 424.793 62.41 427.713 62.41V59.41ZM419.836 58.7997C417.378 58.3975 415.143 57.7531 413.122 56.8744L411.925 59.6256C414.198 60.6136 416.675 61.3225 419.351 61.7603L419.836 58.7997ZM413.158 56.8907C411.206 55.9799 409.533 54.818 408.124 53.4093L406.003 55.5307C407.674 57.202 409.641 58.5601 411.889 59.6093L413.158 56.8907ZM408.124 53.4093C406.744 52.029 405.637 50.3177 404.818 48.2479L402.029 49.3521C402.983 51.7623 404.303 53.831 406.003 55.5307L408.124 53.4093ZM404.828 48.2733C404.065 46.2378 403.663 43.8098 403.663 40.96H400.663C400.663 44.0836 401.102 46.8822 402.019 49.3267L404.828 48.2733ZM403.663 40.96V14.71H400.663V40.96H403.663ZM402.163 16.21H411.473V13.21H402.163V16.21ZM409.973 14.71V39.98H412.973V14.71H409.973ZM409.973 39.98C409.973 43.6916 410.701 46.7699 412.373 49L414.773 47.2C413.646 45.6968 412.973 43.3617 412.973 39.98H409.973ZM412.384 49.0146C413.999 51.1135 416.196 52.5419 418.898 53.3212L419.729 50.4388C417.577 49.8181 415.948 48.7265 414.762 47.1854L412.384 49.0146ZM418.93 53.3303C421.553 54.023 424.485 54.36 427.713 54.36V51.36C424.689 51.36 422.021 51.0437 419.697 50.4297L418.93 53.3303ZM427.713 54.36C430.852 54.36 433.696 54.0224 436.231 53.3265L435.436 50.4335C433.211 51.0443 430.642 51.36 427.713 51.36V54.36ZM436.249 53.3212C438.951 52.5419 441.148 51.1135 442.762 49.0146L440.384 47.1854C439.199 48.7265 437.569 49.8181 435.418 50.4388L436.249 53.3212ZM442.759 49.0189C444.489 46.7863 445.243 43.7001 445.243 39.98H442.243C442.243 43.3532 441.551 45.6804 440.388 47.1811L442.759 49.0189ZM516.674 43.69L518.164 43.8619L518.357 42.19H516.674V43.69ZM479.224 59.44L478.819 60.8845L478.824 60.8858L479.224 59.44ZM470.124 55.03L469.203 56.2141L469.213 56.2222L470.124 55.03ZM464.244 47.75L462.889 48.3949L462.893 48.4033L464.244 47.75ZM470.124 19.82L471.044 21.004L471.047 21.0017L470.124 19.82ZM479.224 15.34L479.628 16.7845L479.641 16.7808L479.224 15.34ZM504.074 15.9L503.541 17.3023L503.547 17.3045L504.074 15.9ZM512.894 21.92L511.734 22.8721L511.743 22.8823L512.894 21.92ZM516.674 31.3V32.8H518.333L518.166 31.1489L516.674 31.3ZM507.434 31.3L506.001 31.7435L506.328 32.8H507.434V31.3ZM504.354 26.26L503.276 27.3031L503.293 27.3208L503.31 27.3379L504.354 26.26ZM498.894 22.97L499.368 21.547L498.894 22.97ZM480.834 23.67L481.395 25.0612L481.404 25.0573L481.414 25.0533L480.834 23.67ZM474.114 28.92L475.346 29.7752L475.354 29.7635L474.114 28.92ZM474.114 45.93L472.881 46.7851L474.114 45.93ZM480.834 51.18L480.254 52.5633L480.263 52.5673L480.273 52.5712L480.834 51.18ZM498.824 51.81L498.349 50.3869L498.34 50.39L498.824 51.81ZM504.284 48.59L503.24 47.5121L503.232 47.5206L503.223 47.5293L504.284 48.59ZM507.434 43.69V42.19H506.369L506.018 43.1945L507.434 43.69ZM515.183 43.5181C514.794 46.8959 513.614 49.7169 511.673 52.0377L513.974 53.9623C516.327 51.1497 517.713 47.7641 518.164 43.8619L515.183 43.5181ZM511.673 52.0377C509.722 54.3702 507.04 56.1932 503.557 57.4719L504.591 60.2881C508.481 58.8601 511.632 56.7631 513.974 53.9623L511.673 52.0377ZM503.557 57.4719C500.076 58.7495 495.873 59.41 490.914 59.41V62.41C496.127 62.41 500.697 61.7172 504.591 60.2881L503.557 57.4719ZM490.914 59.41C486.782 59.41 483.021 58.9332 479.623 57.9942L478.824 60.8858C482.519 61.9068 486.552 62.41 490.914 62.41V59.41ZM479.628 57.9956C476.288 57.0604 473.432 55.6689 471.034 53.8378L469.213 56.2222C471.949 58.3111 475.159 59.8596 478.819 60.8844L479.628 57.9956ZM471.044 53.846C468.708 52.0285 466.894 49.7839 465.594 47.0967L462.893 48.4033C464.393 51.5027 466.499 54.1115 469.203 56.214L471.044 53.846ZM465.598 47.1051C464.311 44.4034 463.644 41.2017 463.644 37.46H460.644C460.644 41.5583 461.376 45.2166 462.889 48.3949L465.598 47.1051ZM463.644 37.46C463.644 33.7183 464.311 30.5166 465.598 27.8149L462.889 26.5251C461.376 29.7034 460.644 33.3617 460.644 37.46H463.644ZM465.598 27.8149C466.899 25.0815 468.713 22.8176 471.044 21.004L469.203 18.636C466.494 20.7424 464.388 23.3785 462.889 26.5251L465.598 27.8149ZM471.047 21.0017C473.443 19.1289 476.295 17.7177 479.628 16.7844L478.819 13.8956C475.152 14.9223 471.938 16.4978 469.2 18.6383L471.047 21.0017ZM479.641 16.7808C483.033 15.7988 486.787 15.3 490.914 15.3V12.3C486.547 12.3 482.507 12.8279 478.807 13.8992L479.641 16.7808ZM490.914 15.3C495.868 15.3 500.066 15.9826 503.541 17.3023L504.606 14.4977C500.708 13.0174 496.132 12.3 490.914 12.3V15.3ZM503.547 17.3045C507.078 18.6286 509.783 20.4963 511.734 22.8721L514.053 20.9679C511.711 18.117 508.536 15.9714 504.6 14.4955L503.547 17.3045ZM511.743 22.8823C513.677 25.1944 514.835 28.0296 515.181 31.4511L518.166 31.1489C517.766 27.1971 516.404 23.7789 514.044 20.9577L511.743 22.8823ZM516.674 29.8H507.434V32.8H516.674V29.8ZM508.867 30.8565C508.187 28.6604 507.028 26.7609 505.397 25.1821L503.31 27.3379C504.572 28.5591 505.467 30.0196 506.001 31.7435L508.867 30.8565ZM505.431 25.2169C503.837 23.5692 501.797 22.3567 499.368 21.547L498.419 24.393C500.47 25.0766 502.07 26.0574 503.276 27.3031L505.431 25.2169ZM499.368 21.547C496.937 20.7365 494.109 20.35 490.914 20.35V23.35C493.879 23.35 496.371 23.7102 498.419 24.393L499.368 21.547ZM490.914 20.35C486.93 20.35 483.366 20.9814 480.254 22.2867L481.414 25.0533C484.088 23.9319 487.243 23.35 490.914 23.35V20.35ZM480.273 22.2788C477.134 23.5445 474.645 25.4716 472.873 28.0765L475.354 29.7635C476.756 27.7017 478.747 26.1289 481.395 25.0612L480.273 22.2788ZM472.881 28.0649C471.085 30.6542 470.234 33.817 470.234 37.46H473.234C473.234 34.2896 473.969 31.7592 475.346 29.7751L472.881 28.0649ZM470.234 37.46C470.234 41.0612 471.087 44.1991 472.881 46.7851L475.346 45.0749C473.967 43.0875 473.234 40.5788 473.234 37.46H470.234ZM472.881 46.7851C474.651 49.3353 477.131 51.254 480.254 52.5633L481.414 49.7967C478.749 48.6793 476.75 47.0981 475.346 45.0749L472.881 46.7851ZM480.273 52.5712C483.38 53.824 486.937 54.43 490.914 54.43V51.43C487.237 51.43 484.074 50.8693 481.395 49.7888L480.273 52.5712ZM490.914 54.43C494.107 54.43 496.916 54.0438 499.307 53.23L498.34 50.39C496.344 51.0695 493.88 51.43 490.914 51.43V54.43ZM499.298 53.233C501.717 52.4268 503.751 51.2441 505.344 49.6507L503.223 47.5293C502.016 48.7359 500.411 49.6999 498.349 50.387L499.298 53.233ZM505.327 49.6679C506.938 48.1085 508.117 46.2768 508.849 44.1855L506.018 43.1945C505.443 44.8366 504.522 46.2715 503.24 47.5121L505.327 49.6679ZM507.434 45.19H516.674V42.19H507.434V45.19ZM533.947 33.4V31.9H532.447V33.4H533.947ZM569.857 33.4H571.357V31.9H569.857V33.4ZM569.857 41.17V42.67H571.357V41.17H569.857ZM533.947 41.17H532.447V42.67H533.947V41.17ZM568.317 14.71V13.21H566.817V14.71H568.317ZM577.627 14.71H579.127V13.21H577.627V14.71ZM577.627 60V61.5H579.127V60H577.627ZM568.317 60H566.817V61.5H568.317V60ZM525.757 14.71V13.21H524.257V14.71H525.757ZM535.067 14.71H536.567V13.21H535.067V14.71ZM535.067 60V61.5H536.567V60H535.067ZM525.757 60H524.257V61.5H525.757V60ZM533.947 34.9H569.857V31.9H533.947V34.9ZM568.357 33.4V41.17H571.357V33.4H568.357ZM569.857 39.67H533.947V42.67H569.857V39.67ZM535.447 41.17V33.4H532.447V41.17H535.447ZM568.317 16.21H577.627V13.21H568.317V16.21ZM576.127 14.71V60H579.127V14.71H576.127ZM577.627 58.5H568.317V61.5H577.627V58.5ZM569.817 60V14.71H566.817V60H569.817ZM525.757 16.21H535.067V13.21H525.757V16.21ZM533.567 14.71V60H536.567V14.71H533.567ZM535.067 58.5H525.757V61.5H535.067V58.5ZM527.257 60V14.71H524.257V60H527.257Z" fill="#262626"/>
</svg>
