<svg width="331" height="128" viewBox="0 0 331 128" fill="none" xmlns="http://www.w3.org/2000/svg">
<path d="M176.391 -24.2393C175.112 -22.9854 173.117 -24.0907 173.248 -25.9856C174.756 -47.8003 175.551 -115.012 122.75 -102.449C95.5709 -95.9836 106.471 -47.2732 109.061 -37.109C109.199 -36.5702 108.625 -36.1592 108.244 -36.5238C101.429 -43.0352 81.7808 -78.2629 54.265 -67.5506C31.0721 -58.5219 46.5804 -28.006 50.4206 -20.9093C50.56 -20.6516 50.2729 -20.3752 50.0649 -20.5633C43.2749 -26.7148 28.5279 -59.6853 4.18872 -42.7333C-4.20102 -36.8907 -2.20605 -17.2728 1.68823 -10.8008C1.87961 -10.4827 1.52808 -10.1111 1.25348 -10.341C-5.08304 -15.6913 -29.0665 -34.5963 -45.1949 -28.7839C-60.8302 -23.1479 -53.3391 0.266777 -53.3391 0.266777C-53.3391 0.266777 -121.793 -4.38226 -119.964 18.575C-118.42 37.9444 -54.6601 45.7168 -54.6601 45.7168C-54.6601 45.7168 -62.224 75.7869 -49.6071 86.6757C-25.1119 107.819 -0.448242 78.5387 6.03598 69.8374C6.5394 69.1617 7.52335 69.5843 7.49216 70.4598C7.17178 79.8159 8.38257 108.583 34.9455 112.294C65.0824 116.504 78.5563 80.4731 78.5563 80.4731C78.5563 80.4731 94.6784 114.319 129.357 119.163C156.81 122.997 178.894 83.6545 178.894 83.6545C178.894 83.6545 192.73 103.679 218.224 98.8138C239.328 94.7871 240.289 85.0873 239.715 81.0745C239.628 80.4684 240.22 80.0319 240.68 80.3663C246.243 84.4254 266.954 97.4089 276.979 74.0244C279.157 68.9411 269.912 52.9109 269.912 52.9109C269.912 52.9109 327.916 53.524 318.992 22.0908C309.213 -12.359 254.901 -0.20462 254.901 -0.20462C254.901 -0.20462 268.993 -32.4042 228.845 -38.9481C200.431 -43.5809 183.354 -31.0596 176.393 -24.2347L176.391 -24.2393Z" fill="#D3F2F5"/>
<path d="M186.466 -16.6656C185.187 -15.4116 183.192 -16.5169 183.323 -18.4118C184.831 -40.2265 185.626 -107.438 132.824 -94.8748C105.645 -88.4098 116.546 -39.6994 119.136 -29.5352C119.273 -28.9964 118.699 -28.5854 118.319 -28.95C111.504 -35.4614 91.8554 -70.6891 64.3397 -59.9768C41.1467 -50.9481 56.655 -20.4322 60.4952 -13.3355C60.6346 -13.0778 60.3475 -12.8014 60.1395 -12.9895C53.3495 -19.141 38.6025 -52.1115 14.2633 -35.1595C5.8736 -29.3169 7.86858 -9.69896 11.7628 -3.22701C11.9542 -2.90886 11.6027 -2.53732 11.3281 -2.76722C4.99159 -8.11756 -18.9919 -27.0225 -35.1202 -21.2101C-50.7556 -15.5741 -43.2645 7.84057 -43.2645 7.84057C-43.2645 7.84057 -111.718 3.19153 -109.889 26.1488C-108.346 45.5182 -44.5855 53.2906 -44.5855 53.2906C-44.5855 53.2906 -52.1493 83.3607 -39.5325 94.2495C-15.0373 115.393 9.62639 86.1125 16.1106 77.4112C16.614 76.7355 17.598 77.1581 17.5668 78.0335C17.2464 87.3897 18.4572 116.157 45.0201 119.868C75.157 124.078 88.6309 88.0469 88.6309 88.0469C88.6309 88.0469 104.753 121.893 139.431 126.737C166.884 130.571 188.969 91.2283 188.969 91.2283C188.969 91.2283 202.804 111.253 228.298 106.388C249.403 102.361 250.364 92.6611 249.789 88.6483C249.702 88.0422 250.295 87.6056 250.755 87.94C256.317 91.9992 277.029 104.983 287.053 81.5981C293.097 67.5 279.987 60.4847 279.987 60.4847C279.987 60.4847 337.991 61.0978 329.067 29.6646C319.287 -4.78521 264.975 7.36917 264.975 7.36917C264.975 7.36917 279.067 -24.8304 238.92 -31.3743C210.506 -36.0071 193.429 -23.4858 186.468 -16.6609L186.466 -16.6656Z" stroke="#262626" stroke-width="1.75" stroke-linecap="round" stroke-linejoin="round"/>
</svg>
