<svg width="136" height="62" viewBox="0 0 136 62" fill="none" xmlns="http://www.w3.org/2000/svg">
<path d="M88.9556 21.0623C88.5746 21.3935 87.9805 21.1016 88.0196 20.6012C88.4687 14.8406 88.7053 -2.90783 72.9822 0.409688C64.889 2.11689 68.1349 14.9798 68.9062 17.6639C68.947 17.8061 68.7761 17.9147 68.6627 17.8184C66.6334 16.0989 60.7826 6.79638 52.589 9.62516C45.6827 12.0094 50.3007 20.0677 51.4442 21.9417C51.4857 22.0098 51.4003 22.0827 51.3383 22.0331C49.3164 20.4086 44.9251 11.7021 37.6774 16.1786C35.1791 17.7215 35.7732 22.902 36.9328 24.611C36.9898 24.6951 36.8851 24.7932 36.8034 24.7325C34.9165 23.3196 27.7747 18.3274 22.9721 19.8623C18.3162 21.3506 20.5469 27.5337 20.5469 27.5337C20.5469 27.5337 0.162994 26.306 0.707504 32.3683C1.16714 37.4832 20.1535 39.5356 20.1535 39.5356C20.1535 39.5356 17.9012 47.4762 21.6582 50.3516C28.9523 55.935 36.2966 48.2029 38.2275 45.9051C38.3774 45.7267 38.6704 45.8383 38.6611 46.0695C38.5657 48.5401 38.9262 56.1367 46.8361 57.1166C55.8102 58.2284 59.8224 48.7137 59.8224 48.7137C59.8224 48.7137 64.6232 57.6514 74.9496 58.9305C83.1246 59.943 89.7007 49.5538 89.7007 49.5538C89.7007 49.5538 93.8208 54.8416 101.412 53.5569C107.697 52.4936 107.983 49.9321 107.812 48.8725C107.786 48.7124 107.962 48.5972 108.099 48.6855C109.756 49.7574 115.923 53.1859 118.908 47.0108C119.557 45.6684 116.804 41.4354 116.804 41.4354C116.804 41.4354 134.076 41.5972 131.419 33.2967C128.507 24.1996 112.334 27.4092 112.334 27.4092C112.334 27.4092 116.53 18.9063 104.575 17.1782C96.114 15.9548 91.0289 19.2613 88.9562 21.0636L88.9556 21.0623Z" fill="#D3F2F5"/>
<path d="M91.9556 23.0623C91.5746 23.3935 90.9805 23.1016 91.0196 22.6012C91.4687 16.8406 91.7053 -0.907834 75.9822 2.40969C67.889 4.11689 71.1349 16.9798 71.9062 19.6639C71.947 19.8061 71.7761 19.9147 71.6627 19.8184C69.6334 18.0989 63.7826 8.79638 55.589 11.6252C48.6827 14.0094 53.3007 22.0677 54.4442 23.9417C54.4857 24.0098 54.4003 24.0827 54.3383 24.0331C52.3164 22.4086 47.9251 13.7021 40.6774 18.1787C38.1791 19.7215 38.7732 24.902 39.9328 26.611C39.9898 26.6951 39.8851 26.7932 39.8034 26.7325C37.9165 25.3196 30.7747 20.3274 25.9721 21.8623C21.3162 23.3506 23.5469 29.5337 23.5469 29.5337C23.5469 29.5337 3.163 28.306 3.7075 34.3683C4.16714 39.4832 23.1535 41.5356 23.1535 41.5356C23.1535 41.5356 20.9012 49.4762 24.6582 52.3516C31.9523 57.935 39.2966 50.2029 41.2275 47.9051C41.3774 47.7267 41.6704 47.8383 41.6611 48.0695C41.5657 50.5401 41.9262 58.1367 49.8361 59.1166C58.8102 60.2284 62.8224 50.7137 62.8224 50.7137C62.8224 50.7137 67.6232 59.6514 77.9496 60.9305C86.1246 61.943 92.7007 51.5538 92.7007 51.5538C92.7007 51.5538 96.8208 56.8416 104.412 55.5569C110.697 54.4936 110.983 51.9321 110.812 50.8725C110.786 50.7124 110.962 50.5972 111.099 50.6855C112.756 51.7574 118.923 55.1859 121.908 49.0108C122.557 47.6684 119.804 43.4354 119.804 43.4354C119.804 43.4354 137.076 43.5972 134.419 35.2967C131.507 26.1996 115.334 29.4092 115.334 29.4092C115.334 29.4092 119.53 20.9063 107.575 19.1782C99.114 17.9548 94.0289 21.2613 91.9562 23.0636L91.9556 23.0623Z" stroke="#262626" stroke-width="1.5" stroke-linecap="round" stroke-linejoin="round"/>
</svg>
