<svg width="820" height="142" viewBox="0 0 820 142" fill="none" xmlns="http://www.w3.org/2000/svg">
<path d="M137.53 31.4H173.44V39.17H137.53V31.4ZM171.9 12.71H181.21V58H171.9V12.71ZM129.34 12.71H138.65V58H129.34V12.71ZM218.907 58.91C212.887 58.91 207.731 57.9767 203.437 56.11C199.191 54.1967 195.924 51.49 193.637 47.99C191.397 44.49 190.277 40.29 190.277 35.39C190.277 30.4433 191.397 26.22 193.637 22.72C195.924 19.22 199.191 16.5367 203.437 14.67C207.731 12.7567 212.887 11.8 218.907 11.8C224.974 11.8 230.131 12.7567 234.377 14.67C238.624 16.5367 241.867 19.22 244.107 22.72C246.394 26.22 247.537 30.4433 247.537 35.39C247.537 40.29 246.394 44.49 244.107 47.99C241.867 51.49 238.624 54.1967 234.377 56.11C230.131 57.9767 224.974 58.91 218.907 58.91ZM218.907 50.86C222.641 50.86 225.907 50.3 228.707 49.18C231.554 48.06 233.771 46.3567 235.357 44.07C236.991 41.7833 237.807 38.89 237.807 35.39C237.807 31.89 236.991 28.9967 235.357 26.71C233.771 24.4233 231.554 22.72 228.707 21.6C225.907 20.4333 222.641 19.85 218.907 19.85C215.221 19.85 211.931 20.4333 209.037 21.6C206.144 22.72 203.881 24.4233 202.247 26.71C200.614 28.9967 199.797 31.89 199.797 35.39C199.797 38.89 200.614 41.7833 202.247 44.07C203.881 46.3567 206.144 48.06 209.037 49.18C211.931 50.3 215.221 50.86 218.907 50.86ZM269.011 58L249.901 12.71H260.191L276.361 52.82L273.351 52.89L288.751 12.71H299.461L314.861 52.89L311.851 52.82L328.021 12.71H338.101L319.201 58H307.791L292.671 18.73H295.611L280.421 58H269.011ZM414.612 41.69C414.192 45.33 412.909 48.4333 410.762 51C408.615 53.5667 405.699 55.5267 402.012 56.88C398.325 58.2333 393.939 58.91 388.852 58.91C384.605 58.91 380.709 58.42 377.162 57.44C373.662 56.46 370.629 54.99 368.062 53.03C365.542 51.07 363.582 48.6433 362.182 45.75C360.782 42.81 360.082 39.38 360.082 35.46C360.082 31.54 360.782 28.11 362.182 25.17C363.582 22.23 365.542 19.78 368.062 17.82C370.629 15.8133 373.662 14.32 377.162 13.34C380.709 12.3133 384.605 11.8 388.852 11.8C393.939 11.8 398.325 12.5 402.012 13.9C405.745 15.3 408.685 17.3067 410.832 19.92C412.979 22.4867 414.239 25.6133 414.612 29.3H405.372C404.765 27.34 403.739 25.66 402.292 24.26C400.892 22.8133 399.072 21.7167 396.832 20.97C394.592 20.2233 391.932 19.85 388.852 19.85C385.025 19.85 381.665 20.4567 378.772 21.67C375.879 22.8367 373.639 24.5867 372.052 26.92C370.465 29.2067 369.672 32.0533 369.672 35.46C369.672 38.82 370.465 41.6433 372.052 43.93C373.639 46.2167 375.879 47.9667 378.772 49.18C381.665 50.3467 385.025 50.93 388.852 50.93C391.932 50.93 394.569 50.5567 396.762 49.81C399.002 49.0633 400.822 47.99 402.222 46.59C403.669 45.19 404.719 43.5567 405.372 41.69H414.612ZM428.51 48.13V40.36H458.47V48.13H428.51ZM417.24 58L438.52 12.71H448.6L470.09 58H459.94L441.32 17.19H445.8L427.32 58H417.24ZM522.594 48.76L519.654 49.95V12.71H528.964V58H519.654L483.044 22.23L485.984 21.04V58H476.674V12.71H485.984L522.594 48.76ZM571.775 58L552.665 12.71H562.955L579.125 52.82L576.115 52.89L591.515 12.71H602.225L617.625 52.89L614.615 52.82L630.785 12.71H640.865L621.965 58H610.555L595.435 18.73H598.375L583.185 58H571.775ZM656.951 39.1V50.23H691.881V58H647.641V12.71H691.811V20.48H656.951V31.75H685.511V39.1H656.951ZM196.183 101.4H232.093V109.17H196.183V101.4ZM230.553 82.71H239.863V128H230.553V82.71ZM187.993 82.71H197.303V128H187.993V82.71ZM259.92 109.1V120.23H294.85V128H250.61V82.71H294.78V90.48H259.92V101.75H288.48V109.1H259.92ZM313.719 82.71V120.23H343.819V128H304.409V82.71H313.719ZM360.515 113.3V105.88H381.235C383.709 105.88 385.669 105.227 387.115 103.92C388.562 102.567 389.285 100.7 389.285 98.32C389.285 95.8467 388.562 93.9567 387.115 92.65C385.669 91.3433 383.709 90.69 381.235 90.69H361.635V128H352.325V82.71H380.395C382.915 82.71 385.272 83.0133 387.465 83.62C389.705 84.2267 391.642 85.16 393.275 86.42C394.955 87.68 396.262 89.29 397.195 91.25C398.129 93.21 398.595 95.5667 398.595 98.32C398.595 101.027 398.129 103.337 397.195 105.25C396.262 107.163 394.955 108.727 393.275 109.94C391.642 111.107 389.705 111.97 387.465 112.53C385.272 113.043 382.915 113.3 380.395 113.3H360.515ZM469.323 82.71L449.443 113.72V128H440.063V113.72L420.183 82.71H430.963L447.693 109.8H442.093L458.543 82.71H469.323ZM499.591 128.91C493.571 128.91 488.414 127.977 484.121 126.11C479.874 124.197 476.608 121.49 474.321 117.99C472.081 114.49 470.961 110.29 470.961 105.39C470.961 100.443 472.081 96.22 474.321 92.72C476.608 89.22 479.874 86.5367 484.121 84.67C488.414 82.7567 493.571 81.8 499.591 81.8C505.658 81.8 510.814 82.7567 515.061 84.67C519.308 86.5367 522.551 89.22 524.791 92.72C527.078 96.22 528.221 100.443 528.221 105.39C528.221 110.29 527.078 114.49 524.791 117.99C522.551 121.49 519.308 124.197 515.061 126.11C510.814 127.977 505.658 128.91 499.591 128.91ZM499.591 120.86C503.324 120.86 506.591 120.3 509.391 119.18C512.238 118.06 514.454 116.357 516.041 114.07C517.674 111.783 518.491 108.89 518.491 105.39C518.491 101.89 517.674 98.9967 516.041 96.71C514.454 94.4233 512.238 92.72 509.391 91.6C506.591 90.4333 503.324 89.85 499.591 89.85C495.904 89.85 492.614 90.4333 489.721 91.6C486.828 92.72 484.564 94.4233 482.931 96.71C481.298 98.9967 480.481 101.89 480.481 105.39C480.481 108.89 481.298 111.783 482.931 114.07C484.564 116.357 486.828 118.06 489.721 119.18C492.614 120.3 495.904 120.86 499.591 120.86ZM578.889 107.98V82.71H588.199V108.96C588.199 111.947 587.756 114.56 586.869 116.8C586.029 119.04 584.816 120.93 583.229 122.47C581.642 124.01 579.776 125.27 577.629 126.25C575.529 127.183 573.219 127.86 570.699 128.28C568.226 128.7 565.612 128.91 562.859 128.91C560.012 128.91 557.306 128.7 554.739 128.28C552.172 127.86 549.816 127.183 547.669 126.25C545.569 125.27 543.749 124.01 542.209 122.47C540.669 120.93 539.456 119.04 538.569 116.8C537.729 114.56 537.309 111.947 537.309 108.96V82.71H546.619V107.98C546.619 111.527 547.319 114.233 548.719 116.1C550.119 117.92 552.032 119.18 554.459 119.88C556.932 120.533 559.732 120.86 562.859 120.86C565.892 120.86 568.599 120.533 570.979 119.88C573.406 119.18 575.319 117.92 576.719 116.1C578.166 114.233 578.889 111.527 578.889 107.98ZM609.469 113.93V102.31H613.599C617.379 102.31 620.156 101.61 621.929 100.21C623.702 98.81 624.589 96.8267 624.589 94.26C624.589 91.6933 623.749 89.7333 622.069 88.38C620.389 87.0267 618.149 86.35 615.349 86.35C613.342 86.35 611.662 86.6767 610.309 87.33C609.002 87.9367 607.999 88.7767 607.299 89.85C606.646 90.8767 606.296 92.0433 606.249 93.35H597.219C597.172 91.9967 597.359 90.62 597.779 89.22C598.246 87.82 598.946 86.4667 599.879 85.16C600.812 83.8533 602.002 82.6867 603.449 81.66C604.896 80.6333 606.622 79.84 608.629 79.28C610.682 78.6733 612.992 78.37 615.559 78.37C618.686 78.37 621.392 78.7667 623.679 79.56C626.012 80.3533 627.926 81.45 629.419 82.85C630.959 84.25 632.102 85.9067 632.849 87.82C633.596 89.6867 633.969 91.74 633.969 93.98C633.969 97.06 633.269 99.6733 631.869 101.82C630.469 103.92 628.579 105.553 626.199 106.72C623.866 107.84 621.252 108.493 618.359 108.68V113.93H609.469ZM608.839 128V120.02H619.409V128H608.839Z" fill="#A5F3FC"/>
<path d="M139.53 33.4V31.9H138.03V33.4H139.53ZM175.44 33.4H176.94V31.9H175.44V33.4ZM175.44 41.17V42.67H176.94V41.17H175.44ZM139.53 41.17H138.03V42.67H139.53V41.17ZM173.9 14.71V13.21H172.4V14.71H173.9ZM183.21 14.71H184.71V13.21H183.21V14.71ZM183.21 60V61.5H184.71V60H183.21ZM173.9 60H172.4V61.5H173.9V60ZM131.34 14.71V13.21H129.84V14.71H131.34ZM140.65 14.71H142.15V13.21H140.65V14.71ZM140.65 60V61.5H142.15V60H140.65ZM131.34 60H129.84V61.5H131.34V60ZM139.53 34.9H175.44V31.9H139.53V34.9ZM173.94 33.4V41.17H176.94V33.4H173.94ZM175.44 39.67H139.53V42.67H175.44V39.67ZM141.03 41.17V33.4H138.03V41.17H141.03ZM173.9 16.21H183.21V13.21H173.9V16.21ZM181.71 14.71V60H184.71V14.71H181.71ZM183.21 58.5H173.9V61.5H183.21V58.5ZM175.4 60V14.71H172.4V60H175.4ZM131.34 16.21H140.65V13.21H131.34V16.21ZM139.15 14.71V60H142.15V14.71H139.15ZM140.65 58.5H131.34V61.5H140.65V58.5ZM132.84 60V14.71H129.84V60H132.84ZM205.437 58.11L204.821 59.4776L204.83 59.4817L204.839 59.4856L205.437 58.11ZM195.637 49.99L194.374 50.7986L194.382 50.8104L195.637 49.99ZM195.637 24.72L194.382 23.8995L194.374 23.9114L195.637 24.72ZM205.437 16.67L206.041 18.0432L206.048 18.0401L205.437 16.67ZM236.377 16.67L235.761 18.0377L235.774 18.0432L236.377 16.67ZM246.107 24.72L244.844 25.5286L244.852 25.5404L246.107 24.72ZM246.107 49.99L244.852 49.1695L244.844 49.1814L246.107 49.99ZM236.377 58.11L236.981 59.4833L236.994 59.4776L236.377 58.11ZM230.707 51.18L230.158 49.7841L230.15 49.7873L230.707 51.18ZM237.357 46.07L236.137 45.1981L236.131 45.2065L236.125 45.2149L237.357 46.07ZM237.357 28.71L236.125 29.5651L236.131 29.5735L236.137 29.5819L237.357 28.71ZM230.707 23.6L230.13 24.9846L230.144 24.9904L230.158 24.9958L230.707 23.6ZM211.037 23.6L211.579 24.9988L211.589 24.9951L211.598 24.9912L211.037 23.6ZM204.247 46.07L205.468 45.1981L204.247 46.07ZM211.037 51.18L210.496 52.5789L211.037 51.18ZM220.907 59.41C215.037 59.41 210.094 58.4992 206.035 56.7344L204.839 59.4856C209.367 61.4542 214.738 62.41 220.907 62.41V59.41ZM206.054 56.7424C202.037 54.9328 199.006 52.4031 196.893 49.1696L194.382 50.8104C196.842 54.5769 200.344 57.4605 204.821 59.4776L206.054 56.7424ZM196.901 49.1814C194.841 45.9633 193.777 42.0556 193.777 37.39H190.777C190.777 42.5244 191.954 47.0167 194.374 50.7986L196.901 49.1814ZM193.777 37.39C193.777 32.6746 194.843 28.7445 196.901 25.5286L194.374 23.9114C191.952 27.6955 190.777 32.212 190.777 37.39H193.777ZM196.893 25.5404C199.003 22.3103 202.03 19.8061 206.041 18.0432L204.834 15.2968C200.351 17.2673 196.845 20.1297 194.382 23.8996L196.893 25.5404ZM206.048 18.0401C210.103 16.2329 215.041 15.3 220.907 15.3V12.3C214.734 12.3 209.358 13.2805 204.827 15.2999L206.048 18.0401ZM220.907 15.3C226.823 15.3 231.757 16.2337 235.761 18.0376L236.994 15.3024C232.504 13.2796 227.125 12.3 220.907 12.3V15.3ZM235.774 18.0432C239.782 19.8052 242.782 22.3062 244.844 25.5286L247.371 23.9114C244.953 20.1338 241.466 17.2681 236.981 15.2968L235.774 18.0432ZM244.852 25.5404C246.952 28.7547 248.037 32.6804 248.037 37.39H251.037C251.037 32.2062 249.836 27.6853 247.363 23.8996L244.852 25.5404ZM248.037 37.39C248.037 42.0497 246.953 45.9531 244.852 49.1696L247.363 50.8104C249.835 47.0269 251.037 42.5303 251.037 37.39H248.037ZM244.844 49.1814C242.779 52.4073 239.776 54.9337 235.761 56.7424L236.994 59.4776C241.472 57.4596 244.955 54.5727 247.371 50.7986L244.844 49.1814ZM235.774 56.7368C231.766 58.4983 226.827 59.41 220.907 59.41V62.41C227.121 62.41 232.495 61.455 236.981 59.4832L235.774 56.7368ZM220.907 54.36C224.788 54.36 228.251 53.7783 231.264 52.5727L230.15 49.7873C227.564 50.8218 224.494 51.36 220.907 51.36V54.36ZM231.257 52.5758C234.351 51.3584 236.817 49.4797 238.59 46.9251L236.125 45.2149C234.724 47.2337 232.757 48.7616 230.158 49.7841L231.257 52.5758ZM238.578 46.9419C240.433 44.3442 241.307 41.1251 241.307 37.39H238.307C238.307 40.6549 237.548 43.2224 236.137 45.1981L238.578 46.9419ZM241.307 37.39C241.307 33.6549 240.433 30.4358 238.578 27.8381L236.137 29.5819C237.548 31.5575 238.307 34.1251 238.307 37.39H241.307ZM238.59 27.8549C236.817 25.3003 234.351 23.4216 231.257 22.2041L230.158 24.9958C232.757 26.0184 234.724 27.5463 236.125 29.5651L238.59 27.8549ZM231.284 22.2154C228.265 20.9572 224.794 20.35 220.907 20.35V23.35C224.487 23.35 227.55 23.9095 230.13 24.9846L231.284 22.2154ZM220.907 20.35C217.063 20.35 213.577 20.9585 210.476 22.2088L211.598 24.9912C214.284 23.9082 217.379 23.35 220.907 23.35V20.35ZM210.496 22.2011C207.359 23.4154 204.848 25.2888 203.027 27.8381L205.468 29.5819C206.914 27.5578 208.929 26.0246 211.579 24.9988L210.496 22.2011ZM203.027 27.8381C201.171 30.4358 200.297 33.6549 200.297 37.39H203.297C203.297 34.1251 204.057 31.5575 205.468 29.5819L203.027 27.8381ZM200.297 37.39C200.297 41.1251 201.171 44.3442 203.027 46.9419L205.468 45.1981C204.057 43.2225 203.297 40.6549 203.297 37.39H200.297ZM203.027 46.9419C204.848 49.4912 207.359 51.3646 210.496 52.5789L211.579 49.7811C208.929 48.7554 206.914 47.2221 205.468 45.1981L203.027 46.9419ZM210.496 52.5789C213.591 53.777 217.07 54.36 220.907 54.36V51.36C217.372 51.36 214.27 50.823 211.579 49.7811L210.496 52.5789ZM271.011 60L269.629 60.5831L270.016 61.5H271.011V60ZM251.901 14.71V13.21H249.64L250.519 15.2931L251.901 14.71ZM262.191 14.71L263.582 14.1491L263.204 13.21H262.191V14.71ZM278.361 54.82L278.396 56.3196L280.563 56.2692L279.752 54.2591L278.361 54.82ZM275.351 54.89L273.95 54.3532L273.15 56.4416L275.386 56.3896L275.351 54.89ZM290.751 14.71V13.21H289.719L289.35 14.1732L290.751 14.71ZM301.461 14.71L302.862 14.1732L302.492 13.21H301.461V14.71ZM316.861 54.89L316.826 56.3896L319.062 56.4416L318.262 54.3532L316.861 54.89ZM313.851 54.82L312.46 54.2591L311.649 56.2692L313.816 56.3196L313.851 54.82ZM330.021 14.71V13.21H329.008L328.63 14.1491L330.021 14.71ZM340.101 14.71L341.485 15.2877L342.352 13.21H340.101V14.71ZM321.201 60V61.5H322.2L322.585 60.5777L321.201 60ZM309.791 60L308.391 60.539L308.761 61.5H309.791V60ZM294.671 20.73V19.23H292.486L293.271 21.269L294.671 20.73ZM297.611 20.73L299.01 21.2711L299.799 19.23H297.611V20.73ZM282.421 60V61.5H283.449L283.82 60.5411L282.421 60ZM272.393 59.4169L253.283 14.1269L250.519 15.2931L269.629 60.5831L272.393 59.4169ZM251.901 16.21H262.191V13.21H251.901V16.21ZM260.8 15.2709L276.97 55.3809L279.752 54.2591L263.582 14.1491L260.8 15.2709ZM278.326 53.3204L275.316 53.3904L275.386 56.3896L278.396 56.3196L278.326 53.3204ZM276.752 55.4268L292.152 15.2468L289.35 14.1732L273.95 54.3532L276.752 55.4268ZM290.751 16.21H301.461V13.21H290.751V16.21ZM300.06 15.2468L315.46 55.4268L318.262 54.3532L302.862 14.1732L300.06 15.2468ZM316.896 53.3904L313.886 53.3204L313.816 56.3196L316.826 56.3896L316.896 53.3904ZM315.242 55.3809L331.412 15.2709L328.63 14.1491L312.46 54.2591L315.242 55.3809ZM330.021 16.21H340.101V13.21H330.021V16.21ZM338.717 14.1323L319.817 59.4223L322.585 60.5777L341.485 15.2877L338.717 14.1323ZM321.201 58.5H309.791V61.5H321.201V58.5ZM311.191 59.461L296.071 20.191L293.271 21.269L308.391 60.539L311.191 59.461ZM294.671 22.23H297.611V19.23H294.671V22.23ZM296.212 20.1889L281.022 59.4589L283.82 60.5411L299.01 21.2711L296.212 20.1889ZM282.421 58.5H271.011V61.5H282.421V58.5ZM416.612 43.69L418.102 43.8619L418.295 42.19H416.612V43.69ZM379.162 59.44L378.758 60.8845L378.763 60.8858L379.162 59.44ZM370.062 55.03L369.141 56.2141L369.152 56.2222L370.062 55.03ZM364.182 47.75L362.828 48.3949L362.832 48.4033L364.182 47.75ZM370.062 19.82L370.983 21.004L370.986 21.0017L370.062 19.82ZM379.162 15.34L379.567 16.7845L379.579 16.7808L379.162 15.34ZM404.012 15.9L403.48 17.3023L403.485 17.3045L404.012 15.9ZM412.832 21.92L411.673 22.8721L411.681 22.8823L412.832 21.92ZM416.612 31.3V32.8H418.272L418.104 31.1489L416.612 31.3ZM407.372 31.3L405.939 31.7435L406.266 32.8H407.372V31.3ZM404.292 26.26L403.214 27.3031L403.231 27.3208L403.249 27.3379L404.292 26.26ZM398.832 22.97L399.306 21.547L398.832 22.97ZM380.772 23.67L381.333 25.0612L381.343 25.0573L381.352 25.0533L380.772 23.67ZM374.052 28.92L375.285 29.7752L375.292 29.7635L374.052 28.92ZM374.052 45.93L372.82 46.7851L374.052 45.93ZM380.772 51.18L380.192 52.5633L380.202 52.5673L380.211 52.5712L380.772 51.18ZM398.762 51.81L398.288 50.3869L398.279 50.39L398.762 51.81ZM404.222 48.59L403.179 47.5121L403.17 47.5206L403.161 47.5293L404.222 48.59ZM407.372 43.69V42.19H406.308L405.956 43.1945L407.372 43.69ZM415.122 43.5181C414.732 46.8959 413.552 49.7169 411.611 52.0377L413.913 53.9623C416.265 51.1497 417.652 47.7641 418.102 43.8619L415.122 43.5181ZM411.611 52.0377C409.661 54.3702 406.978 56.1932 403.495 57.4719L404.529 60.2881C408.419 58.8601 411.57 56.7631 413.913 53.9623L411.611 52.0377ZM403.495 57.4719C400.015 58.7495 395.812 59.41 390.852 59.41V62.41C396.066 62.41 400.636 61.7172 404.529 60.2881L403.495 57.4719ZM390.852 59.41C386.72 59.41 382.96 58.9332 379.562 57.9942L378.763 60.8858C382.458 61.9068 386.491 62.41 390.852 62.41V59.41ZM379.567 57.9956C376.227 57.0604 373.37 55.6689 370.972 53.8378L369.152 56.2222C371.887 58.3111 375.097 59.8596 378.758 60.8844L379.567 57.9956ZM370.983 53.846C368.646 52.0285 366.833 49.7839 365.532 47.0967L362.832 48.4033C364.332 51.5027 366.438 54.1115 369.141 56.214L370.983 53.846ZM365.536 47.1051C364.25 44.4034 363.582 41.2017 363.582 37.46H360.582C360.582 41.5583 361.314 45.2166 362.828 48.3949L365.536 47.1051ZM363.582 37.46C363.582 33.7183 364.25 30.5166 365.536 27.8149L362.828 26.5251C361.314 29.7034 360.582 33.3617 360.582 37.46H363.582ZM365.536 27.8149C366.838 25.0815 368.651 22.8176 370.983 21.004L369.141 18.636C366.433 20.7424 364.326 23.3785 362.828 26.5251L365.536 27.8149ZM370.986 21.0017C373.381 19.1289 376.233 17.7177 379.567 16.7844L378.758 13.8956C375.091 14.9223 371.876 16.4978 369.138 18.6383L370.986 21.0017ZM379.579 16.7808C382.972 15.7988 386.726 15.3 390.852 15.3V12.3C386.485 12.3 382.446 12.8279 378.745 13.8992L379.579 16.7808ZM390.852 15.3C395.807 15.3 400.004 15.9826 403.48 17.3023L404.545 14.4977C400.646 13.0174 396.07 12.3 390.852 12.3V15.3ZM403.485 17.3045C407.016 18.6286 409.721 20.4963 411.673 22.8721L413.991 20.9679C411.649 18.117 408.475 15.9714 404.539 14.4955L403.485 17.3045ZM411.681 22.8823C413.615 25.1944 414.773 28.0296 415.12 31.4511L418.104 31.1489C417.704 27.1971 416.342 23.7789 413.983 20.9577L411.681 22.8823ZM416.612 29.8H407.372V32.8H416.612V29.8ZM408.805 30.8565C408.125 28.6604 406.967 26.7609 405.335 25.1821L403.249 27.3379C404.511 28.5591 405.406 30.0196 405.939 31.7435L408.805 30.8565ZM405.37 25.2169C403.775 23.5692 401.736 22.3567 399.306 21.547L398.358 24.393C400.408 25.0766 402.009 26.0574 403.214 27.3031L405.37 25.2169ZM399.306 21.547C396.875 20.7365 394.047 20.35 390.852 20.35V23.35C393.817 23.35 396.309 23.7102 398.358 24.393L399.306 21.547ZM390.852 20.35C386.869 20.35 383.305 20.9814 380.192 22.2867L381.352 25.0533C384.026 23.9319 387.182 23.35 390.852 23.35V20.35ZM380.211 22.2788C377.072 23.5445 374.583 25.4716 372.812 28.0765L375.292 29.7635C376.694 27.7017 378.685 26.1289 381.333 25.0612L380.211 22.2788ZM372.82 28.0649C371.023 30.6542 370.172 33.817 370.172 37.46H373.172C373.172 34.2896 373.908 31.7592 375.284 29.7751L372.82 28.0649ZM370.172 37.46C370.172 41.0612 371.025 44.1991 372.82 46.7851L375.284 45.0749C373.905 43.0875 373.172 40.5788 373.172 37.46H370.172ZM372.82 46.7851C374.589 49.3353 377.07 51.254 380.192 52.5633L381.352 49.7967C378.688 48.6793 376.688 47.0981 375.284 45.0749L372.82 46.7851ZM380.211 52.5712C383.318 53.824 386.875 54.43 390.852 54.43V51.43C387.175 51.43 384.013 50.8693 381.333 49.7888L380.211 52.5712ZM390.852 54.43C394.046 54.43 396.855 54.0438 399.245 53.23L398.279 50.39C396.283 51.0695 393.818 51.43 390.852 51.43V54.43ZM399.236 53.233C401.655 52.4268 403.689 51.2441 405.283 49.6507L403.161 47.5293C401.955 48.7359 400.349 49.6999 398.288 50.387L399.236 53.233ZM405.265 49.6679C406.877 48.1085 408.056 46.2768 408.788 44.1855L405.956 43.1945C405.382 44.8366 404.461 46.2715 403.179 47.5121L405.265 49.6679ZM407.372 45.19H416.612V42.19H407.372V45.19ZM430.51 50.13H429.01V51.63H430.51V50.13ZM430.51 42.36V40.86H429.01V42.36H430.51ZM460.47 42.36H461.97V40.86H460.47V42.36ZM460.47 50.13V51.63H461.97V50.13H460.47ZM419.24 60L417.882 59.3621L416.878 61.5H419.24V60ZM440.52 14.71V13.21H439.567L439.162 14.0721L440.52 14.71ZM450.6 14.71L451.955 14.067L451.548 13.21H450.6V14.71ZM472.09 60V61.5H474.462L473.445 59.357L472.09 60ZM461.94 60L460.575 60.6226L460.975 61.5H461.94V60ZM443.32 19.19V17.69H440.987L441.955 19.8126L443.32 19.19ZM447.8 19.19L449.166 19.8088L450.126 17.69H447.8V19.19ZM429.32 60V61.5H430.287L430.686 60.6188L429.32 60ZM432.01 50.13V42.36H429.01V50.13H432.01ZM430.51 43.86H460.47V40.86H430.51V43.86ZM458.97 42.36V50.13H461.97V42.36H458.97ZM460.47 48.63H430.51V51.63H460.47V48.63ZM420.597 60.6379L441.877 15.3479L439.162 14.0721L417.882 59.3621L420.597 60.6379ZM440.52 16.21H450.6V13.21H440.52V16.21ZM449.245 15.353L470.735 60.643L473.445 59.357L451.955 14.067L449.245 15.353ZM472.09 58.5H461.94V61.5H472.09V58.5ZM463.304 59.3774L444.684 18.5674L441.955 19.8126L460.575 60.6226L463.304 59.3774ZM443.32 20.69H447.8V17.69H443.32V20.69ZM446.433 18.5712L427.953 59.3812L430.686 60.6188L449.166 19.8088L446.433 18.5712ZM429.32 58.5H419.24V61.5H429.32V58.5ZM524.594 50.76L525.157 52.1504L527.274 51.2936L525.647 49.6912L524.594 50.76ZM521.654 51.95H520.154V54.1754L522.217 53.3404L521.654 51.95ZM521.654 14.71V13.21H520.154V14.71H521.654ZM530.964 14.71H532.464V13.21H530.964V14.71ZM530.964 60V61.5H532.464V60H530.964ZM521.654 60L520.606 61.0729L521.043 61.5H521.654V60ZM485.044 24.23L484.481 22.8396L482.355 23.7001L483.996 25.3029L485.044 24.23ZM487.984 23.04H489.484V20.8146L487.421 21.6496L487.984 23.04ZM487.984 60V61.5H489.484V60H487.984ZM478.674 60H477.174V61.5H478.674V60ZM478.674 14.71V13.21H477.174V14.71H478.674ZM487.984 14.71L489.037 13.6412L488.599 13.21H487.984V14.71ZM524.031 49.3696L521.091 50.5596L522.217 53.3404L525.157 52.1504L524.031 49.3696ZM523.154 51.95V14.71H520.154V51.95H523.154ZM521.654 16.21H530.964V13.21H521.654V16.21ZM529.464 14.71V60H532.464V14.71H529.464ZM530.964 58.5H521.654V61.5H530.964V58.5ZM522.702 58.9271L486.092 23.1571L483.996 25.3029L520.606 61.0729L522.702 58.9271ZM485.607 25.6204L488.547 24.4304L487.421 21.6496L484.481 22.8396L485.607 25.6204ZM486.484 23.04V60H489.484V23.04H486.484ZM487.984 58.5H478.674V61.5H487.984V58.5ZM480.174 60V14.71H477.174V60H480.174ZM478.674 16.21H487.984V13.21H478.674V16.21ZM486.932 15.7788L523.542 51.8288L525.647 49.6912L489.037 13.6412L486.932 15.7788ZM573.775 60L572.393 60.5831L572.779 61.5H573.775V60ZM554.665 14.71V13.21H552.404L553.283 15.2931L554.665 14.71ZM564.955 14.71L566.346 14.1491L565.967 13.21H564.955V14.71ZM581.125 54.82L581.16 56.3196L583.326 56.2692L582.516 54.2591L581.125 54.82ZM578.115 54.89L576.714 54.3532L575.914 56.4416L578.15 56.3896L578.115 54.89ZM593.515 14.71V13.21H592.483L592.114 14.1732L593.515 14.71ZM604.225 14.71L605.625 14.1732L605.256 13.21H604.225V14.71ZM619.625 54.89L619.59 56.3896L621.826 56.4416L621.025 54.3532L619.625 54.89ZM616.615 54.82L615.223 54.2591L614.413 56.2692L616.58 56.3196L616.615 54.82ZM632.785 14.71V13.21H631.772L631.393 14.1491L632.785 14.71ZM642.865 14.71L644.249 15.2877L645.116 13.21H642.865V14.71ZM623.965 60V61.5H624.964L625.349 60.5777L623.965 60ZM612.555 60L611.155 60.539L611.525 61.5H612.555V60ZM597.435 20.73V19.23H595.25L596.035 21.269L597.435 20.73ZM600.375 20.73L601.774 21.2711L602.563 19.23H600.375V20.73ZM585.185 60V61.5H586.213L586.584 60.5411L585.185 60ZM575.157 59.4169L556.047 14.1269L553.283 15.2931L572.393 60.5831L575.157 59.4169ZM554.665 16.21H564.955V13.21H554.665V16.21ZM563.563 15.2709L579.733 55.3809L582.516 54.2591L566.346 14.1491L563.563 15.2709ZM581.09 53.3204L578.08 53.3904L578.15 56.3896L581.16 56.3196L581.09 53.3204ZM579.515 55.4268L594.915 15.2468L592.114 14.1732L576.714 54.3532L579.515 55.4268ZM593.515 16.21H604.225V13.21H593.515V16.21ZM602.824 15.2468L618.224 55.4268L621.025 54.3532L605.625 14.1732L602.824 15.2468ZM619.66 53.3904L616.65 53.3204L616.58 56.3196L619.59 56.3896L619.66 53.3904ZM618.006 55.3809L634.176 15.2709L631.393 14.1491L615.223 54.2591L618.006 55.3809ZM632.785 16.21H642.865V13.21H632.785V16.21ZM641.48 14.1323L622.58 59.4223L625.349 60.5777L644.249 15.2877L641.48 14.1323ZM623.965 58.5H612.555V61.5H623.965V58.5ZM613.954 59.461L598.834 20.191L596.035 21.269L611.155 60.539L613.954 59.461ZM597.435 22.23H600.375V19.23H597.435V22.23ZM598.976 20.1889L583.786 59.4589L586.584 60.5411L601.774 21.2711L598.976 20.1889ZM585.185 58.5H573.775V61.5H585.185V58.5ZM658.951 41.1V39.6H657.451V41.1H658.951ZM658.951 52.23H657.451V53.73H658.951V52.23ZM693.881 52.23H695.381V50.73H693.881V52.23ZM693.881 60V61.5H695.381V60H693.881ZM649.641 60H648.141V61.5H649.641V60ZM649.641 14.71V13.21H648.141V14.71H649.641ZM693.811 14.71H695.311V13.21H693.811V14.71ZM693.811 22.48V23.98H695.311V22.48H693.811ZM658.951 22.48V20.98H657.451V22.48H658.951ZM658.951 33.75H657.451V35.25H658.951V33.75ZM687.511 33.75H689.011V32.25H687.511V33.75ZM687.511 41.1V42.6H689.011V41.1H687.511ZM657.451 41.1V52.23H660.451V41.1H657.451ZM658.951 53.73H693.881V50.73H658.951V53.73ZM692.381 52.23V60H695.381V52.23H692.381ZM693.881 58.5H649.641V61.5H693.881V58.5ZM651.141 60V14.71H648.141V60H651.141ZM649.641 16.21H693.811V13.21H649.641V16.21ZM692.311 14.71V22.48H695.311V14.71H692.311ZM693.811 20.98H658.951V23.98H693.811V20.98ZM657.451 22.48V33.75H660.451V22.48H657.451ZM658.951 35.25H687.511V32.25H658.951V35.25ZM686.011 33.75V41.1H689.011V33.75H686.011ZM687.511 39.6H658.951V42.6H687.511V39.6ZM198.183 103.4V101.9H196.683V103.4H198.183ZM234.093 103.4H235.593V101.9H234.093V103.4ZM234.093 111.17V112.67H235.593V111.17H234.093ZM198.183 111.17H196.683V112.67H198.183V111.17ZM232.553 84.71V83.21H231.053V84.71H232.553ZM241.863 84.71H243.363V83.21H241.863V84.71ZM241.863 130V131.5H243.363V130H241.863ZM232.553 130H231.053V131.5H232.553V130ZM189.993 84.71V83.21H188.493V84.71H189.993ZM199.303 84.71H200.803V83.21H199.303V84.71ZM199.303 130V131.5H200.803V130H199.303ZM189.993 130H188.493V131.5H189.993V130ZM198.183 104.9H234.093V101.9H198.183V104.9ZM232.593 103.4V111.17H235.593V103.4H232.593ZM234.093 109.67H198.183V112.67H234.093V109.67ZM199.683 111.17V103.4H196.683V111.17H199.683ZM232.553 86.21H241.863V83.21H232.553V86.21ZM240.363 84.71V130H243.363V84.71H240.363ZM241.863 128.5H232.553V131.5H241.863V128.5ZM234.053 130V84.71H231.053V130H234.053ZM189.993 86.21H199.303V83.21H189.993V86.21ZM197.803 84.71V130H200.803V84.71H197.803ZM199.303 128.5H189.993V131.5H199.303V128.5ZM191.493 130V84.71H188.493V130H191.493ZM261.92 111.1V109.6H260.42V111.1H261.92ZM261.92 122.23H260.42V123.73H261.92V122.23ZM296.85 122.23H298.35V120.73H296.85V122.23ZM296.85 130V131.5H298.35V130H296.85ZM252.61 130H251.11V131.5H252.61V130ZM252.61 84.71V83.21H251.11V84.71H252.61ZM296.78 84.71H298.28V83.21H296.78V84.71ZM296.78 92.48V93.98H298.28V92.48H296.78ZM261.92 92.48V90.98H260.42V92.48H261.92ZM261.92 103.75H260.42V105.25H261.92V103.75ZM290.48 103.75H291.98V102.25H290.48V103.75ZM290.48 111.1V112.6H291.98V111.1H290.48ZM260.42 111.1V122.23H263.42V111.1H260.42ZM261.92 123.73H296.85V120.73H261.92V123.73ZM295.35 122.23V130H298.35V122.23H295.35ZM296.85 128.5H252.61V131.5H296.85V128.5ZM254.11 130V84.71H251.11V130H254.11ZM252.61 86.21H296.78V83.21H252.61V86.21ZM295.28 84.71V92.48H298.28V84.71H295.28ZM296.78 90.98H261.92V93.98H296.78V90.98ZM260.42 92.48V103.75H263.42V92.48H260.42ZM261.92 105.25H290.48V102.25H261.92V105.25ZM288.98 103.75V111.1H291.98V103.75H288.98ZM290.48 109.6H261.92V112.6H290.48V109.6ZM315.719 84.71H317.219V83.21H315.719V84.71ZM315.719 122.23H314.219V123.73H315.719V122.23ZM345.819 122.23H347.319V120.73H345.819V122.23ZM345.819 130V131.5H347.319V130H345.819ZM306.409 130H304.909V131.5H306.409V130ZM306.409 84.71V83.21H304.909V84.71H306.409ZM314.219 84.71V122.23H317.219V84.71H314.219ZM315.719 123.73H345.819V120.73H315.719V123.73ZM344.319 122.23V130H347.319V122.23H344.319ZM345.819 128.5H306.409V131.5H345.819V128.5ZM307.909 130V84.71H304.909V130H307.909ZM306.409 86.21H315.719V83.21H306.409V86.21ZM362.515 115.3H361.015V116.8H362.515V115.3ZM362.515 107.88V106.38H361.015V107.88H362.515ZM389.115 105.92L390.121 107.033L390.13 107.024L390.14 107.015L389.115 105.92ZM389.115 94.65L388.11 95.7632L389.115 94.65ZM363.635 92.69V91.19H362.135V92.69H363.635ZM363.635 130V131.5H365.135V130H363.635ZM354.325 130H352.825V131.5H354.325V130ZM354.325 84.71V83.21H352.825V84.71H354.325ZM389.465 85.62L389.065 87.0657L389.073 87.0678L389.465 85.62ZM395.275 88.42L394.359 89.6077L394.367 89.6139L394.375 89.62L395.275 88.42ZM399.195 93.25L397.841 93.8949L399.195 93.25ZM399.195 107.25L397.847 106.592L399.195 107.25ZM395.275 111.94L396.147 113.161L396.153 113.156L395.275 111.94ZM389.465 114.53L389.807 115.991L389.818 115.988L389.829 115.985L389.465 114.53ZM364.015 115.3V107.88H361.015V115.3H364.015ZM362.515 109.38H383.235V106.38H362.515V109.38ZM383.235 109.38C385.977 109.38 388.33 108.65 390.121 107.033L388.11 104.807C387.007 105.803 385.44 106.38 383.235 106.38V109.38ZM390.14 107.015C391.95 105.322 392.785 103.025 392.785 100.32H389.785C389.785 102.375 389.174 103.811 388.09 104.825L390.14 107.015ZM392.785 100.32C392.785 97.5442 391.962 95.2004 390.121 93.5368L388.11 95.7632C389.161 96.7129 389.785 98.1491 389.785 100.32H392.785ZM390.121 93.5368C388.33 91.9196 385.977 91.19 383.235 91.19V94.19C385.44 94.19 387.007 94.767 388.11 95.7632L390.121 93.5368ZM383.235 91.19H363.635V94.19H383.235V91.19ZM362.135 92.69V130H365.135V92.69H362.135ZM363.635 128.5H354.325V131.5H363.635V128.5ZM355.825 130V84.71H352.825V130H355.825ZM354.325 86.21H382.395V83.21H354.325V86.21ZM382.395 86.21C384.794 86.21 387.015 86.4987 389.065 87.0657L389.865 84.1743C387.528 83.528 385.036 83.21 382.395 83.21V86.21ZM389.073 87.0678C391.147 87.6294 392.9 88.4821 394.359 89.6077L396.191 87.2323C394.384 85.8379 392.264 84.8239 389.857 84.1722L389.073 87.0678ZM394.375 89.62C395.854 90.7294 397.008 92.1463 397.841 93.8949L400.549 92.6051C399.516 90.4337 398.056 88.6306 396.175 87.22L394.375 89.62ZM397.841 93.8949C398.656 95.6069 399.095 97.7318 399.095 100.32H402.095C402.095 97.4016 401.601 94.8131 400.549 92.6051L397.841 93.8949ZM399.095 100.32C399.095 102.859 398.657 104.932 397.847 106.592L400.543 107.908C401.6 105.742 402.095 103.195 402.095 100.32H399.095ZM397.847 106.592C397.019 108.29 395.871 109.659 394.397 110.724L396.153 113.156C398.039 111.794 399.505 110.037 400.543 107.908L397.847 106.592ZM394.403 110.719C392.944 111.762 391.186 112.554 389.101 113.075L389.829 115.985C392.224 115.386 394.339 114.452 396.147 113.161L394.403 110.719ZM389.123 113.069C387.054 113.554 384.814 113.8 382.395 113.8V116.8C385.017 116.8 387.489 116.533 389.807 115.991L389.123 113.069ZM382.395 113.8H362.515V116.8H382.395V113.8ZM471.323 84.71L472.585 85.5195L474.066 83.21H471.323V84.71ZM451.443 115.72L450.18 114.91L449.943 115.28V115.72H451.443ZM451.443 130V131.5H452.943V130H451.443ZM442.063 130H440.563V131.5H442.063V130ZM442.063 115.72H443.563V115.28L443.325 114.91L442.063 115.72ZM422.183 84.71V83.21H419.439L420.92 85.5195L422.183 84.71ZM432.963 84.71L434.239 83.9218L433.799 83.21H432.963V84.71ZM449.693 111.8V113.3H452.382L450.969 111.012L449.693 111.8ZM444.093 111.8L442.81 111.021L441.427 113.3H444.093V111.8ZM460.543 84.71V83.21H459.698L459.26 83.9314L460.543 84.71ZM470.06 83.9005L450.18 114.91L452.705 116.53L472.585 85.5195L470.06 83.9005ZM449.943 115.72V130H452.943V115.72H449.943ZM451.443 128.5H442.063V131.5H451.443V128.5ZM443.563 130V115.72H440.563V130H443.563ZM443.325 114.91L423.445 83.9005L420.92 85.5195L440.8 116.53L443.325 114.91ZM422.183 86.21H432.963V83.21H422.183V86.21ZM431.686 85.4982L448.416 112.588L450.969 111.012L434.239 83.9218L431.686 85.4982ZM449.693 110.3H444.093V113.3H449.693V110.3ZM445.375 112.579L461.825 85.4886L459.26 83.9314L442.81 111.021L445.375 112.579ZM460.543 86.21H471.323V83.21H460.543V86.21ZM486.121 128.11L485.505 129.478L485.514 129.482L485.523 129.486L486.121 128.11ZM476.321 119.99L475.058 120.799L475.065 120.81L476.321 119.99ZM476.321 94.72L475.065 93.8995L475.058 93.9114L476.321 94.72ZM486.121 86.67L486.725 88.0432L486.732 88.0401L486.121 86.67ZM517.061 86.67L516.445 88.0377L516.457 88.0432L517.061 86.67ZM526.791 94.72L525.528 95.5286L525.535 95.5404L526.791 94.72ZM526.791 119.99L525.535 119.17L525.528 119.181L526.791 119.99ZM517.061 128.11L517.665 129.483L517.677 129.478L517.061 128.11ZM511.391 121.18L510.842 119.784L510.834 119.787L511.391 121.18ZM518.041 116.07L516.82 115.198L516.814 115.206L516.809 115.215L518.041 116.07ZM518.041 98.71L516.809 99.5651L516.814 99.5735L516.82 99.5819L518.041 98.71ZM511.391 93.6L510.814 94.9846L510.828 94.9904L510.842 94.9958L511.391 93.6ZM491.721 93.6L492.262 94.9988L492.272 94.9951L492.282 94.9912L491.721 93.6ZM484.931 116.07L486.152 115.198L484.931 116.07ZM491.721 121.18L491.179 122.579L491.721 121.18ZM501.591 129.41C495.72 129.41 490.778 128.499 486.719 126.734L485.523 129.486C490.051 131.454 495.422 132.41 501.591 132.41V129.41ZM486.737 126.742C482.721 124.933 479.689 122.403 477.577 119.17L475.065 120.81C477.526 124.577 481.028 127.461 485.505 129.478L486.737 126.742ZM477.584 119.181C475.525 115.963 474.461 112.056 474.461 107.39H471.461C471.461 112.524 472.637 117.017 475.058 120.799L477.584 119.181ZM474.461 107.39C474.461 102.675 475.526 98.7445 477.584 95.5286L475.058 93.9114C472.636 97.6955 471.461 102.212 471.461 107.39H474.461ZM477.577 95.5404C479.687 92.3103 482.714 89.8061 486.725 88.0432L485.517 85.2968C481.035 87.2673 477.528 90.1297 475.065 93.8996L477.577 95.5404ZM486.732 88.0401C490.787 86.2329 495.725 85.3 501.591 85.3V82.3C495.417 82.3 490.042 83.2805 485.51 85.2999L486.732 88.0401ZM501.591 85.3C507.507 85.3 512.441 86.2337 516.445 88.0376L517.677 85.3024C513.188 83.2796 507.809 82.3 501.591 82.3V85.3ZM516.457 88.0432C520.466 89.8052 523.465 92.3062 525.528 95.5286L528.054 93.9114C525.637 90.1338 522.149 87.2681 517.665 85.2968L516.457 88.0432ZM525.535 95.5404C527.635 98.7547 528.721 102.68 528.721 107.39H531.721C531.721 102.206 530.52 97.6853 528.047 93.8996L525.535 95.5404ZM528.721 107.39C528.721 112.05 527.637 115.953 525.535 119.17L528.047 120.81C530.519 117.027 531.721 112.53 531.721 107.39H528.721ZM525.528 119.181C523.463 122.407 520.459 124.934 516.445 126.742L517.677 129.478C522.156 127.46 525.639 124.573 528.054 120.799L525.528 119.181ZM516.457 126.737C512.45 128.498 507.511 129.41 501.591 129.41V132.41C507.804 132.41 513.179 131.455 517.665 129.483L516.457 126.737ZM501.591 124.36C505.471 124.36 508.934 123.778 511.948 122.573L510.834 119.787C508.248 120.822 505.177 121.36 501.591 121.36V124.36ZM511.94 122.576C515.035 121.358 517.501 119.48 519.273 116.925L516.809 115.215C515.408 117.234 513.441 118.762 510.842 119.784L511.94 122.576ZM519.262 116.942C521.117 114.344 521.991 111.125 521.991 107.39H518.991C518.991 110.655 518.232 113.222 516.82 115.198L519.262 116.942ZM521.991 107.39C521.991 103.655 521.117 100.436 519.262 97.8381L516.82 99.5819C518.232 101.558 518.991 104.125 518.991 107.39H521.991ZM519.273 97.8549C517.501 95.3003 515.035 93.4216 511.94 92.2041L510.842 94.9958C513.441 96.0184 515.408 97.5463 516.809 99.5651L519.273 97.8549ZM511.968 92.2154C508.948 90.9572 505.478 90.35 501.591 90.35V93.35C505.171 93.35 508.234 93.9095 510.814 94.9846L511.968 92.2154ZM501.591 90.35C497.746 90.35 494.261 90.9585 491.16 92.2088L492.282 94.9912C494.968 93.9082 498.062 93.35 501.591 93.35V90.35ZM491.179 92.2011C488.043 93.4154 485.531 95.2888 483.71 97.8381L486.152 99.5819C487.597 97.5578 489.613 96.0246 492.262 94.9988L491.179 92.2011ZM483.71 97.8381C481.855 100.436 480.981 103.655 480.981 107.39H483.981C483.981 104.125 484.74 101.558 486.152 99.5819L483.71 97.8381ZM480.981 107.39C480.981 111.125 481.855 114.344 483.71 116.942L486.152 115.198C484.74 113.222 483.981 110.655 483.981 107.39H480.981ZM483.71 116.942C485.531 119.491 488.043 121.365 491.179 122.579L492.262 119.781C489.613 118.755 487.597 117.222 486.152 115.198L483.71 116.942ZM491.179 122.579C494.275 123.777 497.753 124.36 501.591 124.36V121.36C498.055 121.36 494.954 120.823 492.262 119.781L491.179 122.579ZM580.889 84.71V83.21H579.389V84.71H580.889ZM590.199 84.71H591.699V83.21H590.199V84.71ZM588.869 118.8L587.474 118.248L587.469 118.261L587.464 118.273L588.869 118.8ZM579.629 128.25L580.238 129.621L580.245 129.618L580.252 129.615L579.629 128.25ZM572.699 130.28L572.452 128.8L572.448 128.801L572.699 130.28ZM556.739 130.28L556.497 131.76L556.739 130.28ZM549.669 128.25L549.035 129.609L549.053 129.618L549.071 129.626L549.669 128.25ZM544.209 124.47L543.148 125.531L544.209 124.47ZM540.569 118.8L539.164 119.327L539.169 119.339L539.174 119.352L540.569 118.8ZM539.309 84.71V83.21H537.809V84.71H539.309ZM548.619 84.71H550.119V83.21H548.619V84.71ZM550.719 118.1L549.519 119L549.524 119.007L549.53 119.015L550.719 118.1ZM556.459 121.88L556.043 123.321L556.06 123.326L556.076 123.33L556.459 121.88ZM572.979 121.88L573.376 123.326L573.385 123.324L573.395 123.321L572.979 121.88ZM578.719 118.1L577.533 117.181L577.53 117.185L578.719 118.1ZM582.389 109.98V84.71H579.389V109.98H582.389ZM580.889 86.21H590.199V83.21H580.889V86.21ZM588.699 84.71V110.96H591.699V84.71H588.699ZM588.699 110.96C588.699 113.801 588.277 116.22 587.474 118.248L590.264 119.352C591.234 116.9 591.699 114.092 591.699 110.96H588.699ZM587.464 118.273C586.696 120.323 585.599 122.02 584.184 123.394L586.274 125.546C588.032 123.84 589.362 121.757 590.273 119.327L587.464 118.273ZM584.184 123.394C582.729 124.806 581.007 125.972 579.006 126.885L580.252 129.615C582.544 128.568 584.556 127.214 586.274 125.546L584.184 123.394ZM579.02 126.879C577.048 127.756 574.861 128.399 572.452 128.8L572.946 131.76C575.577 131.321 578.01 130.611 580.238 129.621L579.02 126.879ZM572.448 128.801C570.065 129.206 567.536 129.41 564.859 129.41V132.41C567.688 132.41 570.386 132.194 572.95 131.759L572.448 128.801ZM564.859 129.41C562.086 129.41 559.461 129.205 556.981 128.8L556.497 131.76C559.151 132.195 561.939 132.41 564.859 132.41V129.41ZM556.981 128.8C554.524 128.398 552.288 127.753 550.267 126.874L549.071 129.626C551.343 130.614 553.821 131.322 556.497 131.76L556.981 128.8ZM550.303 126.891C548.352 125.98 546.678 124.818 545.27 123.409L543.148 125.531C544.82 127.202 546.786 128.56 549.035 129.609L550.303 126.891ZM545.27 123.409C543.889 122.029 542.783 120.318 541.964 118.248L539.174 119.352C540.128 121.762 541.449 123.831 543.148 125.531L545.27 123.409ZM541.973 118.273C541.21 116.238 540.809 113.81 540.809 110.96H537.809C537.809 114.084 538.248 116.882 539.164 119.327L541.973 118.273ZM540.809 110.96V84.71H537.809V110.96H540.809ZM539.309 86.21H548.619V83.21H539.309V86.21ZM547.119 84.71V109.98H550.119V84.71H547.119ZM547.119 109.98C547.119 113.692 547.846 116.77 549.519 119L551.919 117.2C550.792 115.697 550.119 113.362 550.119 109.98H547.119ZM549.53 119.015C551.145 121.113 553.342 122.542 556.043 123.321L556.875 120.439C554.723 119.818 553.093 118.727 551.908 117.185L549.53 119.015ZM556.076 123.33C558.698 124.023 561.63 124.36 564.859 124.36V121.36C561.834 121.36 559.166 121.044 556.842 120.43L556.076 123.33ZM564.859 124.36C567.997 124.36 570.841 124.022 573.376 123.326L572.582 120.434C570.357 121.044 567.787 121.36 564.859 121.36V124.36ZM573.395 123.321C576.096 122.542 578.293 121.113 579.908 119.015L577.53 117.185C576.345 118.727 574.715 119.818 572.563 120.439L573.395 123.321ZM579.905 119.019C581.635 116.786 582.389 113.7 582.389 109.98H579.389C579.389 113.353 578.696 115.68 577.533 117.181L579.905 119.019ZM611.469 115.93H609.969V117.43H611.469V115.93ZM611.469 104.31V102.81H609.969V104.31H611.469ZM623.929 102.21L624.859 103.387L623.929 102.21ZM624.069 90.38L625.01 89.2119L624.069 90.38ZM612.309 89.33L612.941 90.6905L612.951 90.6857L612.961 90.6808L612.309 89.33ZM609.299 91.85L608.043 91.0306L608.038 91.0376L608.034 91.0447L609.299 91.85ZM608.249 95.35V96.85H609.696L609.748 95.4035L608.249 95.35ZM599.219 95.35L597.72 95.4017L597.77 96.85H599.219V95.35ZM599.779 91.22L598.356 90.7457L598.349 90.7672L598.342 90.789L599.779 91.22ZM605.449 83.66L604.581 82.4367L605.449 83.66ZM610.629 81.28L611.032 82.7248L611.043 82.7217L611.054 82.7185L610.629 81.28ZM625.679 81.56L625.187 82.9772L625.196 82.9802L625.679 81.56ZM631.419 84.85L630.393 85.9443L630.402 85.9522L630.41 85.9599L631.419 84.85ZM634.849 89.82L633.452 90.3653L633.456 90.3771L634.849 89.82ZM633.869 103.82L635.117 104.652L635.121 104.646L635.126 104.639L633.869 103.82ZM628.199 108.72L628.848 110.072L628.859 110.067L628.199 108.72ZM620.359 110.68L620.263 109.183L618.859 109.274V110.68H620.359ZM620.359 115.93V117.43H621.859V115.93H620.359ZM610.839 130H609.339V131.5H610.839V130ZM610.839 122.02V120.52H609.339V122.02H610.839ZM621.409 122.02H622.909V120.52H621.409V122.02ZM621.409 130V131.5H622.909V130H621.409ZM612.969 115.93V104.31H609.969V115.93H612.969ZM611.469 105.81H615.599V102.81H611.469V105.81ZM615.599 105.81C619.509 105.81 622.694 105.096 624.859 103.387L623 101.033C621.618 102.124 619.249 102.81 615.599 102.81V105.81ZM624.859 103.387C627.044 101.662 628.089 99.215 628.089 96.26H625.089C625.089 98.4383 624.361 99.9583 623 101.033L624.859 103.387ZM628.089 96.26C628.089 93.3353 627.112 90.9051 625.01 89.2119L623.128 91.5481C624.386 92.5616 625.089 94.0514 625.089 96.26H628.089ZM625.01 89.2119C622.993 87.5869 620.388 86.85 617.349 86.85V89.85C619.91 89.85 621.785 90.4664 623.128 91.5481L625.01 89.2119ZM617.349 86.85C615.189 86.85 613.27 87.2005 611.657 87.9792L612.961 90.6808C614.055 90.1528 615.496 89.85 617.349 89.85V86.85ZM611.677 87.9695C610.148 88.6793 608.915 89.6936 608.043 91.0306L610.556 92.6694C611.084 91.8597 611.856 91.194 612.941 90.6905L611.677 87.9695ZM608.034 91.0447C607.226 92.3134 606.806 93.7435 606.75 95.2965L609.748 95.4035C609.786 94.3432 610.065 93.4399 610.565 92.6553L608.034 91.0447ZM608.249 93.85H599.219V96.85H608.249V93.85ZM600.718 95.2983C600.678 94.1207 600.839 92.907 601.216 91.651L598.342 90.789C597.879 92.333 597.667 93.8727 597.72 95.4017L600.718 95.2983ZM601.202 91.6943C601.618 90.4481 602.246 89.2275 603.1 88.0319L600.659 86.2881C599.646 87.7058 598.874 89.1919 598.356 90.7457L601.202 91.6943ZM603.1 88.0319C603.926 86.8746 604.993 85.8233 606.317 84.8833L604.581 82.4367C603.012 83.55 601.699 84.8321 600.659 86.2881L603.1 88.0319ZM606.317 84.8833C607.601 83.9725 609.164 83.2462 611.032 82.7248L610.226 79.8352C608.081 80.4338 606.191 81.2942 604.581 82.4367L606.317 84.8833ZM611.054 82.7185C612.945 82.1598 615.109 81.87 617.559 81.87V78.87C614.876 78.87 612.42 79.1869 610.204 79.8415L611.054 82.7185ZM617.559 81.87C620.565 81.87 623.097 82.252 625.187 82.9771L626.171 80.1429C623.688 79.2813 620.807 78.87 617.559 78.87V81.87ZM625.196 82.9802C627.368 83.7185 629.084 84.717 630.393 85.9443L632.445 83.7557C630.767 82.183 628.657 80.9881 626.162 80.1398L625.196 82.9802ZM630.41 85.9599C631.781 87.2064 632.79 88.6706 633.452 90.3653L636.246 89.2747C635.414 87.1427 634.137 85.2936 632.428 83.7401L630.41 85.9599ZM633.456 90.3771C634.125 92.0474 634.469 93.9091 634.469 95.98H637.469C637.469 93.5709 637.067 91.3259 636.242 89.2629L633.456 90.3771ZM634.469 95.98C634.469 98.8284 633.824 101.143 632.613 103.001L635.126 104.639C636.714 102.204 637.469 99.2915 637.469 95.98H634.469ZM632.621 102.988C631.376 104.856 629.693 106.317 627.539 107.373L628.859 110.067C631.465 108.79 633.563 106.984 635.117 104.652L632.621 102.988ZM627.55 107.368C625.409 108.395 622.987 109.007 620.263 109.183L620.456 112.177C623.518 111.979 626.322 111.285 628.848 110.072L627.55 107.368ZM618.859 110.68V115.93H621.859V110.68H618.859ZM620.359 114.43H611.469V117.43H620.359V114.43ZM612.339 130V122.02H609.339V130H612.339ZM610.839 123.52H621.409V120.52H610.839V123.52ZM619.909 122.02V130H622.909V122.02H619.909ZM621.409 128.5H610.839V131.5H621.409V128.5Z" fill="#262626"/>
</svg>
