<svg width="246" height="113" viewBox="0 0 246 113" fill="none" xmlns="http://www.w3.org/2000/svg">
<path d="M84.6314 38.5095C85.3279 39.1149 86.4141 38.5812 86.3427 37.6664C85.5216 27.1339 85.0889 -5.31656 113.836 0.749056C128.634 3.87044 122.699 27.3884 121.289 32.2959C121.214 32.556 121.527 32.7544 121.734 32.5784C125.444 29.4346 136.142 12.4262 151.122 17.5982C163.75 21.9574 155.306 36.6909 153.215 40.1173C153.14 40.2417 153.296 40.3751 153.409 40.2843C157.106 37.3143 165.135 21.3957 178.386 29.5804C182.954 32.4013 181.868 41.8731 179.748 44.9978C179.643 45.1514 179.835 45.3308 179.984 45.2198C183.434 42.6366 196.492 33.509 205.273 36.3153C213.785 39.0365 209.707 50.3414 209.707 50.3414C209.707 50.3414 246.976 48.0968 245.98 59.1808C245.14 68.5326 210.426 72.2852 210.426 72.2852C210.426 72.2852 214.544 86.8035 207.675 92.0607C194.339 102.269 180.911 88.1321 177.38 83.931C177.106 83.6047 176.571 83.8088 176.588 84.2315C176.762 88.7487 176.103 102.638 161.641 104.43C145.233 106.462 137.897 89.066 137.897 89.066C137.897 89.066 129.12 105.407 110.239 107.746C95.2925 109.597 83.2689 90.6021 83.2689 90.6021C83.2689 90.6021 75.736 100.27 61.8561 97.9212C50.366 95.977 49.8427 91.2938 50.1553 89.3564C50.2029 89.0638 49.88 88.853 49.6297 89.0145C46.6012 90.9743 35.3251 97.2428 29.8672 85.9525C28.6813 83.4982 33.7146 75.7587 33.7146 75.7587C33.7146 75.7587 2.13451 76.0547 6.99333 60.8783C12.3176 44.2455 41.8874 50.1138 41.8874 50.1138C41.8874 50.1138 34.2152 34.5674 56.0731 31.4079C71.5431 29.1711 80.8406 35.2166 84.6303 38.5117L84.6314 38.5095Z" fill="#D3F2F5"/>
<path d="M79.1463 42.1662C79.8428 42.7717 80.9289 42.238 80.8576 41.3231C80.0365 30.7907 79.6038 -1.65982 108.351 4.40579C123.149 7.52718 117.214 31.0452 115.804 35.9526C115.729 36.2127 116.042 36.4112 116.249 36.2352C119.959 33.0913 130.657 16.083 145.637 21.255C158.265 25.6142 149.821 40.3477 147.73 43.774C147.655 43.8985 147.811 44.0319 147.924 43.9411C151.621 40.971 159.65 25.0524 172.901 33.2371C177.469 36.058 176.383 45.5298 174.262 48.6545C174.158 48.8081 174.35 48.9875 174.499 48.8765C177.949 46.2933 191.007 37.1657 199.788 39.9721C208.3 42.6932 204.222 53.9981 204.222 53.9981C204.222 53.9981 241.491 51.7535 240.495 62.8375C239.655 72.1894 204.941 75.942 204.941 75.942C204.941 75.942 209.059 90.4602 202.19 95.7175C188.854 105.926 175.426 91.7888 171.895 87.5877C171.621 87.2615 171.086 87.4655 171.103 87.8882C171.277 92.4055 170.618 106.295 156.156 108.086C139.748 110.119 132.412 92.7228 132.412 92.7228C132.412 92.7228 123.634 109.064 104.754 111.403C89.8074 113.254 77.7838 94.2588 77.7838 94.2588C77.7838 94.2588 70.2509 103.927 56.371 101.578C44.8808 99.6338 44.3576 94.9506 44.6702 93.0132C44.7177 92.7205 44.3949 92.5097 44.1446 92.6712C41.1161 94.631 29.84 100.9 24.382 89.6092C23.1962 87.155 28.2295 79.4154 28.2295 79.4154C28.2295 79.4154 -3.35059 79.7114 1.50823 64.535C6.83254 47.9022 36.4023 53.7705 36.4023 53.7705C36.4023 53.7705 28.7301 38.2241 50.588 35.0646C66.058 32.8279 75.3555 38.8733 79.1452 42.1685L79.1463 42.1662Z" stroke="#262626" stroke-width="2" stroke-linecap="round" stroke-linejoin="round"/>
</svg>
