<svg width="115" height="115" viewBox="0 0 115 115" fill="none" xmlns="http://www.w3.org/2000/svg">
<circle cx="55.5" cy="55.5" r="55.5" fill="#BA4490"/>
<path d="M23.32 63C23.232 63 23.164 62.976 23.116 62.928C23.068 62.872 23.044 62.804 23.044 62.724V54.876C23.044 54.796 23.068 54.732 23.116 54.684C23.164 54.628 23.232 54.6 23.32 54.6H23.956C24.036 54.6 24.1 54.628 24.148 54.684C24.196 54.732 24.22 54.796 24.22 54.876V61.956H28.216C28.304 61.956 28.372 61.984 28.42 62.04C28.468 62.088 28.492 62.156 28.492 62.244V62.724C28.492 62.804 28.468 62.872 28.42 62.928C28.372 62.976 28.304 63 28.216 63H23.32ZM30.0817 63C29.9937 63 29.9257 62.976 29.8777 62.928C29.8297 62.872 29.8057 62.804 29.8057 62.724V54.888C29.8057 54.8 29.8297 54.732 29.8777 54.684C29.9257 54.628 29.9937 54.6 30.0817 54.6H35.0377C35.1257 54.6 35.1937 54.628 35.2417 54.684C35.2897 54.732 35.3137 54.8 35.3137 54.888V55.344C35.3137 55.432 35.2897 55.5 35.2417 55.548C35.1937 55.596 35.1257 55.62 35.0377 55.62H30.9577V58.248H34.7737C34.8617 58.248 34.9297 58.276 34.9777 58.332C35.0257 58.38 35.0497 58.448 35.0497 58.536V58.98C35.0497 59.06 35.0257 59.128 34.9777 59.184C34.9297 59.232 34.8617 59.256 34.7737 59.256H30.9577V61.98H35.1337C35.2217 61.98 35.2897 62.004 35.3377 62.052C35.3857 62.1 35.4097 62.168 35.4097 62.256V62.724C35.4097 62.804 35.3857 62.872 35.3377 62.928C35.2897 62.976 35.2217 63 35.1337 63H30.0817ZM36.5191 63C36.4551 63 36.3991 62.976 36.3511 62.928C36.3031 62.88 36.2791 62.824 36.2791 62.76C36.2791 62.72 36.2831 62.676 36.2911 62.628L39.2671 54.864C39.2991 54.784 39.3431 54.72 39.3991 54.672C39.4551 54.624 39.5391 54.6 39.6511 54.6H40.4671C40.5711 54.6 40.6511 54.624 40.7071 54.672C40.7711 54.72 40.8191 54.784 40.8511 54.864L43.8151 62.628C43.8311 62.676 43.8391 62.72 43.8391 62.76C43.8391 62.824 43.8151 62.88 43.7671 62.928C43.7191 62.976 43.6631 63 43.5991 63H42.9871C42.8911 63 42.8191 62.976 42.7711 62.928C42.7311 62.88 42.7031 62.836 42.6871 62.796L42.0271 61.092H38.0911L37.4311 62.796C37.4231 62.836 37.3951 62.88 37.3471 62.928C37.2991 62.976 37.2271 63 37.1311 63H36.5191ZM38.4391 60.06H41.6791L40.0591 55.8L38.4391 60.06ZM45.3981 63C45.3101 63 45.2421 62.976 45.1941 62.928C45.1461 62.872 45.1221 62.804 45.1221 62.724V54.888C45.1221 54.8 45.1461 54.732 45.1941 54.684C45.2421 54.628 45.3101 54.6 45.3981 54.6H48.3261C49.2301 54.6 49.9461 54.812 50.4741 55.236C51.0021 55.66 51.2661 56.288 51.2661 57.12C51.2661 57.736 51.1101 58.24 50.7981 58.632C50.4941 59.016 50.0781 59.284 49.5501 59.436L51.3981 62.628C51.4221 62.676 51.4341 62.72 51.4341 62.76C51.4341 62.824 51.4061 62.88 51.3501 62.928C51.3021 62.976 51.2461 63 51.1821 63H50.6061C50.4701 63 50.3701 62.964 50.3061 62.892C50.2421 62.82 50.1861 62.748 50.1381 62.676L48.3981 59.628H46.2981V62.724C46.2981 62.804 46.2701 62.872 46.2141 62.928C46.1661 62.976 46.0981 63 46.0101 63H45.3981ZM46.2981 58.608H48.2781C48.8781 58.608 49.3261 58.484 49.6221 58.236C49.9181 57.98 50.0661 57.604 50.0661 57.108C50.0661 56.62 49.9181 56.248 49.6221 55.992C49.3341 55.736 48.8861 55.608 48.2781 55.608H46.2981V58.608ZM53.2614 63C53.1734 63 53.1054 62.976 53.0574 62.928C53.0094 62.872 52.9854 62.804 52.9854 62.724V54.888C52.9854 54.8 53.0094 54.732 53.0574 54.684C53.1054 54.628 53.1734 54.6 53.2614 54.6H53.8134C53.9094 54.6 53.9814 54.624 54.0294 54.672C54.0774 54.712 54.1054 54.744 54.1134 54.768L58.0974 60.888V54.888C58.0974 54.8 58.1214 54.732 58.1694 54.684C58.2174 54.628 58.2854 54.6 58.3734 54.6H58.9494C59.0374 54.6 59.1054 54.628 59.1534 54.684C59.2094 54.732 59.2374 54.8 59.2374 54.888V62.712C59.2374 62.792 59.2094 62.86 59.1534 62.916C59.1054 62.972 59.0414 63 58.9614 63H58.3854C58.2974 63 58.2294 62.976 58.1814 62.928C58.1414 62.88 58.1134 62.848 58.0974 62.832L54.1254 56.772V62.724C54.1254 62.804 54.0974 62.872 54.0414 62.928C53.9934 62.976 53.9254 63 53.8374 63H53.2614ZM64.5348 63C64.4548 63 64.3868 62.976 64.3308 62.928C64.2828 62.872 64.2588 62.804 64.2588 62.724V54.888C64.2588 54.8 64.2828 54.732 64.3308 54.684C64.3868 54.628 64.4548 54.6 64.5348 54.6H65.1348C65.2308 54.6 65.3028 54.624 65.3508 54.672C65.3988 54.72 65.4268 54.76 65.4348 54.792L67.9788 59.64L70.5348 54.792C70.5508 54.76 70.5788 54.72 70.6188 54.672C70.6668 54.624 70.7388 54.6 70.8348 54.6H71.4228C71.5108 54.6 71.5788 54.628 71.6268 54.684C71.6828 54.732 71.7108 54.8 71.7108 54.888V62.724C71.7108 62.804 71.6828 62.872 71.6268 62.928C71.5788 62.976 71.5108 63 71.4228 63H70.8348C70.7548 63 70.6868 62.976 70.6308 62.928C70.5828 62.872 70.5588 62.804 70.5588 62.724V56.82L68.5548 60.732C68.5228 60.812 68.4748 60.876 68.4108 60.924C68.3468 60.964 68.2668 60.984 68.1708 60.984H67.7988C67.6948 60.984 67.6108 60.964 67.5468 60.924C67.4908 60.876 67.4428 60.812 67.4028 60.732L65.3988 56.82V62.724C65.3988 62.804 65.3708 62.872 65.3148 62.928C65.2668 62.976 65.2028 63 65.1228 63H64.5348ZM76.7982 63.12C76.1182 63.12 75.5342 63.004 75.0462 62.772C74.5582 62.532 74.1822 62.168 73.9182 61.68C73.6542 61.184 73.5062 60.564 73.4742 59.82C73.4662 59.468 73.4622 59.132 73.4622 58.812C73.4622 58.484 73.4662 58.144 73.4742 57.792C73.5062 57.056 73.6582 56.444 73.9302 55.956C74.2102 55.46 74.5942 55.092 75.0822 54.852C75.5782 54.604 76.1502 54.48 76.7982 54.48C77.4542 54.48 78.0262 54.604 78.5142 54.852C79.0102 55.092 79.3982 55.46 79.6782 55.956C79.9582 56.444 80.1102 57.056 80.1342 57.792C80.1502 58.144 80.1582 58.484 80.1582 58.812C80.1582 59.132 80.1502 59.468 80.1342 59.82C80.1102 60.564 79.9622 61.184 79.6902 61.68C79.4262 62.168 79.0502 62.532 78.5622 62.772C78.0742 63.004 77.4862 63.12 76.7982 63.12ZM76.7982 62.1C77.4142 62.1 77.9142 61.916 78.2982 61.548C78.6902 61.18 78.9022 60.584 78.9342 59.76C78.9502 59.4 78.9582 59.08 78.9582 58.8C78.9582 58.512 78.9502 58.192 78.9342 57.84C78.9182 57.288 78.8142 56.84 78.6222 56.496C78.4382 56.152 78.1902 55.9 77.8782 55.74C77.5662 55.58 77.2062 55.5 76.7982 55.5C76.4062 55.5 76.0542 55.58 75.7422 55.74C75.4302 55.9 75.1782 56.152 74.9862 56.496C74.8022 56.84 74.6982 57.288 74.6742 57.84C74.6662 58.192 74.6622 58.512 74.6622 58.8C74.6622 59.08 74.6662 59.4 74.6742 59.76C74.7062 60.584 74.9182 61.18 75.3102 61.548C75.7022 61.916 76.1982 62.1 76.7982 62.1ZM82.1833 63C82.0953 63 82.0273 62.976 81.9793 62.928C81.9313 62.872 81.9073 62.804 81.9073 62.724V54.888C81.9073 54.8 81.9313 54.732 81.9793 54.684C82.0273 54.628 82.0953 54.6 82.1833 54.6H85.1113C86.0153 54.6 86.7313 54.812 87.2593 55.236C87.7873 55.66 88.0513 56.288 88.0513 57.12C88.0513 57.736 87.8953 58.24 87.5833 58.632C87.2793 59.016 86.8633 59.284 86.3353 59.436L88.1833 62.628C88.2073 62.676 88.2193 62.72 88.2193 62.76C88.2193 62.824 88.1913 62.88 88.1353 62.928C88.0873 62.976 88.0313 63 87.9673 63H87.3913C87.2553 63 87.1553 62.964 87.0913 62.892C87.0273 62.82 86.9713 62.748 86.9233 62.676L85.1833 59.628H83.0833V62.724C83.0833 62.804 83.0553 62.872 82.9993 62.928C82.9513 62.976 82.8833 63 82.7953 63H82.1833ZM83.0833 58.608H85.0633C85.6633 58.608 86.1113 58.484 86.4073 58.236C86.7033 57.98 86.8513 57.604 86.8513 57.108C86.8513 56.62 86.7033 56.248 86.4073 55.992C86.1193 55.736 85.6713 55.608 85.0633 55.608H83.0833V58.608ZM90.0466 63C89.9586 63 89.8906 62.976 89.8426 62.928C89.7946 62.872 89.7706 62.804 89.7706 62.724V54.888C89.7706 54.8 89.7946 54.732 89.8426 54.684C89.8906 54.628 89.9586 54.6 90.0466 54.6H95.0026C95.0906 54.6 95.1586 54.628 95.2066 54.684C95.2546 54.732 95.2786 54.8 95.2786 54.888V55.344C95.2786 55.432 95.2546 55.5 95.2066 55.548C95.1586 55.596 95.0906 55.62 95.0026 55.62H90.9226V58.248H94.7386C94.8266 58.248 94.8946 58.276 94.9426 58.332C94.9906 58.38 95.0146 58.448 95.0146 58.536V58.98C95.0146 59.06 94.9906 59.128 94.9426 59.184C94.8946 59.232 94.8266 59.256 94.7386 59.256H90.9226V61.98H95.0986C95.1866 61.98 95.2546 62.004 95.3026 62.052C95.3506 62.1 95.3746 62.168 95.3746 62.256V62.724C95.3746 62.804 95.3506 62.872 95.3026 62.928C95.2546 62.976 95.1866 63 95.0986 63H90.0466Z" fill="#FAFAFA"/>
<rect x="5" y="4" width="109" height="110" rx="54.5" stroke="#1E1E1E" stroke-width="2"/>
</svg>
