<svg width="476" height="217" viewBox="0 0 476 217" fill="none" xmlns="http://www.w3.org/2000/svg">
<path d="M162.969 74.5816C164.318 75.7541 166.422 74.7205 166.284 72.9487C164.693 52.5505 163.856 -10.2966 219.531 1.4507C248.189 7.4959 236.695 53.0434 233.964 62.5476C233.819 63.0514 234.425 63.4357 234.826 63.0948C242.012 57.0062 262.73 24.0659 291.743 34.0826C316.198 42.5251 299.846 71.0595 295.797 77.6954C295.65 77.9364 295.952 78.1948 296.172 78.0189C303.331 72.2668 318.881 41.4372 344.545 57.2885C353.391 62.7517 351.288 81.0958 347.182 87.1475C346.98 87.445 347.35 87.7924 347.64 87.5775C354.321 82.5745 379.61 64.8971 396.616 70.3321C413.103 75.6021 405.204 97.4965 405.204 97.4965C405.204 97.4965 477.383 93.1493 475.455 114.616C473.828 132.728 406.597 139.995 406.597 139.995C406.597 139.995 414.572 168.113 401.269 178.295C375.44 198.065 349.434 170.686 342.597 162.55C342.066 161.918 341.029 162.313 341.062 163.132C341.4 171.88 340.123 198.78 312.114 202.25C280.337 206.186 266.13 172.495 266.13 172.495C266.13 172.495 249.13 204.143 212.564 208.673C183.617 212.258 160.331 175.47 160.331 175.47C160.331 175.47 145.742 194.194 118.86 189.645C96.6074 185.879 95.5939 176.809 96.1993 173.057C96.2915 172.49 95.6663 172.082 95.1815 172.395C89.3161 176.19 67.4777 188.331 56.9072 166.465C54.6106 161.712 64.3585 146.722 64.3585 146.722C64.3585 146.722 3.19723 147.296 12.6073 117.903C22.919 85.6905 80.1868 97.0557 80.1868 97.0557C80.1868 97.0557 65.3281 66.9469 107.66 60.8279C137.621 56.4959 155.628 68.2041 162.967 74.5859L162.969 74.5816Z" fill="#D3F2F5"/>
<path d="M152.346 81.6631C153.695 82.8357 155.799 81.8021 155.661 80.0302C154.07 59.632 153.233 -3.21507 208.908 8.53225C237.566 14.5774 226.072 60.1249 223.341 69.6292C223.196 70.1329 223.802 70.5173 224.203 70.1764C231.389 64.0877 252.107 31.1475 281.12 41.1642C305.575 49.6066 289.223 78.1411 285.174 84.7769C285.027 85.0179 285.329 85.2763 285.549 85.1005C292.708 79.3484 308.258 48.5187 333.922 64.37C342.768 69.8333 340.665 88.1773 336.559 94.2291C336.357 94.5265 336.727 94.874 337.017 94.659C343.698 89.6561 368.987 71.9786 385.993 77.4137C402.48 82.6837 394.581 104.578 394.581 104.578C394.581 104.578 466.76 100.231 464.832 121.697C463.204 139.809 395.974 147.077 395.974 147.077C395.974 147.077 403.949 175.194 390.646 185.376C364.817 205.147 338.811 177.767 331.974 169.631C331.443 168.999 330.406 169.395 330.439 170.213C330.776 178.962 329.5 205.861 301.491 209.331C269.714 213.268 255.507 179.576 255.507 179.576C255.507 179.576 238.507 211.225 201.941 215.754C172.994 219.339 149.708 182.551 149.708 182.551C149.708 182.551 135.119 201.275 108.237 196.726C85.9843 192.961 84.9709 183.891 85.5763 180.139C85.6685 179.572 85.0433 179.164 84.5585 179.476C78.6931 183.272 56.8546 195.412 46.2842 173.546C43.9876 168.793 53.7355 153.804 53.7355 153.804C53.7355 153.804 -7.42579 154.377 1.98431 124.985C12.2959 92.772 69.5638 104.137 69.5638 104.137C69.5638 104.137 54.705 74.0284 97.0374 67.9094C126.998 63.5775 145.005 75.2857 152.344 81.6675L152.346 81.6631Z" stroke="#262626" stroke-width="2" stroke-linecap="round" stroke-linejoin="round"/>
</svg>
