<svg width="289" height="590" viewBox="0 0 289 590" fill="none" xmlns="http://www.w3.org/2000/svg">
<g clip-path="url(#clip0_179_721)">
<path d="M0 400.031L44.2274 239.803H169.528L207.18 400.031H0Z" fill="url(#paint0_linear_179_721)"/>
<path d="M276.654 571.244H241.545V71.3679C241.545 -10.2733 180.259 3.12364 104.657 3.12364H86.6486C85.9637 3.12364 85.408 3.72383 85.408 4.46334V92.168H74.4981V112.799H31.8214V248.109H157.122V112.799H110.724V92.168H98.6898V17.2789H102.521C161.526 20.0923 227.447 -1.90023 227.447 72.6058V571.244H140.932C136.548 571.244 132.992 575.084 132.992 579.818C132.992 585.442 137.213 590 142.421 590H276.654C281.038 590 284.594 586.16 284.594 581.426V579.818C284.594 575.084 281.038 571.244 276.654 571.244Z" fill="#367064"/>
<path d="M281.06 568.938H245.951V69.0618C245.951 -12.5767 184.665 0.817607 109.063 0.817607H91.0546C90.3698 0.817607 89.814 1.41779 89.814 2.1573V89.862H78.9041V110.493H36.2274V245.803H161.528V110.493H115.13V89.862H103.096V14.9729H106.927C165.932 17.7862 231.853 -4.20626 231.853 70.2997V568.938H145.338C140.954 568.938 137.398 572.778 137.398 577.512C137.398 583.136 141.619 587.694 146.827 587.694H281.06C285.444 587.694 289 583.854 289 579.12V577.512C289 572.778 285.444 568.938 281.06 568.938Z" stroke="#262626" stroke-width="2" stroke-linecap="round" stroke-linejoin="round"/>
</g>
<defs>
<linearGradient id="paint0_linear_179_721" x1="104.015" y1="374.226" x2="109.509" y2="88.349" gradientUnits="userSpaceOnUse">
<stop stop-color="white" stop-opacity="0"/>
<stop offset="0.77" stop-color="#FFFF80"/>
</linearGradient>
<clipPath id="clip0_179_721">
<rect width="289" height="590" fill="white"/>
</clipPath>
</defs>
</svg>
