<svg width="62" height="57" viewBox="0 0 62 57" fill="none" xmlns="http://www.w3.org/2000/svg">
<g clip-path="url(#clip0_264_589)">
<path d="M0 10.1071C0 16.0535 11.1587 20.5134 16.7381 22C22.6457 14.567 31.9993 13.0802 28.0609 4.65608C23.3349 -3.27254 16.574 0.691807 13.7843 3.66506C7.87675 -1.78587 0 2.67398 0 10.1071Z" fill="#F9B2EB"/>
<path d="M2 12.1071C2 18.0535 13.1587 22.5134 18.7381 24C24.6457 16.567 33.9993 15.0802 30.0609 6.65608C25.3349 -1.27254 18.574 2.69181 15.7843 5.66506C9.87675 0.214131 2 4.67398 2 12.1071Z" stroke="#262626" stroke-width="1.5"/>
<path d="M31 43.1071C31 49.0535 42.1587 53.5134 47.7381 55C53.6457 47.567 62.9993 46.0802 59.0609 37.6561C54.3349 29.7275 47.574 33.6918 44.7843 36.6651C38.8768 31.2141 31 35.674 31 43.1071Z" fill="#F9B2EB"/>
<path d="M33 45.1071C33 51.0535 44.1587 55.5134 49.7381 57C55.6457 49.567 64.9993 48.0802 61.0609 39.6561C56.3349 31.7275 49.574 35.6918 46.7843 38.6651C40.8768 33.2141 33 37.674 33 45.1071Z" stroke="#262626" stroke-width="1.5"/>
</g>
<defs>
<clipPath id="clip0_264_589">
<rect width="62" height="57" fill="white"/>
</clipPath>
</defs>
</svg>
