<svg width="360" height="207" viewBox="0 0 360 207" fill="none" xmlns="http://www.w3.org/2000/svg">
<g clip-path="url(#clip0_221_928)">
<path d="M141.952 143.068C141.952 143.068 150.431 200.375 210.829 195.014C255.118 191.084 265.621 145.011 265.621 145.011C265.621 145.011 340.552 158.542 348.721 109.525C358.063 53.4573 273.408 56.9394 273.408 56.9394C273.408 56.9394 268.848 14.543 218.339 11.1237C172.199 8.00105 148.581 46.4137 148.581 46.4137C148.581 46.4137 143.47 18.0902 112.747 20.3967C76.5149 23.1182 73.4648 50.1553 73.4648 50.1553C73.4648 50.1553 30.0185 36.9556 20.7264 64.5306C3.26372 116.355 61.9652 115.166 61.9652 115.166C61.9652 115.166 54.5341 152.227 96.2806 161.985C132.763 170.514 141.954 143.066 141.954 143.066L141.952 143.068Z" fill="#D3F2F5"/>
<path d="M135.84 146.595C135.84 146.595 144.951 208.122 209.656 202.394C257.105 198.194 268.337 148.736 268.337 148.736C268.337 148.736 348.624 163.296 357.352 110.676C367.337 50.4862 276.64 54.1876 276.64 54.1876C276.64 54.1876 271.736 8.66881 217.62 4.97594C168.183 1.60237 142.898 42.8316 142.898 42.8316C142.898 42.8316 137.408 12.4209 104.493 14.8843C65.6767 17.7895 62.4205 46.8158 62.4205 46.8158C62.4205 46.8158 15.8676 32.6248 5.92404 62.2262C-12.7628 117.857 50.1289 116.606 50.1289 116.606C50.1289 116.606 42.1838 156.391 86.9144 166.887C126.005 176.059 135.84 146.595 135.84 146.595Z" stroke="#262626" stroke-width="2" stroke-linecap="round" stroke-linejoin="round"/>
</g>
<defs>
<clipPath id="clip0_221_928">
<rect width="360" height="207" fill="white"/>
</clipPath>
</defs>
</svg>
