<svg width="823" height="505" viewBox="0 0 823 505" fill="none" xmlns="http://www.w3.org/2000/svg">
<g clip-path="url(#clip0_184_909)">
<path d="M461.076 395.412C461.076 395.412 560.617 512.962 726.615 440.253C848.341 386.939 817.934 274.967 817.934 274.967C817.934 274.967 1050.38 229.171 1009.42 113.075C962.562 -19.7205 724.6 73.317 724.6 73.317C724.6 73.317 655.866 -15.3751 506.67 28.0396C370.379 67.7012 353.155 176.044 353.155 176.044C353.155 176.044 301.319 118.875 216.328 154.935C116.098 197.463 142.861 260.033 142.861 260.033C142.861 260.033 1.05727 274.803 10.6436 344.852C28.6629 476.5 195.28 414.683 195.28 414.683C195.28 414.683 222.653 503.727 355.069 483.099C470.79 465.073 461.081 395.406 461.081 395.406L461.076 395.412Z" fill="#D3F2F5"/>
<path d="M466.088 398.889C466.088 398.889 579.302 512.47 739.269 427.499C856.571 365.188 813.827 252.83 813.827 252.83C813.827 252.83 1043.84 191.036 989.98 75.1492C928.378 -57.411 697.86 52.9774 697.86 52.9774C697.86 52.9774 618.878 -33.1361 472.749 20.8435C339.257 70.1547 333.475 181.891 333.475 181.891C333.475 181.891 274.95 126.872 192.923 169.189C96.1881 219.093 129.95 281.251 129.95 281.251C129.95 281.251 -8.73029 290.24 5.42428 376.407C37.7593 509.66 199.521 435.765 199.521 435.765C199.521 435.765 236.74 524.911 368.355 495.285C483.376 469.394 466.088 398.889 466.088 398.889Z" stroke="#262626" stroke-width="3" stroke-linecap="round" stroke-linejoin="round"/>
</g>
<defs>
<clipPath id="clip0_184_909">
<rect width="823" height="505" fill="white"/>
</clipPath>
</defs>
</svg>
