<svg width="316" height="268" viewBox="0 0 316 268" fill="none" xmlns="http://www.w3.org/2000/svg">
<path d="M85.5138 173.829C85.5138 173.829 93.9929 231.136 154.391 225.775C198.68 221.845 209.183 175.772 209.183 175.772C209.183 175.772 284.114 189.303 292.282 140.286C301.625 84.2184 216.97 87.7005 216.97 87.7005C216.97 87.7005 212.41 45.3041 161.901 41.8847C115.76 38.7621 92.1432 77.1748 92.1432 77.1748C92.1432 77.1748 87.0315 48.8512 56.3085 51.1577C20.0767 53.8793 17.0266 80.9163 17.0266 80.9163C17.0266 80.9163 -26.4197 67.7166 -35.7118 95.2916C-53.1745 147.116 5.52701 145.927 5.52701 145.927C5.52701 145.927 -1.90416 182.988 39.8423 192.747C76.325 201.276 85.5162 173.827 85.5162 173.827L85.5138 173.829Z" fill="#D3F2F5"/>
<path d="M79.402 177.356C79.402 177.356 88.5124 238.883 153.218 233.155C200.667 228.955 211.898 179.497 211.898 179.497C211.898 179.497 292.185 194.057 300.914 141.437C310.899 81.2474 220.202 84.9488 220.202 84.9488C220.202 84.9488 215.298 39.43 161.181 35.7371C111.745 32.3635 86.4595 73.5928 86.4595 73.5928C86.4595 73.5928 80.9695 43.1821 48.055 45.6455C9.23849 48.5507 5.98223 77.5769 5.98223 77.5769C5.98223 77.5769 -40.5707 63.386 -50.5142 92.9873C-69.201 148.618 -6.30938 147.368 -6.30938 147.368C-6.30938 147.368 -14.2544 187.152 30.4762 197.648C69.567 206.82 79.402 177.356 79.402 177.356Z" stroke="#262626" stroke-width="2" stroke-linecap="round" stroke-linejoin="round"/>
</svg>
