<svg width="62" height="57" viewBox="0 0 62 57" fill="none" xmlns="http://www.w3.org/2000/svg">
<g clip-path="url(#clip0_264_590)">
<path d="M0 10.1071C0 16.0535 11.1587 20.5134 16.7381 22C22.6457 14.567 31.9993 13.0802 28.0609 4.65608C23.3349 -3.27254 16.574 0.691807 13.7843 3.66506C7.87675 -1.78587 0 2.67398 0 10.1071Z" fill="#F9B2EB"/>
<path d="M2 12.1071C2 18.0535 13.1587 22.5134 18.7381 24C24.6457 16.567 33.9993 15.0802 30.0609 6.65608C25.3349 -1.27254 18.574 2.69181 15.7843 5.66506C9.87675 0.214131 2 4.67398 2 12.1071Z" stroke="#262626" stroke-width="1.5"/>
<g clip-path="url(#clip1_264_590)">
<path d="M31 42.6859C31 48.3846 41.7988 52.6587 47.1982 54.0833C52.9152 46.96 61.9671 45.5352 58.1557 37.4621C53.5821 29.8638 47.0394 33.663 44.3397 36.5123C38.6227 31.2885 31 35.5626 31 42.6859Z" fill="#F9B2EB"/>
<path d="M32.9355 44.6027C32.9355 50.3014 43.7343 54.5754 49.1336 56.0001C54.8506 48.8768 63.9026 47.452 60.0912 39.3788C55.5176 31.7806 48.9748 35.5797 46.2751 38.4291C40.5582 33.2053 32.9355 37.4793 32.9355 44.6027Z" stroke="#262626" stroke-width="1.5"/>
</g>
</g>
<defs>
<clipPath id="clip0_264_590">
<rect width="62" height="57" fill="white"/>
</clipPath>
<clipPath id="clip1_264_590">
<rect width="31" height="24" fill="white" transform="translate(31 33)"/>
</clipPath>
</defs>
</svg>
