<svg width="398" height="62" viewBox="0 0 398 62" fill="none" xmlns="http://www.w3.org/2000/svg">
<path d="M13.92 44.44C12.3733 44.44 11.08 44.1067 10.04 43.44C9 42.7733 8.18667 41.9067 7.6 40.84C7.01333 39.7733 6.58667 38.64 6.32 37.44C6.05333 36.24 5.92 35.1067 5.92 34.04C5.92 32.6 6.04 31.2533 6.28 30C6.54667 28.7467 6.97333 27.64 7.56 26.68C8.14667 25.72 8.96 24.9733 10 24.44C11.04 23.9067 12.3467 23.64 13.92 23.64C15.6533 23.64 17.2133 24.0933 18.6 25C19.9867 25.88 21.0933 27.1067 21.92 28.68C22.7733 30.2533 23.2 32.04 23.2 34.04C23.2 36.0933 22.7733 37.9067 21.92 39.48C21.0667 41.0267 19.9333 42.24 18.52 43.12C17.1333 44 15.6 44.44 13.92 44.44ZM12.84 41.08C14.12 41.08 15.2533 40.7867 16.24 40.2C17.2267 39.5867 17.9867 38.76 18.52 37.72C19.08 36.6533 19.36 35.4267 19.36 34.04C19.36 31.9867 18.7867 30.2933 17.64 28.96C16.52 27.6267 14.92 26.96 12.84 26.96C11.5867 26.96 10.4667 27.2533 9.48 27.84C8.52 28.4267 7.76 29.2533 7.2 30.32C6.64 31.3867 6.36 32.6267 6.36 34.04C6.36 35.3733 6.6 36.5733 7.08 37.64C7.58667 38.68 8.32 39.52 9.28 40.16C10.24 40.7733 11.4267 41.08 12.84 41.08ZM2.52 24.04H6.2L6.36 28.56V52H2.52V24.04ZM26.3275 37.52H29.8475C29.9808 38.5867 30.4608 39.4667 31.2875 40.16C32.1142 40.8267 33.2742 41.16 34.7675 41.16C35.7275 41.16 36.4742 41.0533 37.0075 40.84C37.5408 40.6 37.9142 40.28 38.1275 39.88C38.3675 39.48 38.4875 39.04 38.4875 38.56C38.4875 37.9467 38.3275 37.48 38.0075 37.16C37.6875 36.8133 37.2342 36.5333 36.6475 36.32C36.0608 36.08 35.3675 35.8533 34.5675 35.64C33.6875 35.4 32.8075 35.12 31.9275 34.8C31.0475 34.48 30.2342 34.0933 29.4875 33.64C28.7675 33.1867 28.1808 32.6267 27.7275 31.96C27.3008 31.2667 27.0875 30.4267 27.0875 29.44C27.0875 28.6133 27.2608 27.84 27.6075 27.12C27.9808 26.4 28.5008 25.7867 29.1675 25.28C29.8608 24.7467 30.6608 24.3467 31.5675 24.08C32.4742 23.7867 33.4742 23.64 34.5675 23.64C36.0875 23.64 37.3675 23.92 38.4075 24.48C39.4475 25.0133 40.2342 25.7733 40.7675 26.76C41.3275 27.7467 41.6208 28.88 41.6475 30.16H38.2875C38.1008 29.04 37.7142 28.2267 37.1275 27.72C36.5408 27.1867 35.6608 26.92 34.4875 26.92C33.3408 26.92 32.4608 27.1467 31.8475 27.6C31.2342 28.0533 30.9275 28.6667 30.9275 29.44C30.9275 30.0267 31.1408 30.5067 31.5675 30.88C31.9942 31.2267 32.5675 31.5333 33.2875 31.8C34.0075 32.0667 34.8208 32.3467 35.7275 32.64C36.5808 32.9333 37.3942 33.24 38.1675 33.56C38.9675 33.8533 39.6742 34.2133 40.2875 34.64C40.9275 35.04 41.4208 35.5733 41.7675 36.24C42.1408 36.88 42.3275 37.68 42.3275 38.64C42.3275 39.8133 42.0342 40.84 41.4475 41.72C40.8608 42.5733 40.0075 43.24 38.8875 43.72C37.7942 44.2 36.4608 44.44 34.8875 44.44C33.4475 44.44 32.2208 44.2667 31.2075 43.92C30.2208 43.5733 29.3808 43.12 28.6875 42.56C28.0208 42 27.5008 41.4133 27.1275 40.8C26.7808 40.16 26.5408 39.5467 26.4075 38.96C26.3008 38.3733 26.2742 37.8933 26.3275 37.52ZM65.9081 36.4C65.7481 38.0533 65.2148 39.4933 64.3081 40.72C63.4281 41.92 62.2681 42.84 60.8281 43.48C59.3881 44.12 57.7881 44.44 56.0281 44.44C54.0815 44.44 52.2948 44.04 50.6681 43.24C49.0415 42.4133 47.7348 41.2267 46.7481 39.68C45.7881 38.1067 45.3081 36.24 45.3081 34.08C45.3081 31.8933 45.7881 30.0267 46.7481 28.48C47.7348 26.9067 49.0415 25.7067 50.6681 24.88C52.2948 24.0533 54.0815 23.64 56.0281 23.64C57.7881 23.64 59.3748 23.96 60.7881 24.6C62.2015 25.24 63.3615 26.16 64.2681 27.36C65.1748 28.5333 65.7215 29.9467 65.9081 31.6H62.4281C61.9748 30.16 61.1615 29.0267 59.9881 28.2C58.8415 27.3467 57.5215 26.92 56.0281 26.92C54.8015 26.92 53.6548 27.2 52.5881 27.76C51.5481 28.32 50.7081 29.1333 50.0681 30.2C49.4548 31.24 49.1481 32.5333 49.1481 34.08C49.1481 35.5733 49.4548 36.8533 50.0681 37.92C50.7081 38.96 51.5481 39.76 52.5881 40.32C53.6281 40.8533 54.7748 41.12 56.0281 41.12C57.7348 41.12 59.1215 40.7067 60.1881 39.88C61.2548 39.0533 62.0148 37.8933 62.4681 36.4H65.9081ZM85.3828 44V31.96C85.3828 30.8933 85.2095 30.0133 84.8628 29.32C84.5161 28.6267 83.9961 28.1067 83.3028 27.76C82.6095 27.3867 81.7295 27.2 80.6628 27.2C79.4895 27.2 78.4095 27.48 77.4228 28.04C76.4628 28.5733 75.6761 29.3067 75.0628 30.24C74.4495 31.1467 74.0761 32.1733 73.9428 33.32L73.9028 31.04C74.0361 30 74.3161 29.0267 74.7428 28.12C75.1961 27.2133 75.7561 26.4267 76.4228 25.76C77.1161 25.0933 77.9161 24.5733 78.8228 24.2C79.7295 23.8267 80.7161 23.64 81.7828 23.64C82.9028 23.64 83.9161 23.8 84.8228 24.12C85.7295 24.4133 86.5028 24.88 87.1428 25.52C87.8095 26.1333 88.3161 26.8933 88.6628 27.8C89.0095 28.68 89.1828 29.6933 89.1828 30.84V44H85.3828ZM70.3828 44V16.04H74.1828V44H70.3828ZM109.639 37.52H113.279C113.065 38.8267 112.559 40 111.759 41.04C110.959 42.08 109.905 42.9067 108.599 43.52C107.292 44.1333 105.759 44.44 103.999 44.44C101.919 44.44 100.065 44 98.4388 43.12C96.8121 42.24 95.5321 41.0267 94.5988 39.48C93.6654 37.9333 93.1988 36.1333 93.1988 34.08C93.1988 32 93.6521 30.1867 94.5588 28.64C95.4654 27.0667 96.7188 25.84 98.3188 24.96C99.9188 24.08 101.745 23.64 103.799 23.64C105.959 23.64 107.772 24.0667 109.239 24.92C110.705 25.7733 111.785 27.04 112.479 28.72C113.199 30.3733 113.492 32.44 113.359 34.92H96.9987C97.1321 36.12 97.4921 37.1867 98.0788 38.12C98.6921 39.0533 99.4921 39.7867 100.479 40.32C101.492 40.8533 102.652 41.12 103.959 41.12C105.425 41.12 106.652 40.7867 107.639 40.12C108.625 39.4533 109.292 38.5867 109.639 37.52ZM103.839 26.92C102.105 26.92 100.665 27.3867 99.5188 28.32C98.3721 29.2267 97.6121 30.44 97.2388 31.96H109.519C109.412 30.3333 108.825 29.0933 107.759 28.24C106.692 27.36 105.385 26.92 103.839 26.92ZM117.803 16.04H121.643V44H117.803V16.04ZM127.529 16.04H131.369V44H127.529V16.04ZM146.496 44.44C144.549 44.44 142.763 44.0267 141.136 43.2C139.509 42.3733 138.216 41.1867 137.256 39.64C136.296 38.0933 135.816 36.24 135.816 34.08C135.816 31.8933 136.296 30.0267 137.256 28.48C138.216 26.9067 139.509 25.7067 141.136 24.88C142.763 24.0533 144.549 23.64 146.496 23.64C148.443 23.64 150.216 24.0533 151.816 24.88C153.416 25.7067 154.696 26.9067 155.656 28.48C156.616 30.0267 157.096 31.8933 157.096 34.08C157.096 36.24 156.616 38.0933 155.656 39.64C154.696 41.1867 153.416 42.3733 151.816 43.2C150.216 44.0267 148.443 44.44 146.496 44.44ZM146.496 41.12C147.696 41.12 148.803 40.8533 149.816 40.32C150.856 39.76 151.683 38.96 152.296 37.92C152.936 36.8533 153.256 35.5733 153.256 34.08C153.256 32.56 152.936 31.2667 152.296 30.2C151.683 29.1333 150.856 28.32 149.816 27.76C148.803 27.2 147.696 26.92 146.496 26.92C145.296 26.92 144.176 27.2 143.136 27.76C142.096 28.2933 141.256 29.0933 140.616 30.16C139.976 31.2267 139.656 32.5333 139.656 34.08C139.656 35.5733 139.963 36.8533 140.576 37.92C141.216 38.96 142.056 39.76 143.096 40.32C144.136 40.8533 145.269 41.12 146.496 41.12ZM177.594 45.8C174.207 45.8 171.26 45.2 168.754 44C166.247 42.8 164.314 41.1067 162.954 38.92C161.594 36.7067 160.914 34.0933 160.914 31.08C160.914 28.04 161.594 25.4533 162.954 23.32C164.34 21.1867 166.287 19.56 168.794 18.44C171.3 17.2933 174.26 16.72 177.674 16.72C181.087 16.72 184.007 17.2933 186.434 18.44C188.887 19.56 190.767 21.16 192.074 23.24C193.38 25.32 194.034 27.8133 194.034 30.72C194.034 32.0267 193.834 33.1867 193.434 34.2C193.06 35.2133 192.46 36.0267 191.634 36.64C190.807 37.2267 189.727 37.52 188.394 37.52C187.46 37.52 186.634 37.3867 185.914 37.12C185.22 36.8533 184.647 36.4933 184.194 36.04C183.74 35.5867 183.394 35.0933 183.154 34.56C182.94 34.0267 182.834 33.4933 182.834 32.96V24.16H186.634V31.12C186.634 31.7867 186.687 32.3733 186.794 32.88C186.927 33.3867 187.154 33.7867 187.474 34.08C187.794 34.3733 188.247 34.52 188.834 34.52C189.394 34.52 189.82 34.3733 190.114 34.08C190.434 33.7867 190.647 33.36 190.754 32.8C190.887 32.24 190.954 31.56 190.954 30.76C190.954 28.9733 190.647 27.4 190.034 26.04C189.447 24.6533 188.58 23.4933 187.434 22.56C186.314 21.6267 184.927 20.92 183.274 20.44C181.62 19.96 179.767 19.72 177.714 19.72C175.607 19.72 173.714 19.96 172.034 20.44C170.354 20.92 168.914 21.64 167.714 22.6C166.514 23.56 165.594 24.7467 164.954 26.16C164.314 27.5733 163.994 29.2133 163.994 31.08C163.994 33.5333 164.54 35.64 165.634 37.4C166.754 39.16 168.327 40.5067 170.354 41.44C172.38 42.3467 174.794 42.8 177.594 42.8C178.767 42.8 179.86 42.7333 180.874 42.6C181.914 42.44 182.86 42.2267 183.714 41.96C184.567 41.6933 185.327 41.3733 185.994 41L187.354 43.64C186.554 44.0933 185.647 44.48 184.634 44.8C183.647 45.12 182.554 45.36 181.354 45.52C180.18 45.7067 178.927 45.8 177.594 45.8ZM175.834 39.4C174.234 39.4 172.82 39.0533 171.594 38.36C170.394 37.64 169.46 36.68 168.794 35.48C168.127 34.2533 167.794 32.88 167.794 31.36C167.794 29.76 168.127 28.3333 168.794 27.08C169.487 25.8 170.46 24.7867 171.714 24.04C172.994 23.2933 174.487 22.92 176.194 22.92C177.9 22.92 179.26 23.32 180.274 24.12C181.314 24.8933 182.074 25.92 182.554 27.2C183.034 28.48 183.274 29.8667 183.274 31.36C183.274 32.0267 183.127 32.8133 182.834 33.72C182.567 34.6267 182.127 35.52 181.514 36.4C180.927 37.2533 180.167 37.9733 179.234 38.56C178.3 39.12 177.167 39.4 175.834 39.4ZM176.914 36.04C177.82 36.04 178.634 35.9067 179.354 35.64C180.1 35.3733 180.727 35.0267 181.234 34.6C181.74 34.1467 182.127 33.64 182.394 33.08C182.687 32.52 182.834 31.96 182.834 31.4C182.834 30.6267 182.687 29.9333 182.394 29.32C182.127 28.68 181.727 28.1467 181.194 27.72C180.687 27.2667 180.06 26.92 179.314 26.68C178.594 26.44 177.794 26.32 176.914 26.32C175.02 26.32 173.674 26.7867 172.874 27.72C172.074 28.6533 171.674 29.88 171.674 31.4C171.674 32.68 172.114 33.7733 172.994 34.68C173.9 35.5867 175.207 36.04 176.914 36.04ZM206.732 40.88C205.079 40.88 203.559 40.5467 202.172 39.88C200.785 39.2133 199.679 38.24 198.852 36.96C198.052 35.68 197.652 34.1333 197.652 32.32C197.652 30.5333 198.052 29 198.852 27.72C199.652 26.4133 200.732 25.4133 202.092 24.72C203.479 24 205.025 23.64 206.732 23.64C207.239 23.64 207.719 23.68 208.172 23.76C208.625 23.8133 209.065 23.9067 209.492 24.04H218.212V27.64C217.012 27.64 215.799 27.44 214.572 27.04C213.372 26.64 212.319 26.2133 211.412 25.76L211.292 25.56C212.199 26.04 212.985 26.6267 213.652 27.32C214.319 27.9867 214.825 28.7467 215.172 29.6C215.545 30.4267 215.732 31.36 215.732 32.4C215.732 34.16 215.332 35.68 214.532 36.96C213.759 38.24 212.679 39.2133 211.292 39.88C209.932 40.5467 208.412 40.88 206.732 40.88ZM212.852 52.08V51.16C212.852 49.8 212.479 48.8267 211.732 48.24C210.985 47.6533 209.892 47.36 208.452 47.36H203.772C202.785 47.36 201.945 47.28 201.252 47.12C200.559 46.96 199.985 46.72 199.532 46.4C199.079 46.1067 198.745 45.7333 198.532 45.28C198.319 44.8533 198.212 44.3733 198.212 43.84C198.212 42.8 198.532 42.0133 199.172 41.48C199.812 40.9467 200.625 40.6133 201.612 40.48C202.599 40.32 203.599 40.3067 204.612 40.44L206.732 40.88C205.212 40.96 204.052 41.1067 203.252 41.32C202.452 41.5333 202.052 41.9867 202.052 42.68C202.052 43.08 202.212 43.4 202.532 43.64C202.852 43.88 203.305 44 203.892 44H208.772C210.292 44 211.639 44.1867 212.812 44.56C214.012 44.96 214.945 45.6133 215.612 46.52C216.305 47.4533 216.652 48.72 216.652 50.32V52.08H212.852ZM206.732 37.64C207.692 37.64 208.559 37.44 209.332 37.04C210.132 36.6133 210.772 36.0133 211.252 35.24C211.732 34.44 211.972 33.48 211.972 32.36C211.972 31.2133 211.732 30.24 211.252 29.44C210.799 28.6133 210.172 28 209.372 27.6C208.572 27.1733 207.692 26.96 206.732 26.96C205.772 26.96 204.879 27.1733 204.052 27.6C203.252 28 202.612 28.6 202.132 29.4C201.652 30.2 201.412 31.1867 201.412 32.36C201.412 33.48 201.652 34.44 202.132 35.24C202.612 36.0133 203.252 36.6133 204.052 37.04C204.852 37.44 205.745 37.64 206.732 37.64ZM221.856 24.04H225.696V44H221.856V24.04ZM233.296 23.64C234.416 23.64 235.429 23.8 236.336 24.12C237.243 24.44 238.016 24.92 238.656 25.56C239.296 26.1733 239.789 26.9467 240.136 27.88C240.509 28.7867 240.696 29.8267 240.696 31V44H236.896V31.84C236.896 30.2667 236.509 29.0933 235.736 28.32C234.989 27.52 233.843 27.12 232.296 27.12C231.096 27.12 230.003 27.4 229.016 27.96C228.029 28.52 227.216 29.2667 226.576 30.2C225.963 31.1067 225.589 32.1333 225.456 33.28L225.416 31.08C225.549 30.0133 225.829 29.0267 226.256 28.12C226.709 27.2133 227.269 26.4267 227.936 25.76C228.629 25.0667 229.429 24.5467 230.336 24.2C231.243 23.8267 232.229 23.64 233.296 23.64ZM247.936 23.64C249.056 23.64 250.069 23.8 250.976 24.12C251.883 24.44 252.656 24.92 253.296 25.56C253.936 26.1733 254.429 26.9467 254.776 27.88C255.149 28.7867 255.336 29.8267 255.336 31V44H251.536V31.84C251.536 30.2667 251.149 29.0933 250.376 28.32C249.629 27.52 248.483 27.12 246.936 27.12C245.736 27.12 244.643 27.4 243.656 27.96C242.669 28.52 241.856 29.2667 241.216 30.2C240.603 31.1067 240.229 32.1333 240.096 33.28L240.056 31.04C240.189 29.9733 240.469 29 240.896 28.12C241.349 27.2133 241.923 26.4267 242.616 25.76C243.309 25.0667 244.109 24.5467 245.016 24.2C245.923 23.8267 246.896 23.64 247.936 23.64ZM268.612 44.4C266.905 44.4 265.345 43.96 263.932 43.08C262.518 42.2 261.398 40.9867 260.572 39.44C259.745 37.8667 259.332 36.0667 259.332 34.04C259.332 32.0133 259.745 30.2267 260.572 28.68C261.425 27.1067 262.585 25.88 264.052 25C265.518 24.0933 267.158 23.64 268.972 23.64C270.972 23.64 272.518 24.1067 273.612 25.04C274.732 25.9733 275.505 27.2267 275.932 28.8C276.385 30.3733 276.612 32.12 276.612 34.04C276.612 35.1067 276.478 36.24 276.212 37.44C275.945 38.64 275.518 39.7733 274.932 40.84C274.345 41.9067 273.532 42.7733 272.492 43.44C271.452 44.08 270.158 44.4 268.612 44.4ZM269.692 41.08C271.105 41.08 272.292 40.7733 273.252 40.16C274.238 39.52 274.972 38.6667 275.452 37.6C275.932 36.5333 276.172 35.3467 276.172 34.04C276.172 32.6267 275.918 31.3867 275.412 30.32C274.932 29.2533 274.198 28.4267 273.212 27.84C272.252 27.2533 271.078 26.96 269.692 26.96C267.612 26.96 265.998 27.6267 264.852 28.96C263.732 30.2933 263.172 31.9867 263.172 34.04C263.172 35.4267 263.452 36.6533 264.012 37.72C264.572 38.76 265.332 39.5867 266.292 40.2C267.278 40.7867 268.412 41.08 269.692 41.08ZM276.172 24.04H280.012V44H276.492C276.492 44 276.465 43.76 276.412 43.28C276.358 42.7733 276.305 42.1733 276.252 41.48C276.198 40.7867 276.172 40.1733 276.172 39.64V24.04ZM289.62 15.8V19.92H284.86V15.8H289.62ZM285.34 24.04H289.14V44H285.34V24.04ZM294.951 16.04H298.791V44H294.951V16.04ZM309.038 39.88V44H304.278V39.88H309.038ZM333.252 36.4C333.092 38.0533 332.559 39.4933 331.652 40.72C330.772 41.92 329.612 42.84 328.172 43.48C326.732 44.12 325.132 44.44 323.372 44.44C321.425 44.44 319.639 44.04 318.012 43.24C316.385 42.4133 315.079 41.2267 314.092 39.68C313.132 38.1067 312.652 36.24 312.652 34.08C312.652 31.8933 313.132 30.0267 314.092 28.48C315.079 26.9067 316.385 25.7067 318.012 24.88C319.639 24.0533 321.425 23.64 323.372 23.64C325.132 23.64 326.719 23.96 328.132 24.6C329.545 25.24 330.705 26.16 331.612 27.36C332.519 28.5333 333.065 29.9467 333.252 31.6H329.772C329.319 30.16 328.505 29.0267 327.332 28.2C326.185 27.3467 324.865 26.92 323.372 26.92C322.145 26.92 320.999 27.2 319.932 27.76C318.892 28.32 318.052 29.1333 317.412 30.2C316.799 31.24 316.492 32.5333 316.492 34.08C316.492 35.5733 316.799 36.8533 317.412 37.92C318.052 38.96 318.892 39.76 319.932 40.32C320.972 40.8533 322.119 41.12 323.372 41.12C325.079 41.12 326.465 40.7067 327.532 39.88C328.599 39.0533 329.359 37.8933 329.812 36.4H333.252ZM346.887 44.44C344.94 44.44 343.153 44.0267 341.527 43.2C339.9 42.3733 338.607 41.1867 337.647 39.64C336.687 38.0933 336.207 36.24 336.207 34.08C336.207 31.8933 336.687 30.0267 337.647 28.48C338.607 26.9067 339.9 25.7067 341.527 24.88C343.153 24.0533 344.94 23.64 346.887 23.64C348.833 23.64 350.607 24.0533 352.207 24.88C353.807 25.7067 355.087 26.9067 356.047 28.48C357.007 30.0267 357.487 31.8933 357.487 34.08C357.487 36.24 357.007 38.0933 356.047 39.64C355.087 41.1867 353.807 42.3733 352.207 43.2C350.607 44.0267 348.833 44.44 346.887 44.44ZM346.887 41.12C348.087 41.12 349.193 40.8533 350.207 40.32C351.247 39.76 352.073 38.96 352.687 37.92C353.327 36.8533 353.647 35.5733 353.647 34.08C353.647 32.56 353.327 31.2667 352.687 30.2C352.073 29.1333 351.247 28.32 350.207 27.76C349.193 27.2 348.087 26.92 346.887 26.92C345.687 26.92 344.567 27.2 343.527 27.76C342.487 28.2933 341.647 29.0933 341.007 30.16C340.367 31.2267 340.047 32.5333 340.047 34.08C340.047 35.5733 340.353 36.8533 340.967 37.92C341.607 38.96 342.447 39.76 343.487 40.32C344.527 40.8533 345.66 41.12 346.887 41.12ZM361.504 24.04H365.344V44H361.504V24.04ZM372.944 23.64C374.064 23.64 375.078 23.8 375.984 24.12C376.891 24.44 377.664 24.92 378.304 25.56C378.944 26.1733 379.438 26.9467 379.784 27.88C380.158 28.7867 380.344 29.8267 380.344 31V44H376.544V31.84C376.544 30.2667 376.158 29.0933 375.384 28.32C374.638 27.52 373.491 27.12 371.944 27.12C370.744 27.12 369.651 27.4 368.664 27.96C367.678 28.52 366.864 29.2667 366.224 30.2C365.611 31.1067 365.238 32.1333 365.104 33.28L365.064 31.08C365.198 30.0133 365.478 29.0267 365.904 28.12C366.358 27.2133 366.918 26.4267 367.584 25.76C368.278 25.0667 369.078 24.5467 369.984 24.2C370.891 23.8267 371.878 23.64 372.944 23.64ZM387.584 23.64C388.704 23.64 389.718 23.8 390.624 24.12C391.531 24.44 392.304 24.92 392.944 25.56C393.584 26.1733 394.078 26.9467 394.424 27.88C394.798 28.7867 394.984 29.8267 394.984 31V44H391.184V31.84C391.184 30.2667 390.798 29.0933 390.024 28.32C389.278 27.52 388.131 27.12 386.584 27.12C385.384 27.12 384.291 27.4 383.304 27.96C382.318 28.52 381.504 29.2667 380.864 30.2C380.251 31.1067 379.878 32.1333 379.744 33.28L379.704 31.04C379.838 29.9733 380.118 29 380.544 28.12C380.998 27.2133 381.571 26.4267 382.264 25.76C382.958 25.0667 383.758 24.5467 384.664 24.2C385.571 23.8267 386.544 23.64 387.584 23.64Z" fill="#1E1E1E"/>
<path d="M398 60H0V64H398V60Z" fill="#262626" mask="url(#path-1-inside-1_33_134)"/>
</svg>
