<svg width="305" height="59" viewBox="0 0 305 59" fill="none" xmlns="http://www.w3.org/2000/svg">
<path d="M9.24 35.696V30.192H31.512V35.696H9.24ZM0.216 46L17.176 4.464H23.704L40.792 46H34.136L19.288 8.496H21.592L6.808 46H0.216ZM60.0945 14.064H66.2385V46H60.0945V14.064ZM78.3985 13.424C80.1905 13.424 81.8118 13.68 83.2625 14.192C84.7132 14.704 85.9505 15.472 86.9745 16.496C87.9985 17.4773 88.7878 18.7147 89.3425 20.208C89.9398 21.6587 90.2385 23.3227 90.2385 25.2V46H84.1585V26.544C84.1585 24.0267 83.5398 22.1493 82.3025 20.912C81.1078 19.632 79.2732 18.992 76.7985 18.992C74.8785 18.992 73.1292 19.44 71.5505 20.336C69.9718 21.232 68.6705 22.4267 67.6465 23.92C66.6652 25.3707 66.0678 27.0133 65.8545 28.848L65.7905 25.328C66.0038 23.6213 66.4518 22.0427 67.1345 20.592C67.8598 19.1413 68.7558 17.8827 69.8225 16.816C70.9318 15.7067 72.2118 14.8747 73.6625 14.32C75.1132 13.7227 76.6918 13.424 78.3985 13.424ZM101.823 13.424C103.615 13.424 105.236 13.68 106.687 14.192C108.137 14.704 109.375 15.472 110.399 16.496C111.423 17.4773 112.212 18.7147 112.767 20.208C113.364 21.6587 113.663 23.3227 113.663 25.2V46H107.583V26.544C107.583 24.0267 106.964 22.1493 105.727 20.912C104.532 19.632 102.697 18.992 100.223 18.992C98.3025 18.992 96.5532 19.44 94.9745 20.336C93.3958 21.232 92.0945 22.4267 91.0705 23.92C90.0892 25.3707 89.4918 27.0133 89.2785 28.848L89.2145 25.264C89.4278 23.5573 89.8758 22 90.5585 20.592C91.2838 19.1413 92.2012 17.8827 93.3105 16.816C94.4198 15.7067 95.6998 14.8747 97.1505 14.32C98.6012 13.7227 100.159 13.424 101.823 13.424ZM146.36 35.632H152.184C151.842 37.7227 151.032 39.6 149.752 41.264C148.472 42.928 146.786 44.2507 144.696 45.232C142.605 46.2133 140.152 46.704 137.336 46.704C134.008 46.704 131.042 46 128.44 44.592C125.837 43.184 123.789 41.2427 122.296 38.768C120.802 36.2933 120.056 33.4133 120.056 30.128C120.056 26.8 120.781 23.8987 122.232 21.424C123.682 18.9067 125.688 16.944 128.248 15.536C130.808 14.128 133.73 13.424 137.016 13.424C140.472 13.424 143.373 14.1067 145.72 15.472C148.066 16.8373 149.794 18.864 150.904 21.552C152.056 24.1973 152.525 27.504 152.312 31.472H126.135C126.349 33.392 126.925 35.0987 127.864 36.592C128.845 38.0853 130.125 39.2587 131.704 40.112C133.325 40.9653 135.181 41.392 137.272 41.392C139.618 41.392 141.581 40.8587 143.16 39.792C144.738 38.7253 145.805 37.3387 146.36 35.632ZM137.08 18.672C134.306 18.672 132.002 19.4187 130.168 20.912C128.333 22.3627 127.117 24.304 126.52 26.736H146.168C145.997 24.1333 145.058 22.1493 143.352 20.784C141.645 19.376 139.554 18.672 137.08 18.672ZM183.422 35.632H189.246C188.905 37.7227 188.094 39.6 186.814 41.264C185.534 42.928 183.849 44.2507 181.758 45.232C179.667 46.2133 177.214 46.704 174.398 46.704C171.07 46.704 168.105 46 165.502 44.592C162.899 43.184 160.851 41.2427 159.358 38.768C157.865 36.2933 157.118 33.4133 157.118 30.128C157.118 26.8 157.843 23.8987 159.294 21.424C160.745 18.9067 162.75 16.944 165.31 15.536C167.87 14.128 170.793 13.424 174.078 13.424C177.534 13.424 180.435 14.1067 182.782 15.472C185.129 16.8373 186.857 18.864 187.966 21.552C189.118 24.1973 189.587 27.504 189.374 31.472H163.198C163.411 33.392 163.987 35.0987 164.926 36.592C165.907 38.0853 167.187 39.2587 168.766 40.112C170.387 40.9653 172.243 41.392 174.334 41.392C176.681 41.392 178.643 40.8587 180.222 39.792C181.801 38.7253 182.867 37.3387 183.422 35.632ZM174.142 18.672C171.369 18.672 169.065 19.4187 167.23 20.912C165.395 22.3627 164.179 24.304 163.582 26.736H183.23C183.059 24.1333 182.121 22.1493 180.414 20.784C178.707 19.376 176.617 18.672 174.142 18.672ZM193.042 14.064H213.714V19.376H193.042V14.064ZM200.338 5.616H206.418V46H200.338V5.616ZM226.892 0.879997V7.472H219.276V0.879997H226.892ZM220.044 14.064H226.124V46H220.044V14.064ZM234.782 14.064H240.926V46H234.782V14.064ZM253.086 13.424C254.878 13.424 256.499 13.68 257.95 14.192C259.401 14.704 260.638 15.472 261.662 16.496C262.686 17.4773 263.475 18.7147 264.03 20.208C264.627 21.6587 264.926 23.3227 264.926 25.2V46H258.846V26.544C258.846 24.0267 258.227 22.1493 256.99 20.912C255.795 19.632 253.961 18.992 251.486 18.992C249.566 18.992 247.817 19.44 246.238 20.336C244.659 21.232 243.358 22.4267 242.334 23.92C241.353 25.3707 240.755 27.0133 240.542 28.848L240.478 25.328C240.691 23.6213 241.139 22.0427 241.822 20.592C242.547 19.1413 243.443 17.8827 244.51 16.816C245.619 15.7067 246.899 14.8747 248.35 14.32C249.801 13.7227 251.379 13.424 253.086 13.424ZM285.833 41.008C283.188 41.008 280.756 40.4747 278.538 39.408C276.319 38.3413 274.548 36.784 273.226 34.736C271.946 32.688 271.306 30.2133 271.306 27.312C271.306 24.4533 271.946 22 273.226 19.952C274.506 17.8613 276.234 16.2613 278.41 15.152C280.628 14 283.103 13.424 285.833 13.424C286.644 13.424 287.412 13.488 288.138 13.616C288.863 13.7013 289.567 13.8507 290.25 14.064H304.201V19.824C302.282 19.824 300.34 19.504 298.378 18.864C296.458 18.224 294.772 17.5413 293.322 16.816L293.13 16.496C294.58 17.264 295.839 18.2027 296.906 19.312C297.972 20.3787 298.783 21.5947 299.338 22.96C299.935 24.2827 300.234 25.776 300.234 27.44C300.234 30.256 299.594 32.688 298.314 34.736C297.076 36.784 295.348 38.3413 293.13 39.408C290.954 40.4747 288.522 41.008 285.833 41.008ZM295.626 58.928V57.456C295.626 55.28 295.028 53.7227 293.834 52.784C292.639 51.8453 290.89 51.376 288.586 51.376H281.098C279.519 51.376 278.175 51.248 277.066 50.992C275.956 50.736 275.039 50.352 274.314 49.84C273.588 49.3707 273.055 48.7733 272.714 48.048C272.372 47.3653 272.202 46.5973 272.202 45.744C272.202 44.08 272.714 42.8213 273.738 41.968C274.762 41.1147 276.063 40.5813 277.642 40.368C279.22 40.112 280.82 40.0907 282.442 40.304L285.833 41.008C283.402 41.136 281.546 41.3707 280.266 41.712C278.986 42.0533 278.345 42.7787 278.345 43.888C278.345 44.528 278.602 45.04 279.114 45.424C279.626 45.808 280.351 46 281.29 46H289.098C291.53 46 293.684 46.2987 295.562 46.896C297.482 47.536 298.975 48.5813 300.042 50.032C301.151 51.5253 301.706 53.552 301.706 56.112V58.928H295.626ZM285.833 35.824C287.37 35.824 288.756 35.504 289.994 34.864C291.274 34.1813 292.298 33.2213 293.066 31.984C293.834 30.704 294.218 29.168 294.218 27.376C294.218 25.5413 293.834 23.984 293.066 22.704C292.34 21.3813 291.338 20.4 290.058 19.76C288.778 19.0773 287.37 18.736 285.833 18.736C284.298 18.736 282.868 19.0773 281.546 19.76C280.266 20.4 279.242 21.36 278.474 22.64C277.706 23.92 277.322 25.4987 277.322 27.376C277.322 29.168 277.706 30.704 278.474 31.984C279.242 33.2213 280.266 34.1813 281.546 34.864C282.826 35.504 284.255 35.824 285.833 35.824Z" fill="#1E1E1E"/>
</svg>
