<svg width="315" height="34" viewBox="0 0 315 34" fill="none" xmlns="http://www.w3.org/2000/svg">
<path d="M2.98023e-08 14.64H15.64V17.76H2.98023e-08V14.64ZM9.44 8.88V23.52H6.2V8.88H9.44ZM18.6484 10.48V7.04H27.4484V27H23.6084V10.48H18.6484ZM50.2284 23.88C48.6551 23.88 47.2018 23.52 45.8684 22.8C44.5618 22.08 43.5218 21.0667 42.7484 19.76C41.9751 18.4533 41.6018 16.92 41.6284 15.16C41.6551 13.4 42.0818 11.88 42.9084 10.6C43.7618 9.32 44.9218 8.33333 46.3884 7.64C47.8818 6.92 49.5751 6.56 51.4684 6.56C53.3618 6.56 55.0418 6.90667 56.5084 7.6C58.0018 8.29333 59.1618 9.28 59.9884 10.56C60.8151 11.8133 61.2151 13.3333 61.1884 15.12C61.1884 15.76 61.0951 16.44 60.9084 17.16C60.7484 17.88 60.4551 18.68 60.0284 19.56C59.9751 19.6933 59.8018 20.04 59.5084 20.6C59.2151 21.16 58.8418 21.8533 58.3884 22.68C57.9618 23.5067 57.4951 24.3867 56.9884 25.32C56.5084 26.2267 56.0284 27.1333 55.5484 28.04C55.0684 28.9733 54.6151 29.8 54.1884 30.52C53.7884 31.2667 53.4684 31.8667 53.2284 32.32C52.9884 32.7733 52.8684 33 52.8684 33H48.4684L58.1884 16.6L59.5084 15.52C58.7884 16.7733 58.0818 17.92 57.3884 18.96C56.6951 19.9733 55.9884 20.8533 55.2684 21.6C54.5751 22.32 53.8151 22.88 52.9884 23.28C52.1618 23.68 51.2418 23.88 50.2284 23.88ZM51.4684 10C49.7884 10 48.3751 10.4533 47.2284 11.36C46.1084 12.24 45.5218 13.5333 45.4684 15.24C45.4418 16.8933 45.9751 18.1867 47.0684 19.12C48.1618 20.0533 49.5484 20.52 51.2284 20.52C53.0951 20.52 54.5751 20.0133 55.6684 19C56.7618 17.96 57.3218 16.6933 57.3484 15.2C57.3751 14.0533 57.1218 13.1067 56.5884 12.36C56.0551 11.5867 55.3484 11 54.4684 10.6C53.5884 10.2 52.5884 10 51.4684 10ZM73.295 13.8C71.615 13.8 70.135 13.5867 68.855 13.16C67.575 12.7333 66.575 12.0667 65.855 11.16C65.135 10.2533 64.775 9.08 64.775 7.64C64.775 6.30667 65.1083 5.12 65.775 4.08C66.4417 3.01333 67.415 2.17333 68.695 1.56C69.975 0.919999 71.5083 0.599999 73.295 0.599999C75.135 0.599999 76.6817 0.919999 77.935 1.56C79.215 2.17333 80.1883 3.01333 80.855 4.08C81.5217 5.12 81.855 6.30667 81.855 7.64C81.855 9.08 81.495 10.2533 80.775 11.16C80.055 12.0667 79.055 12.7333 77.775 13.16C76.495 13.5867 75.0017 13.8 73.295 13.8ZM73.295 11.84C74.335 11.84 75.2017 11.6667 75.895 11.32C76.5883 10.9733 77.1083 10.5067 77.455 9.92C77.8283 9.30667 78.015 8.61333 78.015 7.84C78.015 7.06667 77.8283 6.4 77.455 5.84C77.1083 5.25333 76.5883 4.8 75.895 4.48C75.2017 4.16 74.335 4 73.295 4C72.3083 4 71.4683 4.16 70.775 4.48C70.0817 4.8 69.5483 5.25333 69.175 5.84C68.8283 6.4 68.655 7.06667 68.655 7.84C68.655 8.61333 68.8283 9.30667 69.175 9.92C69.5483 10.5067 70.0817 10.9733 70.775 11.32C71.4683 11.6667 72.3083 11.84 73.295 11.84ZM73.295 27.44C71.2683 27.44 69.5483 27.1067 68.135 26.44C66.7483 25.7467 65.6817 24.8267 64.935 23.68C64.215 22.5333 63.855 21.2667 63.855 19.88C63.855 18.28 64.255 16.96 65.055 15.92C65.855 14.88 66.975 14.1067 68.415 13.6C69.855 13.0933 71.4817 12.84 73.295 12.84C75.1617 12.84 76.8017 13.0933 78.215 13.6C79.6283 14.1067 80.735 14.88 81.535 15.92C82.3617 16.96 82.775 18.28 82.775 19.88C82.775 21.2667 82.4017 22.5333 81.655 23.68C80.935 24.8267 79.8683 25.7467 78.455 26.44C77.0683 27.1067 75.3483 27.44 73.295 27.44ZM73.295 24C74.575 24 75.6283 23.8267 76.455 23.48C77.2817 23.1067 77.895 22.5867 78.295 21.92C78.7217 21.2533 78.935 20.52 78.935 19.72C78.935 18.84 78.7217 18.0667 78.295 17.4C77.895 16.7333 77.2817 16.2133 76.455 15.84C75.6283 15.44 74.575 15.24 73.295 15.24C72.0417 15.24 71.0017 15.44 70.175 15.84C69.3483 16.2133 68.735 16.7333 68.335 17.4C67.935 18.0667 67.735 18.84 67.735 19.72C67.735 20.52 67.935 21.2533 68.335 21.92C68.735 22.5867 69.3483 23.1067 70.175 23.48C71.0017 23.8267 72.0417 24 73.295 24ZM85.89 10.48V7.04H103.49V10.48L92.29 33H88.01L100.41 8.96L101.29 10.48H85.89ZM126.15 27.44C124.203 27.44 122.416 27.0267 120.79 26.2C119.163 25.3733 117.87 24.1867 116.91 22.64C115.95 21.0933 115.47 19.24 115.47 17.08C115.47 14.8933 115.95 13.0267 116.91 11.48C117.87 9.90667 119.163 8.70667 120.79 7.88C122.416 7.05333 124.203 6.64 126.15 6.64C128.096 6.64 129.87 7.05333 131.47 7.88C133.07 8.70667 134.35 9.90667 135.31 11.48C136.27 13.0267 136.75 14.8933 136.75 17.08C136.75 19.24 136.27 21.0933 135.31 22.64C134.35 24.1867 133.07 25.3733 131.47 26.2C129.87 27.0267 128.096 27.44 126.15 27.44ZM126.15 24.08C127.323 24.08 128.416 23.8133 129.43 23.28C130.47 22.72 131.31 21.92 131.95 20.88C132.59 19.8133 132.91 18.5467 132.91 17.08C132.91 15.5867 132.59 14.32 131.95 13.28C131.31 12.2133 130.47 11.4 129.43 10.84C128.416 10.2533 127.323 9.96 126.15 9.96C124.976 9.96 123.856 10.24 122.79 10.8C121.75 11.36 120.91 12.1733 120.27 13.24C119.63 14.28 119.31 15.56 119.31 17.08C119.31 18.5467 119.63 19.8133 120.27 20.88C120.91 21.92 121.75 22.72 122.79 23.28C123.83 23.8133 124.95 24.08 126.15 24.08ZM151.501 27.44C149.555 27.44 147.768 27.0267 146.141 26.2C144.515 25.3733 143.221 24.1867 142.261 22.64C141.301 21.0933 140.821 19.24 140.821 17.08C140.821 14.8933 141.301 13.0267 142.261 11.48C143.221 9.90667 144.515 8.70667 146.141 7.88C147.768 7.05333 149.555 6.64 151.501 6.64C153.448 6.64 155.221 7.05333 156.821 7.88C158.421 8.70667 159.701 9.90667 160.661 11.48C161.621 13.0267 162.101 14.8933 162.101 17.08C162.101 19.24 161.621 21.0933 160.661 22.64C159.701 24.1867 158.421 25.3733 156.821 26.2C155.221 27.0267 153.448 27.44 151.501 27.44ZM151.501 24.08C152.675 24.08 153.768 23.8133 154.781 23.28C155.821 22.72 156.661 21.92 157.301 20.88C157.941 19.8133 158.261 18.5467 158.261 17.08C158.261 15.5867 157.941 14.32 157.301 13.28C156.661 12.2133 155.821 11.4 154.781 10.84C153.768 10.2533 152.675 9.96 151.501 9.96C150.328 9.96 149.208 10.24 148.141 10.8C147.101 11.36 146.261 12.1733 145.621 13.24C144.981 14.28 144.661 15.56 144.661 17.08C144.661 18.5467 144.981 19.8133 145.621 20.88C146.261 21.92 147.101 22.72 148.141 23.28C149.181 23.8133 150.301 24.08 151.501 24.08ZM176.853 27.44C174.906 27.44 173.119 27.0267 171.493 26.2C169.866 25.3733 168.573 24.1867 167.613 22.64C166.653 21.0933 166.173 19.24 166.173 17.08C166.173 14.8933 166.653 13.0267 167.613 11.48C168.573 9.90667 169.866 8.70667 171.493 7.88C173.119 7.05333 174.906 6.64 176.853 6.64C178.799 6.64 180.573 7.05333 182.173 7.88C183.773 8.70667 185.053 9.90667 186.013 11.48C186.973 13.0267 187.453 14.8933 187.453 17.08C187.453 19.24 186.973 21.0933 186.013 22.64C185.053 24.1867 183.773 25.3733 182.173 26.2C180.573 27.0267 178.799 27.44 176.853 27.44ZM176.853 24.08C178.026 24.08 179.119 23.8133 180.133 23.28C181.173 22.72 182.013 21.92 182.653 20.88C183.293 19.8133 183.613 18.5467 183.613 17.08C183.613 15.5867 183.293 14.32 182.653 13.28C182.013 12.2133 181.173 11.4 180.133 10.84C179.119 10.2533 178.026 9.96 176.853 9.96C175.679 9.96 174.559 10.24 173.493 10.8C172.453 11.36 171.613 12.1733 170.973 13.24C170.333 14.28 170.013 15.56 170.013 17.08C170.013 18.5467 170.333 19.8133 170.973 20.88C171.613 21.92 172.453 22.72 173.493 23.28C174.533 23.8133 175.653 24.08 176.853 24.08ZM192.684 14.56H204.844V17.8H192.684V14.56ZM221.079 16.32C222.306 16.32 223.426 16.52 224.439 16.92C225.452 17.2933 226.332 17.8533 227.079 18.6C227.826 19.32 228.399 20.2133 228.799 21.28C229.226 22.32 229.439 23.5067 229.439 24.84C229.439 26.6267 229.026 28.16 228.199 29.44C227.399 30.72 226.292 31.7067 224.879 32.4C223.492 33.0933 221.932 33.44 220.199 33.44C218.892 33.44 217.666 33.2533 216.519 32.88C215.372 32.5333 214.359 32.0133 213.479 31.32C212.599 30.6267 211.879 29.7867 211.319 28.8C210.786 27.84 210.479 26.7333 210.399 25.48H214.159C214.266 26.44 214.572 27.2533 215.079 27.92C215.612 28.6133 216.306 29.12 217.159 29.44C218.039 29.7867 219.026 29.96 220.119 29.96C220.839 29.96 221.532 29.8533 222.199 29.64C222.866 29.4267 223.452 29.1067 223.959 28.68C224.492 28.2533 224.906 27.72 225.199 27.08C225.492 26.44 225.639 25.6933 225.639 24.84C225.639 23.9867 225.492 23.24 225.199 22.6C224.932 21.96 224.559 21.4267 224.079 21C223.599 20.5467 223.026 20.2133 222.359 20C221.719 19.76 221.039 19.64 220.319 19.64C219.599 19.64 218.866 19.7333 218.119 19.92C217.399 20.08 216.732 20.3867 216.119 20.84C215.532 21.2933 215.026 21.92 214.599 22.72L211.159 22.04L212.079 7H227.199V10.44H215.679L214.959 21.24L214.599 20.96C214.892 19.8933 215.372 19.0267 216.039 18.36C216.706 17.6667 217.479 17.16 218.359 16.84C219.239 16.4933 220.146 16.32 221.079 16.32ZM243.562 10.12C245.216 10.12 246.696 10.48 248.002 11.2C249.309 11.8933 250.336 12.8933 251.082 14.2C251.856 15.5067 252.229 17.04 252.202 18.8C252.176 20.56 251.736 22.0933 250.882 23.4C250.056 24.68 248.909 25.68 247.442 26.4C246.002 27.0933 244.349 27.44 242.482 27.44C240.616 27.44 238.922 27.1067 237.402 26.44C235.909 25.7467 234.736 24.76 233.882 23.48C233.056 22.2 232.656 20.6667 232.682 18.88C232.709 18.2667 232.789 17.6 232.922 16.88C233.082 16.1333 233.362 15.3333 233.762 14.48C233.842 14.32 234.029 13.9733 234.322 13.44C234.616 12.88 234.976 12.1867 235.402 11.36C235.856 10.5333 236.336 9.66667 236.842 8.76C237.349 7.82667 237.842 6.90667 238.322 6C238.802 5.06667 239.242 4.24 239.642 3.52C240.069 2.77333 240.402 2.17333 240.642 1.72C240.882 1.26666 241.002 1.04 241.002 1.04H245.402L235.682 17.4L234.402 18.52C235.122 17.2667 235.816 16.12 236.482 15.08C237.149 14.04 237.829 13.16 238.522 12.44C239.242 11.6933 240.002 11.12 240.802 10.72C241.629 10.32 242.549 10.12 243.562 10.12ZM242.402 24C244.029 24 245.416 23.5467 246.562 22.64C247.709 21.7333 248.296 20.44 248.322 18.76C248.349 17.1067 247.816 15.8133 246.722 14.88C245.629 13.9467 244.269 13.48 242.642 13.48C240.802 13.48 239.322 14 238.202 15.04C237.109 16.0533 236.549 17.3067 236.522 18.8C236.496 20.48 237.056 21.7733 238.202 22.68C239.349 23.56 240.749 24 242.402 24ZM256.825 14.56H268.985V17.8H256.825V14.56ZM290.1 6.84V32.8H286.3V10.88L287.3 11.24L277.38 25.2L276.66 23.84H286.94V27.12H274.02V23.84L286.3 6.84H290.1ZM289.46 27.12V23.84H294.06V27.12H289.46ZM306.613 19.48L306.653 19.28C307.826 19.36 308.906 19.52 309.893 19.76C310.906 20 311.773 20.3733 312.493 20.88C313.239 21.3867 313.813 22.0533 314.213 22.88C314.639 23.7067 314.853 24.72 314.853 25.92C314.853 27.3333 314.479 28.6 313.733 29.72C312.986 30.8667 311.946 31.7733 310.613 32.44C309.279 33.1067 307.719 33.44 305.933 33.44C304.226 33.44 302.693 33.0933 301.333 32.4C299.999 31.7333 298.959 30.8133 298.213 29.64C297.493 28.4667 297.186 27.16 297.293 25.72H300.812C300.812 26.5467 301.013 27.28 301.413 27.92C301.839 28.5867 302.426 29.1067 303.173 29.48C303.946 29.8533 304.866 30.04 305.933 30.04C307.479 30.04 308.693 29.64 309.573 28.84C310.479 28.04 310.933 26.9467 310.933 25.56C310.933 24.2 310.439 23.1467 309.453 22.4C308.466 21.6267 307.093 21.24 305.333 21.24H302.733V17.96H305.333C306.506 17.96 307.479 17.8 308.253 17.48C309.026 17.16 309.599 16.7067 309.973 16.12C310.346 15.5067 310.533 14.7867 310.533 13.96C310.533 12.7867 310.146 11.84 309.373 11.12C308.626 10.4 307.466 10.04 305.893 10.04C304.506 10.04 303.373 10.4133 302.493 11.16C301.613 11.88 301.159 12.8267 301.133 14H297.653C297.546 12.9333 297.693 11.96 298.093 11.08C298.493 10.1733 299.079 9.38667 299.853 8.72C300.626 8.02667 301.533 7.50667 302.573 7.16C303.613 6.78667 304.719 6.6 305.893 6.6C307.626 6.6 309.133 6.90667 310.413 7.52C311.693 8.13333 312.679 8.97333 313.373 10.04C314.066 11.1067 314.413 12.32 314.413 13.68C314.413 14.8 314.213 15.7333 313.813 16.48C313.439 17.2267 312.906 17.8133 312.213 18.24C311.519 18.6667 310.693 18.9733 309.733 19.16C308.773 19.3467 307.733 19.4533 306.613 19.48Z" fill="#1E1E1E"/>
</svg>
