<svg width="267" height="46" viewBox="0 0 267 46" fill="none" xmlns="http://www.w3.org/2000/svg">
<path d="M0.0880001 3.464H36.504V8.968H0.0880001V3.464ZM15.192 8.328H21.4V45H15.192V8.328ZM37.2195 13.064H43.3635V45H37.2195V13.064ZM54.1795 18.504C51.9608 18.504 50.0622 19.016 48.4835 20.04C46.9475 21.064 45.7102 22.3227 44.7715 23.816C43.8755 25.3093 43.2782 26.7387 42.9795 28.104L42.9155 24.456C42.9582 24.0293 43.0648 23.368 43.2355 22.472C43.4488 21.5333 43.8115 20.488 44.3235 19.336C44.8355 18.184 45.5182 17.096 46.3715 16.072C47.2248 15.0053 48.2915 14.1307 49.5715 13.448C50.8515 12.7653 52.3875 12.424 54.1795 12.424V18.504ZM89.8635 45H83.7835V13.064H89.8635V45ZM84.1035 29.96L84.1675 31.88C84.1248 32.4347 83.9755 33.2667 83.7195 34.376C83.5062 35.4427 83.1222 36.616 82.5675 37.896C82.0555 39.176 81.3302 40.4133 80.3915 41.608C79.4955 42.8027 78.3435 43.784 76.9355 44.552C75.5275 45.32 73.8208 45.704 71.8155 45.704C70.4502 45.704 69.0422 45.512 67.5915 45.128C66.1835 44.744 64.8822 44.104 63.6875 43.208C62.4928 42.312 61.5328 41.096 60.8075 39.56C60.0822 37.9813 59.7195 36.0187 59.7195 33.672V13.064H65.8635V32.392C65.8635 34.3547 66.1622 35.8907 66.7595 37C67.3995 38.1093 68.2955 38.8987 69.4475 39.368C70.5995 39.8373 71.9008 40.072 73.3515 40.072C75.5702 40.072 77.4262 39.5387 78.9195 38.472C80.4555 37.3627 81.6502 36.04 82.5035 34.504C83.3568 32.9253 83.8902 31.4107 84.1035 29.96ZM122.547 34.632H128.371C128.03 36.7227 127.219 38.6 125.939 40.264C124.659 41.928 122.974 43.2507 120.883 44.232C118.792 45.2133 116.339 45.704 113.523 45.704C110.195 45.704 107.23 45 104.627 43.592C102.024 42.184 99.9763 40.2427 98.483 37.768C96.9897 35.2933 96.243 32.4133 96.243 29.128C96.243 25.8 96.9683 22.8987 98.419 20.424C99.8697 17.9067 101.875 15.944 104.435 14.536C106.995 13.128 109.918 12.424 113.203 12.424C116.659 12.424 119.56 13.1067 121.907 14.472C124.254 15.8373 125.982 17.864 127.091 20.552C128.243 23.1973 128.712 26.504 128.499 30.472H102.323C102.536 32.392 103.112 34.0987 104.051 35.592C105.032 37.0853 106.312 38.2587 107.891 39.112C109.512 39.9653 111.368 40.392 113.459 40.392C115.806 40.392 117.768 39.8587 119.347 38.792C120.926 37.7253 121.992 36.3387 122.547 34.632ZM113.267 17.672C110.494 17.672 108.19 18.4187 106.355 19.912C104.52 21.3627 103.304 23.304 102.707 25.736H122.355C122.184 23.1333 121.246 21.1493 119.539 19.784C117.832 18.376 115.742 17.672 113.267 17.672ZM149.672 0.263996H155.816V45H149.672V0.263996ZM180.019 45.704C176.904 45.704 174.045 45.0427 171.443 43.72C168.84 42.3973 166.771 40.4987 165.235 38.024C163.699 35.5493 162.931 32.584 162.931 29.128C162.931 25.6293 163.699 22.6427 165.235 20.168C166.771 17.6507 168.84 15.7307 171.443 14.408C174.045 13.0853 176.904 12.424 180.019 12.424C183.133 12.424 185.971 13.0853 188.531 14.408C191.091 15.7307 193.139 17.6507 194.675 20.168C196.211 22.6427 196.979 25.6293 196.979 29.128C196.979 32.584 196.211 35.5493 194.675 38.024C193.139 40.4987 191.091 42.3973 188.531 43.72C185.971 45.0427 183.133 45.704 180.019 45.704ZM180.019 40.392C181.939 40.392 183.709 39.9653 185.331 39.112C186.995 38.216 188.317 36.936 189.299 35.272C190.323 33.5653 190.835 31.5173 190.835 29.128C190.835 26.696 190.323 24.6267 189.299 22.92C188.317 21.2133 186.995 19.912 185.331 19.016C183.709 18.12 181.939 17.672 180.019 17.672C178.099 17.672 176.307 18.12 174.643 19.016C172.979 19.8693 171.635 21.1493 170.611 22.856C169.587 24.5627 169.075 26.6533 169.075 29.128C169.075 31.5173 169.565 33.5653 170.547 35.272C171.571 36.936 172.915 38.216 174.579 39.112C176.243 39.9653 178.056 40.392 180.019 40.392ZM216.297 40.264H214.312L224.681 13.064H231.337L218.217 45H212.457L199.465 13.064H206.185L216.297 40.264ZM260.11 34.632H265.934C265.592 36.7227 264.782 38.6 263.502 40.264C262.222 41.928 260.536 43.2507 258.446 44.232C256.355 45.2133 253.902 45.704 251.086 45.704C247.758 45.704 244.792 45 242.19 43.592C239.587 42.184 237.539 40.2427 236.046 37.768C234.552 35.2933 233.806 32.4133 233.806 29.128C233.806 25.8 234.531 22.8987 235.982 20.424C237.432 17.9067 239.438 15.944 241.998 14.536C244.558 13.128 247.48 12.424 250.766 12.424C254.222 12.424 257.123 13.1067 259.47 14.472C261.816 15.8373 263.544 17.864 264.654 20.552C265.806 23.1973 266.275 26.504 266.062 30.472H239.885C240.099 32.392 240.675 34.0987 241.614 35.592C242.595 37.0853 243.875 38.2587 245.454 39.112C247.075 39.9653 248.931 40.392 251.022 40.392C253.368 40.392 255.331 39.8587 256.91 38.792C258.488 37.7253 259.555 36.3387 260.11 34.632ZM250.83 17.672C248.056 17.672 245.752 18.4187 243.918 19.912C242.083 21.3627 240.867 23.304 240.27 25.736H259.918C259.747 23.1333 258.808 21.1493 257.102 19.784C255.395 18.376 253.304 17.672 250.83 17.672Z" fill="#1E1E1E"/>
</svg>
