<svg width="74" height="71" viewBox="0 0 74 71" fill="none" xmlns="http://www.w3.org/2000/svg">
<path d="M35.5 69C54.0015 69 69 54.0015 69 35.5C69 16.9985 54.0015 2 35.5 2C16.9985 2 2 16.9985 2 35.5C2 54.0015 16.9985 69 35.5 69Z" fill="#5C8FAB" stroke="#33607A" stroke-width="4" stroke-miterlimit="10"/>
<path d="M39.5 70C58.0015 70 73 55.0015 73 36.5C73 17.9985 58.0015 3 39.5 3C20.9985 3 6 17.9985 6 36.5C6 55.0015 20.9985 70 39.5 70Z" stroke="#262626" stroke-width="2" stroke-linecap="round" stroke-linejoin="round"/>
<path d="M35 38V19" stroke="#FFAE35" stroke-width="2" stroke-linecap="round" stroke-linejoin="round"/>
<path d="M35 40H54" stroke="#FFAE35" stroke-width="2" stroke-linecap="round" stroke-linejoin="round"/>
<path d="M35 42C36.1046 42 37 41.1046 37 40C37 38.8954 36.1046 38 35 38C33.8954 38 33 38.8954 33 40C33 41.1046 33.8954 42 35 42Z" fill="#FFAE35"/>
</svg>
