<svg width="94" height="91" viewBox="0 0 94 91" fill="none" xmlns="http://www.w3.org/2000/svg">
<path d="M45.5 89C69.5244 89 89 69.5244 89 45.5C89 21.4756 69.5244 2 45.5 2C21.4756 2 2 21.4756 2 45.5C2 69.5244 21.4756 89 45.5 89Z" fill="#5C8FAB" stroke="#33607A" stroke-width="4" stroke-miterlimit="10"/>
<path d="M50 90C73.7482 90 93 70.5244 93 46.5C93 22.4756 73.7482 3 50 3C26.2518 3 7 22.4756 7 46.5C7 70.5244 26.2518 90 50 90Z" stroke="#262626" stroke-width="2" stroke-linecap="round" stroke-linejoin="round"/>
<path d="M46 48V23" stroke="#FFAE35" stroke-width="2" stroke-linecap="round" stroke-linejoin="round"/>
<path d="M45.7549 53.3684C47.2764 53.3684 48.5098 52.135 48.5098 50.6135C48.5098 49.092 47.2764 47.8586 45.7549 47.8586C44.2334 47.8586 43 49.092 43 50.6135C43 52.135 44.2334 53.3684 45.7549 53.3684Z" fill="#FFAE35"/>
</svg>
