<svg width="821" height="143" viewBox="0 0 821 143" fill="none" xmlns="http://www.w3.org/2000/svg">
<path d="M60.2414 58L41.1314 12.71H51.4214L67.5914 52.82L64.5814 52.89L79.9814 12.71H90.6914L106.091 52.89L103.081 52.82L119.251 12.71H129.331L110.431 58H99.0214L83.9014 18.73H86.8414L71.6514 58H60.2414ZM145.418 39.1V50.23H180.348V58H136.108V12.71H180.278V20.48H145.418V31.75H173.978V39.1H145.418ZM214.981 31.4H250.891V39.17H214.981V31.4ZM249.351 12.71H258.661V58H249.351V12.71ZM206.791 12.71H216.101V58H206.791V12.71ZM276.479 48.13V40.36H306.439V48.13H276.479ZM265.209 58L286.489 12.71H296.569L318.059 58H307.909L289.289 17.19H293.769L275.289 58H265.209ZM335.546 58L315.526 12.71H325.816L342.966 53.59H339.746L356.826 12.71H366.976L347.166 58H335.546ZM383.103 39.1V50.23H418.033V58H373.793V12.71H417.963V20.48H383.103V31.75H411.663V39.1H383.103ZM451.547 48.13V40.36H481.507V48.13H451.547ZM440.277 58L461.557 12.71H471.637L493.127 58H482.977L464.357 17.19H468.837L450.357 58H440.277ZM513.586 42.74H523.036C523.223 44.3267 523.946 45.7733 525.206 47.08C526.513 48.34 528.216 49.3433 530.316 50.09C532.416 50.79 534.773 51.14 537.386 51.14C539.766 51.14 541.726 50.8833 543.266 50.37C544.806 49.8567 545.949 49.1333 546.696 48.2C547.443 47.2667 547.816 46.1467 547.816 44.84C547.816 43.58 547.349 42.6233 546.416 41.97C545.483 41.27 544.013 40.71 542.006 40.29C539.999 39.8233 537.363 39.3567 534.096 38.89C531.529 38.5167 529.103 38.0033 526.816 37.35C524.529 36.65 522.499 35.7633 520.726 34.69C518.999 33.6167 517.623 32.31 516.596 30.77C515.616 29.1833 515.126 27.3167 515.126 25.17C515.126 22.51 515.873 20.1767 517.366 18.17C518.906 16.1633 521.169 14.6 524.156 13.48C527.143 12.36 530.806 11.8 535.146 11.8C541.679 11.8 546.696 13.2 550.196 16C553.743 18.7533 555.469 22.5567 555.376 27.41H546.276C546.089 24.6567 544.923 22.6733 542.776 21.46C540.676 20.2467 538.016 19.64 534.796 19.64C531.809 19.64 529.336 20.0833 527.376 20.97C525.463 21.8567 524.506 23.3733 524.506 25.52C524.506 26.36 524.739 27.1067 525.206 27.76C525.673 28.3667 526.466 28.9033 527.586 29.37C528.706 29.8367 530.223 30.28 532.136 30.7C534.049 31.12 536.429 31.54 539.276 31.96C541.936 32.3333 544.339 32.8467 546.486 33.5C548.679 34.1067 550.546 34.9233 552.086 35.95C553.673 36.93 554.886 38.19 555.726 39.73C556.566 41.27 556.986 43.16 556.986 45.4C556.986 48.1533 556.263 50.5567 554.816 52.61C553.416 54.6167 551.223 56.18 548.236 57.3C545.296 58.42 541.469 58.98 536.756 58.98C533.396 58.98 530.433 58.63 527.866 57.93C525.299 57.1833 523.083 56.2033 521.216 54.99C519.349 53.7767 517.833 52.4467 516.666 51C515.499 49.5533 514.659 48.1067 514.146 46.66C513.679 45.2133 513.493 43.9067 513.586 42.74ZM561.21 12.71H608.95V20.48H561.21V12.71ZM580.46 19.5H589.77V58H580.46V19.5ZM639.181 58.91C633.161 58.91 628.004 57.9767 623.711 56.11C619.464 54.1967 616.197 51.49 613.911 47.99C611.671 44.49 610.551 40.29 610.551 35.39C610.551 30.4433 611.671 26.22 613.911 22.72C616.197 19.22 619.464 16.5367 623.711 14.67C628.004 12.7567 633.161 11.8 639.181 11.8C645.247 11.8 650.404 12.7567 654.651 14.67C658.897 16.5367 662.141 19.22 664.381 22.72C666.667 26.22 667.811 30.4433 667.811 35.39C667.811 40.29 666.667 44.49 664.381 47.99C662.141 51.49 658.897 54.1967 654.651 56.11C650.404 57.9767 645.247 58.91 639.181 58.91ZM639.181 50.86C642.914 50.86 646.181 50.3 648.981 49.18C651.827 48.06 654.044 46.3567 655.631 44.07C657.264 41.7833 658.081 38.89 658.081 35.39C658.081 31.89 657.264 28.9967 655.631 26.71C654.044 24.4233 651.827 22.72 648.981 21.6C646.181 20.4333 642.914 19.85 639.181 19.85C635.494 19.85 632.204 20.4333 629.311 21.6C626.417 22.72 624.154 24.4233 622.521 26.71C620.887 28.9967 620.071 31.89 620.071 35.39C620.071 38.89 620.887 41.7833 622.521 44.07C624.154 46.3567 626.417 48.06 629.311 49.18C632.204 50.3 635.494 50.86 639.181 50.86ZM676.899 58V12.71H707.629C711.129 12.71 714.162 13.2 716.729 14.18C719.342 15.1133 721.372 16.6067 722.819 18.66C724.265 20.6667 724.989 23.2567 724.989 26.43C724.989 28.5767 724.615 30.3967 723.869 31.89C723.122 33.3833 722.072 34.5967 720.719 35.53C719.412 36.4633 717.895 37.1867 716.169 37.7C714.442 38.1667 712.599 38.47 710.639 38.61L709.659 38.05C712.925 38.0967 715.609 38.3767 717.709 38.89C719.809 39.3567 721.372 40.2433 722.399 41.55C723.472 42.81 724.009 44.7 724.009 47.22V58H714.699V47.85C714.699 46.1233 714.395 44.7933 713.789 43.86C713.182 42.88 712.085 42.2033 710.499 41.83C708.959 41.4567 706.719 41.27 703.779 41.27H686.209V58H676.899ZM686.209 33.99H707.629C710.242 33.99 712.225 33.36 713.579 32.1C714.979 30.84 715.679 29.1367 715.679 26.99C715.679 24.9367 714.979 23.3733 713.579 22.3C712.225 21.2267 710.242 20.69 707.629 20.69H686.209V33.99ZM778.922 12.71L759.042 43.72V58H749.662V43.72L729.782 12.71H740.562L757.292 39.8H751.692L768.142 12.71H778.922ZM277.724 82.71V90.48H242.864V102.66H271.424V109.94H242.864V128H233.554V82.71H277.724ZM310.065 128.91C304.045 128.91 298.888 127.977 294.595 126.11C290.348 124.197 287.081 121.49 284.795 117.99C282.555 114.49 281.435 110.29 281.435 105.39C281.435 100.443 282.555 96.22 284.795 92.72C287.081 89.22 290.348 86.5367 294.595 84.67C298.888 82.7567 304.045 81.8 310.065 81.8C316.131 81.8 321.288 82.7567 325.535 84.67C329.781 86.5367 333.025 89.22 335.265 92.72C337.551 96.22 338.695 100.443 338.695 105.39C338.695 110.29 337.551 114.49 335.265 117.99C333.025 121.49 329.781 124.197 325.535 126.11C321.288 127.977 316.131 128.91 310.065 128.91ZM310.065 120.86C313.798 120.86 317.065 120.3 319.865 119.18C322.711 118.06 324.928 116.357 326.515 114.07C328.148 111.783 328.965 108.89 328.965 105.39C328.965 101.89 328.148 98.9967 326.515 96.71C324.928 94.4233 322.711 92.72 319.865 91.6C317.065 90.4333 313.798 89.85 310.065 89.85C306.378 89.85 303.088 90.4333 300.195 91.6C297.301 92.72 295.038 94.4233 293.405 96.71C291.771 98.9967 290.955 101.89 290.955 105.39C290.955 108.89 291.771 111.783 293.405 114.07C295.038 116.357 297.301 118.06 300.195 119.18C303.088 120.3 306.378 120.86 310.065 120.86ZM347.783 128V82.71H378.513C382.013 82.71 385.046 83.2 387.613 84.18C390.226 85.1133 392.256 86.6067 393.703 88.66C395.149 90.6667 395.873 93.2567 395.873 96.43C395.873 98.5767 395.499 100.397 394.753 101.89C394.006 103.383 392.956 104.597 391.603 105.53C390.296 106.463 388.779 107.187 387.053 107.7C385.326 108.167 383.483 108.47 381.523 108.61L380.543 108.05C383.809 108.097 386.493 108.377 388.593 108.89C390.693 109.357 392.256 110.243 393.283 111.55C394.356 112.81 394.893 114.7 394.893 117.22V128H385.583V117.85C385.583 116.123 385.279 114.793 384.673 113.86C384.066 112.88 382.969 112.203 381.383 111.83C379.843 111.457 377.603 111.27 374.663 111.27H357.093V128H347.783ZM357.093 103.99H378.513C381.126 103.99 383.109 103.36 384.463 102.1C385.863 100.84 386.563 99.1367 386.563 96.99C386.563 94.9367 385.863 93.3733 384.463 92.3C383.109 91.2267 381.126 90.69 378.513 90.69H357.093V103.99ZM467.579 82.71L447.699 113.72V128H438.319V113.72L418.439 82.71H429.219L445.949 109.8H440.349L456.799 82.71H467.579ZM497.848 128.91C491.828 128.91 486.671 127.977 482.378 126.11C478.131 124.197 474.864 121.49 472.578 117.99C470.338 114.49 469.218 110.29 469.218 105.39C469.218 100.443 470.338 96.22 472.578 92.72C474.864 89.22 478.131 86.5367 482.378 84.67C486.671 82.7567 491.828 81.8 497.848 81.8C503.914 81.8 509.071 82.7567 513.318 84.67C517.564 86.5367 520.808 89.22 523.048 92.72C525.334 96.22 526.478 100.443 526.478 105.39C526.478 110.29 525.334 114.49 523.048 117.99C520.808 121.49 517.564 124.197 513.318 126.11C509.071 127.977 503.914 128.91 497.848 128.91ZM497.848 120.86C501.581 120.86 504.848 120.3 507.648 119.18C510.494 118.06 512.711 116.357 514.298 114.07C515.931 111.783 516.748 108.89 516.748 105.39C516.748 101.89 515.931 98.9967 514.298 96.71C512.711 94.4233 510.494 92.72 507.648 91.6C504.848 90.4333 501.581 89.85 497.848 89.85C494.161 89.85 490.871 90.4333 487.978 91.6C485.084 92.72 482.821 94.4233 481.188 96.71C479.554 98.9967 478.738 101.89 478.738 105.39C478.738 108.89 479.554 111.783 481.188 114.07C482.821 116.357 485.084 118.06 487.978 119.18C490.871 120.3 494.161 120.86 497.848 120.86ZM577.146 107.98V82.71H586.456V108.96C586.456 111.947 586.012 114.56 585.126 116.8C584.286 119.04 583.072 120.93 581.486 122.47C579.899 124.01 578.032 125.27 575.886 126.25C573.786 127.183 571.476 127.86 568.956 128.28C566.482 128.7 563.869 128.91 561.116 128.91C558.269 128.91 555.562 128.7 552.996 128.28C550.429 127.86 548.072 127.183 545.926 126.25C543.826 125.27 542.006 124.01 540.466 122.47C538.926 120.93 537.712 119.04 536.826 116.8C535.986 114.56 535.566 111.947 535.566 108.96V82.71H544.876V107.98C544.876 111.527 545.576 114.233 546.976 116.1C548.376 117.92 550.289 119.18 552.716 119.88C555.189 120.533 557.989 120.86 561.116 120.86C564.149 120.86 566.856 120.533 569.236 119.88C571.662 119.18 573.576 117.92 574.976 116.1C576.422 114.233 577.146 111.527 577.146 107.98Z" fill="#FDA4AF"/>
<path d="M61.2414 61L59.8594 61.5831L60.2463 62.5H61.2414V61ZM42.1314 15.71V14.21H39.8705L40.7494 16.2931L42.1314 15.71ZM52.4214 15.71L53.8126 15.1491L53.434 14.21H52.4214V15.71ZM68.5914 55.82L68.6263 57.3196L70.793 57.2692L69.9827 55.2591L68.5914 55.82ZM65.5814 55.89L64.1808 55.3532L63.3804 57.4416L65.6163 57.3896L65.5814 55.89ZM80.9814 15.71V14.21H79.95L79.5808 15.1732L80.9814 15.71ZM91.6915 15.71L93.0921 15.1732L92.7229 14.21H91.6915V15.71ZM107.091 55.89L107.057 57.3896L109.293 57.4416L108.492 55.3532L107.091 55.89ZM104.081 55.82L102.69 55.2591L101.88 57.2692L104.047 57.3196L104.081 55.82ZM120.251 15.71V14.21H119.239L118.86 15.1491L120.251 15.71ZM130.331 15.71L131.716 16.2877L132.583 14.21H130.331V15.71ZM111.431 61V62.5H112.431L112.816 61.5777L111.431 61ZM100.021 61L98.6216 61.539L98.9916 62.5H100.021V61ZM84.9015 21.73V20.23H82.7166L83.5016 22.269L84.9015 21.73ZM87.8414 21.73L89.2404 22.2711L90.03 20.23H87.8414V21.73ZM72.6515 61V62.5H73.6795L74.0504 61.5411L72.6515 61ZM62.6235 60.4169L43.5135 15.1269L40.7494 16.2931L59.8594 61.5831L62.6235 60.4169ZM42.1314 17.21H52.4214V14.21H42.1314V17.21ZM51.0302 16.2709L67.2002 56.3809L69.9827 55.2591L53.8126 15.1491L51.0302 16.2709ZM68.5566 54.3204L65.5466 54.3904L65.6163 57.3896L68.6263 57.3196L68.5566 54.3204ZM66.9821 56.4268L82.3821 16.2468L79.5808 15.1732L64.1808 55.3532L66.9821 56.4268ZM80.9814 17.21H91.6915V14.21H80.9814V17.21ZM90.2908 16.2468L105.691 56.4268L108.492 55.3532L93.0921 15.1732L90.2908 16.2468ZM107.126 54.3904L104.116 54.3204L104.047 57.3196L107.057 57.3896L107.126 54.3904ZM105.473 56.3809L121.643 16.2709L118.86 15.1491L102.69 55.2591L105.473 56.3809ZM120.251 17.21H130.331V14.21H120.251V17.21ZM128.947 15.1323L110.047 60.4223L112.816 61.5777L131.716 16.2877L128.947 15.1323ZM111.431 59.5H100.021V62.5H111.431V59.5ZM101.421 60.461L86.3013 21.191L83.5016 22.269L98.6216 61.539L101.421 60.461ZM84.9015 23.23H87.8414V20.23H84.9015V23.23ZM86.4425 21.1889L71.2525 60.4589L74.0504 61.5411L89.2404 22.2711L86.4425 21.1889ZM72.6515 59.5H61.2414V62.5H72.6515V59.5ZM146.418 42.1V40.6H144.918V42.1H146.418ZM146.418 53.23H144.918V54.73H146.418V53.23ZM181.348 53.23H182.848V51.73H181.348V53.23ZM181.348 61V62.5H182.848V61H181.348ZM137.108 61H135.608V62.5H137.108V61ZM137.108 15.71V14.21H135.608V15.71H137.108ZM181.278 15.71H182.778V14.21H181.278V15.71ZM181.278 23.48V24.98H182.778V23.48H181.278ZM146.418 23.48V21.98H144.918V23.48H146.418ZM146.418 34.75H144.918V36.25H146.418V34.75ZM174.978 34.75H176.478V33.25H174.978V34.75ZM174.978 42.1V43.6H176.478V42.1H174.978ZM144.918 42.1V53.23H147.918V42.1H144.918ZM146.418 54.73H181.348V51.73H146.418V54.73ZM179.848 53.23V61H182.848V53.23H179.848ZM181.348 59.5H137.108V62.5H181.348V59.5ZM138.608 61V15.71H135.608V61H138.608ZM137.108 17.21H181.278V14.21H137.108V17.21ZM179.778 15.71V23.48H182.778V15.71H179.778ZM181.278 21.98H146.418V24.98H181.278V21.98ZM144.918 23.48V34.75H147.918V23.48H144.918ZM146.418 36.25H174.978V33.25H146.418V36.25ZM173.478 34.75V42.1H176.478V34.75H173.478ZM174.978 40.6H146.418V43.6H174.978V40.6ZM215.981 34.4V32.9H214.481V34.4H215.981ZM251.891 34.4H253.391V32.9H251.891V34.4ZM251.891 42.17V43.67H253.391V42.17H251.891ZM215.981 42.17H214.481V43.67H215.981V42.17ZM250.351 15.71V14.21H248.851V15.71H250.351ZM259.661 15.71H261.161V14.21H259.661V15.71ZM259.661 61V62.5H261.161V61H259.661ZM250.351 61H248.851V62.5H250.351V61ZM207.791 15.71V14.21H206.291V15.71H207.791ZM217.101 15.71H218.601V14.21H217.101V15.71ZM217.101 61V62.5H218.601V61H217.101ZM207.791 61H206.291V62.5H207.791V61ZM215.981 35.9H251.891V32.9H215.981V35.9ZM250.391 34.4V42.17H253.391V34.4H250.391ZM251.891 40.67H215.981V43.67H251.891V40.67ZM217.481 42.17V34.4H214.481V42.17H217.481ZM250.351 17.21H259.661V14.21H250.351V17.21ZM258.161 15.71V61H261.161V15.71H258.161ZM259.661 59.5H250.351V62.5H259.661V59.5ZM251.851 61V15.71H248.851V61H251.851ZM207.791 17.21H217.101V14.21H207.791V17.21ZM215.601 15.71V61H218.601V15.71H215.601ZM217.101 59.5H207.791V62.5H217.101V59.5ZM209.291 61V15.71H206.291V61H209.291ZM277.479 51.13H275.979V52.63H277.479V51.13ZM277.479 43.36V41.86H275.979V43.36H277.479ZM307.439 43.36H308.939V41.86H307.439V43.36ZM307.439 51.13V52.63H308.939V51.13H307.439ZM266.209 61L264.851 60.3621L263.846 62.5H266.209V61ZM287.489 15.71V14.21H286.536L286.131 15.0721L287.489 15.71ZM297.569 15.71L298.924 15.067L298.517 14.21H297.569V15.71ZM319.059 61V62.5H321.431L320.414 60.357L319.059 61ZM308.909 61L307.544 61.6226L307.944 62.5H308.909V61ZM290.289 20.19V18.69H287.955L288.924 20.8126L290.289 20.19ZM294.769 20.19L296.135 20.8088L297.094 18.69H294.769V20.19ZM276.289 61V62.5H277.256L277.655 61.6188L276.289 61ZM278.979 51.13V43.36H275.979V51.13H278.979ZM277.479 44.86H307.439V41.86H277.479V44.86ZM305.939 43.36V51.13H308.939V43.36H305.939ZM307.439 49.63H277.479V52.63H307.439V49.63ZM267.566 61.6379L288.846 16.3479L286.131 15.0721L264.851 60.3621L267.566 61.6379ZM287.489 17.21H297.569V14.21H287.489V17.21ZM296.213 16.353L317.703 61.643L320.414 60.357L298.924 15.067L296.213 16.353ZM319.059 59.5H308.909V62.5H319.059V59.5ZM310.273 60.3774L291.653 19.5674L288.924 20.8126L307.544 61.6226L310.273 60.3774ZM290.289 21.69H294.769V18.69H290.289V21.69ZM293.402 19.5712L274.922 60.3812L277.655 61.6188L296.135 20.8088L293.402 19.5712ZM276.289 59.5H266.209V62.5H276.289V59.5ZM336.546 61L335.174 61.6065L335.569 62.5H336.546V61ZM316.526 15.71V14.21H314.223L315.154 16.3165L316.526 15.71ZM326.816 15.71L328.199 15.1297L327.813 14.21H326.816V15.71ZM343.966 56.59V58.09H346.222L345.349 56.0097L343.966 56.59ZM340.746 56.59L339.362 56.0117L338.494 58.09H340.746V56.59ZM357.826 15.71V14.21H356.827L356.442 15.1317L357.826 15.71ZM367.976 15.71L369.35 16.3111L370.269 14.21H367.976V15.71ZM348.166 61V62.5H349.147L349.54 61.6011L348.166 61ZM337.918 60.3935L317.898 15.1035L315.154 16.3165L335.174 61.6065L337.918 60.3935ZM316.526 17.21H326.816V14.21H316.526V17.21ZM325.433 16.2903L342.583 57.1703L345.349 56.0097L328.199 15.1297L325.433 16.2903ZM343.966 55.09H340.746V58.09H343.966V55.09ZM342.13 57.1683L359.21 16.2883L356.442 15.1317L339.362 56.0117L342.13 57.1683ZM357.826 17.21H367.976V14.21H357.826V17.21ZM366.602 15.1089L346.792 60.3989L349.54 61.6011L369.35 16.3111L366.602 15.1089ZM348.166 59.5H336.546V62.5H348.166V59.5ZM384.103 42.1V40.6H382.603V42.1H384.103ZM384.103 53.23H382.603V54.73H384.103V53.23ZM419.033 53.23H420.533V51.73H419.033V53.23ZM419.033 61V62.5H420.533V61H419.033ZM374.793 61H373.293V62.5H374.793V61ZM374.793 15.71V14.21H373.293V15.71H374.793ZM418.963 15.71H420.463V14.21H418.963V15.71ZM418.963 23.48V24.98H420.463V23.48H418.963ZM384.103 23.48V21.98H382.603V23.48H384.103ZM384.103 34.75H382.603V36.25H384.103V34.75ZM412.663 34.75H414.163V33.25H412.663V34.75ZM412.663 42.1V43.6H414.163V42.1H412.663ZM382.603 42.1V53.23H385.603V42.1H382.603ZM384.103 54.73H419.033V51.73H384.103V54.73ZM417.533 53.23V61H420.533V53.23H417.533ZM419.033 59.5H374.793V62.5H419.033V59.5ZM376.293 61V15.71H373.293V61H376.293ZM374.793 17.21H418.963V14.21H374.793V17.21ZM417.463 15.71V23.48H420.463V15.71H417.463ZM418.963 21.98H384.103V24.98H418.963V21.98ZM382.603 23.48V34.75H385.603V23.48H382.603ZM384.103 36.25H412.663V33.25H384.103V36.25ZM411.163 34.75V42.1H414.163V34.75H411.163ZM412.663 40.6H384.103V43.6H412.663V40.6ZM452.547 51.13H451.047V52.63H452.547V51.13ZM452.547 43.36V41.86H451.047V43.36H452.547ZM482.507 43.36H484.007V41.86H482.507V43.36ZM482.507 51.13V52.63H484.007V51.13H482.507ZM441.277 61L439.919 60.3621L438.915 62.5H441.277V61ZM462.557 15.71V14.21H461.604L461.199 15.0721L462.557 15.71ZM472.637 15.71L473.992 15.067L473.585 14.21H472.637V15.71ZM494.127 61V62.5H496.499L495.482 60.357L494.127 61ZM483.977 61L482.612 61.6226L483.013 62.5H483.977V61ZM465.357 20.19V18.69H463.024L463.992 20.8126L465.357 20.19ZM469.837 20.19L471.203 20.8088L472.163 18.69H469.837V20.19ZM451.357 61V62.5H452.324L452.723 61.6188L451.357 61ZM454.047 51.13V43.36H451.047V51.13H454.047ZM452.547 44.86H482.507V41.86H452.547V44.86ZM481.007 43.36V51.13H484.007V43.36H481.007ZM482.507 49.63H452.547V52.63H482.507V49.63ZM442.635 61.6379L463.915 16.3479L461.199 15.0721L439.919 60.3621L442.635 61.6379ZM462.557 17.21H472.637V14.21H462.557V17.21ZM471.282 16.353L492.772 61.643L495.482 60.357L473.992 15.067L471.282 16.353ZM494.127 59.5H483.977V62.5H494.127V59.5ZM485.342 60.3774L466.722 19.5674L463.992 20.8126L482.612 61.6226L485.342 60.3774ZM465.357 21.69H469.837V18.69H465.357V21.69ZM468.47 19.5712L449.99 60.3812L452.723 61.6188L471.203 20.8088L468.47 19.5712ZM451.357 59.5H441.277V62.5H451.357V59.5ZM514.586 45.74V44.24H513.201L513.091 45.6204L514.586 45.74ZM524.036 45.74L525.526 45.5647L525.37 44.24H524.036V45.74ZM526.206 50.08L525.126 51.1212L525.145 51.1408L525.165 51.1598L526.206 50.08ZM531.316 53.09L530.814 54.5033L530.828 54.5083L530.842 54.513L531.316 53.09ZM544.266 53.37L544.74 54.793L544.266 53.37ZM547.696 51.2L548.867 52.137L547.696 51.2ZM547.416 44.97L546.516 46.17L546.536 46.1847L546.556 46.1988L547.416 44.97ZM543.006 43.29L542.666 44.751L542.682 44.7548L542.699 44.7582L543.006 43.29ZM535.096 41.89L534.88 43.3744L534.884 43.3749L535.096 41.89ZM527.816 40.35L527.377 41.7843L527.39 41.7884L527.404 41.7923L527.816 40.35ZM521.726 37.69L520.934 38.9639L520.942 38.9686L520.949 38.9733L521.726 37.69ZM517.596 33.77L516.32 34.5582L516.334 34.5804L516.348 34.602L517.596 33.77ZM518.366 21.17L517.176 20.2568L517.169 20.2656L517.163 20.2745L518.366 21.17ZM525.156 16.48L524.629 15.0755L525.156 16.48ZM551.196 19L550.259 20.1713L550.268 20.1781L550.276 20.1849L551.196 19ZM556.376 30.41V31.91H557.847L557.876 30.4388L556.376 30.41ZM547.276 30.41L545.779 30.5115L545.874 31.91H547.276V30.41ZM543.776 24.46L543.026 25.7588L543.032 25.7623L543.038 25.7658L543.776 24.46ZM528.376 23.97L527.758 22.6033L527.745 22.609L528.376 23.97ZM526.206 30.76L524.985 31.6319L525.001 31.6535L525.017 31.6746L526.206 30.76ZM528.586 32.37L528.009 33.7546V33.7546L528.586 32.37ZM533.136 33.7L533.458 32.2349L533.136 33.7ZM540.276 34.96L540.057 36.444L540.068 36.4454L540.276 34.96ZM547.486 36.5L547.049 37.935L547.068 37.9406L547.086 37.9457L547.486 36.5ZM553.086 38.95L552.254 40.1981L552.276 40.2125L552.298 40.2262L553.086 38.95ZM556.726 42.73L555.409 43.4483L556.726 42.73ZM555.816 55.61L554.59 54.7461L554.586 54.7517L555.816 55.61ZM549.236 60.3L548.709 58.8955L548.702 58.8983L549.236 60.3ZM528.866 60.93L528.447 62.3703L528.459 62.3738L528.471 62.3771L528.866 60.93ZM522.216 57.99L521.399 59.2477L522.216 57.99ZM517.666 54L516.498 54.9416L517.666 54ZM515.146 49.66L513.719 50.1205L513.725 50.1412L513.732 50.1616L515.146 49.66ZM514.586 47.24H524.036V44.24H514.586V47.24ZM522.546 45.9153C522.776 47.8712 523.671 49.6121 525.126 51.1212L527.286 49.0388C526.221 47.9345 525.669 46.7821 525.526 45.5647L522.546 45.9153ZM525.165 51.1598C526.656 52.5978 528.557 53.701 530.814 54.5033L531.819 51.6767C529.875 50.9857 528.369 50.0822 527.247 49.0002L525.165 51.1598ZM530.842 54.513C533.119 55.2723 535.64 55.64 538.386 55.64V52.64C535.906 52.64 533.713 52.3077 531.79 51.667L530.842 54.513ZM538.386 55.64C540.859 55.64 542.994 55.3751 544.74 54.793L543.792 51.947C542.458 52.3915 540.673 52.64 538.386 52.64V55.64ZM544.74 54.793C546.459 54.22 547.886 53.3636 548.867 52.137L546.525 50.263C546.013 50.9031 545.153 51.4933 543.792 51.947L544.74 54.793ZM548.867 52.137C549.847 50.9125 550.316 49.4534 550.316 47.84H547.316C547.316 48.8399 547.038 49.6209 546.525 50.263L548.867 52.137ZM550.316 47.84C550.316 46.1511 549.658 44.7082 548.276 43.7411L546.556 46.1988C547.041 46.5385 547.316 47.0089 547.316 47.84H550.316ZM548.316 43.77C547.121 42.8737 545.396 42.2577 543.313 41.8218L542.699 44.7582C544.63 45.1623 545.844 45.6663 546.516 46.17L548.316 43.77ZM543.346 41.829C541.28 41.3485 538.596 40.8747 535.308 40.4051L534.884 43.3749C538.13 43.8386 540.719 44.2982 542.666 44.751L543.346 41.829ZM535.312 40.4056C532.806 40.0411 530.445 39.5411 528.228 38.9077L527.404 41.7923C529.76 42.4656 532.253 42.9923 534.88 43.3744L535.312 40.4056ZM528.255 38.9157C526.069 38.2465 524.155 37.4071 522.503 36.4067L520.949 38.9733C522.843 40.1196 524.99 41.0535 527.377 41.7843L528.255 38.9157ZM522.518 36.4161C520.955 35.4445 519.741 34.2829 518.844 32.9379L516.348 34.602C517.505 36.3371 519.044 37.7888 520.934 38.9639L522.518 36.4161ZM518.872 32.9818C518.06 31.666 517.626 30.0811 517.626 28.17H514.626C514.626 30.5522 515.173 32.7007 516.32 34.5582L518.872 32.9818ZM517.626 28.17C517.626 25.8109 518.281 23.7964 519.569 22.0655L517.163 20.2745C515.464 22.5569 514.626 25.2091 514.626 28.17H517.626ZM519.556 22.0832C520.886 20.3505 522.891 18.9315 525.683 17.8845L524.629 15.0755C521.448 16.2685 518.926 17.9762 517.176 20.2568L519.556 22.0832ZM525.683 17.8845C528.452 16.8459 531.925 16.3 536.146 16.3V13.3C531.687 13.3 527.833 13.8741 524.629 15.0755L525.683 17.8845ZM536.146 16.3C542.49 16.3 547.123 17.6623 550.259 20.1713L552.133 17.8287C548.269 14.7376 542.869 13.3 536.146 13.3V16.3ZM550.276 20.1849C553.415 22.6215 554.961 25.9567 554.876 30.3812L557.876 30.4388C557.977 25.1567 556.07 20.8851 552.116 17.8151L550.276 20.1849ZM556.376 28.91H547.276V31.91H556.376V28.91ZM548.773 30.3085C548.557 27.1223 547.158 24.6487 544.514 23.1542L543.038 25.7658C544.687 26.698 545.622 28.191 545.779 30.5115L548.773 30.3085ZM544.526 23.1612C542.135 21.7797 539.196 21.14 535.796 21.14V24.14C538.836 24.14 541.217 24.7136 543.026 25.7588L544.526 23.1612ZM535.796 21.14C532.674 21.14 529.972 21.6016 527.758 22.6033L528.994 25.3367C530.7 24.565 532.945 24.14 535.796 24.14V21.14ZM527.745 22.609C526.573 23.1521 525.613 23.929 524.955 24.9722C524.298 26.0137 524.006 27.2198 524.006 28.52H527.006C527.006 27.6735 527.193 27.0479 527.492 26.5728C527.791 26.0993 528.265 25.6745 529.007 25.331L527.745 22.609ZM524.006 28.52C524.006 29.6573 524.328 30.7119 524.985 31.6319L527.427 29.8881C527.15 29.5014 527.006 29.0627 527.006 28.52H524.006ZM525.017 31.6746C525.711 32.5761 526.776 33.2406 528.009 33.7546L529.163 30.9854C528.157 30.566 527.635 30.1572 527.395 29.8454L525.017 31.6746ZM528.009 33.7546C529.246 34.27 530.86 34.7361 532.814 35.1651L533.458 32.2349C531.586 31.8239 530.166 31.4033 529.163 30.9854L528.009 33.7546ZM532.814 35.1651C534.773 35.5951 537.19 36.021 540.057 36.4439L540.495 33.4761C537.668 33.059 535.325 32.6449 533.458 32.2349L532.814 35.1651ZM540.068 36.4454C542.665 36.81 544.99 37.3083 547.049 37.935L547.923 35.065C545.689 34.385 543.207 33.8567 540.485 33.4746L540.068 36.4454ZM547.086 37.9457C549.16 38.5193 550.873 39.2774 552.254 40.1981L553.918 37.7019C552.219 36.5692 550.199 35.6941 547.886 35.0543L547.086 37.9457ZM552.298 40.2262C553.677 41.0782 554.702 42.1515 555.409 43.4483L558.043 42.0117C557.07 40.2285 555.668 38.7818 553.874 37.6738L552.298 40.2262ZM555.409 43.4483C556.1 44.7152 556.486 46.3431 556.486 48.4H559.486C559.486 45.9769 559.032 43.8248 558.043 42.0117L555.409 43.4483ZM556.486 48.4C556.486 50.8752 555.841 52.97 554.59 54.7461L557.042 56.4739C558.684 54.1434 559.486 51.4314 559.486 48.4H556.486ZM554.586 54.7517C553.406 56.4436 551.497 57.8501 548.709 58.8955L549.763 61.7045C552.948 60.5099 555.427 58.7897 557.046 56.4683L554.586 54.7517ZM548.702 58.8983C545.995 59.9294 542.369 60.48 537.756 60.48V63.48C542.57 63.48 546.597 62.9106 549.77 61.7017L548.702 58.8983ZM537.756 60.48C534.496 60.48 531.67 60.14 529.261 59.4829L528.471 62.3771C531.195 63.12 534.296 63.48 537.756 63.48V60.48ZM529.285 59.4897C526.832 58.7761 524.755 57.8514 523.034 56.7323L521.399 59.2477C523.41 60.5552 525.767 61.5905 528.447 62.3703L529.285 59.4897ZM523.034 56.7323C521.274 55.5887 519.884 54.3603 518.834 53.0584L516.498 54.9416C517.782 56.533 519.425 57.9646 521.399 59.2477L523.034 56.7323ZM518.834 53.0584C517.752 51.7166 517.006 50.416 516.56 49.1584L513.732 50.1616C514.313 51.7974 515.247 53.3901 516.498 54.9416L518.834 53.0584ZM516.574 49.1995C516.15 47.8866 516.008 46.7813 516.081 45.8596L513.091 45.6204C512.978 47.032 513.209 48.5401 513.719 50.1205L516.574 49.1995ZM562.21 15.71V14.21H560.71V15.71H562.21ZM609.95 15.71H611.45V14.21H609.95V15.71ZM609.95 23.48V24.98H611.45V23.48H609.95ZM562.21 23.48H560.71V24.98H562.21V23.48ZM581.46 22.5V21H579.96V22.5H581.46ZM590.77 22.5H592.27V21H590.77V22.5ZM590.77 61V62.5H592.27V61H590.77ZM581.46 61H579.96V62.5H581.46V61ZM562.21 17.21H609.95V14.21H562.21V17.21ZM608.45 15.71V23.48H611.45V15.71H608.45ZM609.95 21.98H562.21V24.98H609.95V21.98ZM563.71 23.48V15.71H560.71V23.48H563.71ZM581.46 24H590.77V21H581.46V24ZM589.27 22.5V61H592.27V22.5H589.27ZM590.77 59.5H581.46V62.5H590.77V59.5ZM582.96 61V22.5H579.96V61H582.96ZM624.711 59.11L624.095 60.4776L624.104 60.4817L624.113 60.4856L624.711 59.11ZM614.911 50.99L613.647 51.7986L613.655 51.8104L614.911 50.99ZM614.911 25.72L613.655 24.8995L613.647 24.9114L614.911 25.72ZM624.711 17.67L625.314 19.0432L625.321 19.0401L624.711 17.67ZM655.651 17.67L655.035 19.0377L655.047 19.0432L655.651 17.67ZM665.381 25.72L664.117 26.5286L664.125 26.5404L665.381 25.72ZM665.381 50.99L664.125 50.1695L664.117 50.1814L665.381 50.99ZM655.651 59.11L656.254 60.4833L656.267 60.4776L655.651 59.11ZM649.981 52.18L649.432 50.7841L649.424 50.7873L649.981 52.18ZM656.631 47.07L655.41 46.1981L655.404 46.2065L655.398 46.2149L656.631 47.07ZM656.631 29.71L655.398 30.5651L655.404 30.5735L655.41 30.5819L656.631 29.71ZM649.981 24.6L649.404 25.9846L649.418 25.9904L649.432 25.9958L649.981 24.6ZM630.311 24.6L630.852 25.9988L630.862 25.9951L630.872 25.9912L630.311 24.6ZM623.521 47.07L624.741 46.1981L623.521 47.07ZM630.311 52.18L629.769 53.5789L630.311 52.18ZM640.181 60.41C634.31 60.41 629.368 59.4992 625.309 57.7344L624.113 60.4856C628.64 62.4542 634.011 63.41 640.181 63.41V60.41ZM625.327 57.7424C621.311 55.9328 618.279 53.4031 616.167 50.1696L613.655 51.8104C616.116 55.5769 619.618 58.4605 624.095 60.4776L625.327 57.7424ZM616.174 50.1814C614.115 46.9633 613.051 43.0556 613.051 38.39H610.051C610.051 43.5244 611.227 48.0167 613.647 51.7986L616.174 50.1814ZM613.051 38.39C613.051 33.6746 614.116 29.7445 616.174 26.5286L613.647 24.9114C611.226 28.6955 610.051 33.212 610.051 38.39H613.051ZM616.167 26.5404C618.277 23.3103 621.304 20.8061 625.314 19.0432L624.107 16.2968C619.624 18.2673 616.118 21.1297 613.655 24.8996L616.167 26.5404ZM625.321 19.0401C629.377 17.2329 634.314 16.3 640.181 16.3V13.3C634.007 13.3 628.632 14.2805 624.1 16.2999L625.321 19.0401ZM640.181 16.3C646.097 16.3 651.031 17.2337 655.035 19.0376L656.267 16.3024C651.777 14.2796 646.398 13.3 640.181 13.3V16.3ZM655.047 19.0432C659.056 20.8052 662.055 23.3062 664.117 26.5286L666.644 24.9114C664.227 21.1338 660.739 18.2681 656.254 16.2968L655.047 19.0432ZM664.125 26.5404C666.225 29.7547 667.311 33.6804 667.311 38.39H670.311C670.311 33.2062 669.11 28.6853 666.637 24.8996L664.125 26.5404ZM667.311 38.39C667.311 43.0497 666.227 46.9531 664.125 50.1696L666.637 51.8104C669.108 48.0269 670.311 43.5303 670.311 38.39H667.311ZM664.117 50.1814C662.053 53.4073 659.049 55.9337 655.035 57.7424L656.267 60.4776C660.746 58.4596 664.229 55.5727 666.644 51.7986L664.117 50.1814ZM655.047 57.7368C651.04 59.4983 646.101 60.41 640.181 60.41V63.41C646.394 63.41 651.769 62.455 656.254 60.4832L655.047 57.7368ZM640.181 55.36C644.061 55.36 647.524 54.7783 650.538 53.5727L649.424 50.7873C646.838 51.8218 643.767 52.36 640.181 52.36V55.36ZM650.53 53.5758C653.624 52.3584 656.091 50.4797 657.863 47.9251L655.398 46.2149C653.998 48.2337 652.031 49.7616 649.432 50.7841L650.53 53.5758ZM657.851 47.9419C659.707 45.3442 660.581 42.1251 660.581 38.39H657.581C657.581 41.6549 656.821 44.2224 655.41 46.1981L657.851 47.9419ZM660.581 38.39C660.581 34.6549 659.707 31.4358 657.851 28.8381L655.41 30.5819C656.821 32.5575 657.581 35.1251 657.581 38.39H660.581ZM657.863 28.8549C656.091 26.3003 653.624 24.4216 650.53 23.2041L649.432 25.9958C652.031 27.0184 653.998 28.5463 655.398 30.5651L657.863 28.8549ZM650.558 23.2154C647.538 21.9572 644.068 21.35 640.181 21.35V24.35C643.76 24.35 646.824 24.9095 649.404 25.9846L650.558 23.2154ZM640.181 21.35C636.336 21.35 632.851 21.9585 629.75 23.2088L630.872 25.9912C633.558 24.9082 636.652 24.35 640.181 24.35V21.35ZM629.769 23.2011C626.633 24.4154 624.121 26.2888 622.3 28.8381L624.741 30.5819C626.187 28.5578 628.202 27.0246 630.852 25.9988L629.769 23.2011ZM622.3 28.8381C620.445 31.4358 619.571 34.6549 619.571 38.39H622.571C622.571 35.1251 623.33 32.5575 624.741 30.5819L622.3 28.8381ZM619.571 38.39C619.571 42.1251 620.445 45.3442 622.3 47.9419L624.741 46.1981C623.33 44.2225 622.571 41.6549 622.571 38.39H619.571ZM622.3 47.9419C624.121 50.4912 626.633 52.3646 629.769 53.5789L630.852 50.7811C628.202 49.7554 626.187 48.2221 624.741 46.1981L622.3 47.9419ZM629.769 53.5789C632.865 54.777 636.343 55.36 640.181 55.36V52.36C636.645 52.36 633.544 51.823 630.852 50.7811L629.769 53.5789ZM677.899 61H676.399V62.5H677.899V61ZM677.899 15.71V14.21H676.399V15.71H677.899ZM717.729 17.18L717.194 18.5813L717.209 18.5871L717.224 18.5926L717.729 17.18ZM723.819 21.66L722.593 22.5239L722.597 22.5306L722.602 22.5372L723.819 21.66ZM724.869 34.89L723.527 34.2192V34.2192L724.869 34.89ZM721.719 38.53L720.867 37.2952L720.857 37.3022L720.847 37.3094L721.719 38.53ZM717.169 40.7L717.56 42.148L717.578 42.1432L717.596 42.1378L717.169 40.7ZM711.639 41.61L710.895 42.9124L711.291 43.1387L711.746 43.1062L711.639 41.61ZM710.659 41.05L710.68 39.5502L709.915 42.3524L710.659 41.05ZM718.709 41.89L718.353 43.3471L718.368 43.3509L718.383 43.3543L718.709 41.89ZM723.399 44.55L722.219 45.4767L722.238 45.5001L722.257 45.5227L723.399 44.55ZM725.009 61V62.5H726.509V61H725.009ZM715.699 61H714.199V62.5H715.699V61ZM714.789 46.86L713.513 47.6495L713.522 47.6636L713.531 47.6775L714.789 46.86ZM711.499 44.83L711.145 46.2878L711.155 46.2901L711.499 44.83ZM687.209 44.27V42.77H685.709V44.27H687.209ZM687.209 61V62.5H688.709V61H687.209ZM687.209 36.99H685.709V38.49H687.209V36.99ZM714.579 35.1L713.575 33.9851L713.566 33.9935L713.557 34.0022L714.579 35.1ZM714.579 25.3L713.647 26.4752L713.656 26.4829L713.666 26.4904L714.579 25.3ZM687.209 23.69V22.19H685.709V23.69H687.209ZM679.399 61V15.71H676.399V61H679.399ZM677.899 17.21H708.629V14.21H677.899V17.21ZM708.629 17.21C711.994 17.21 714.838 17.6817 717.194 18.5813L718.264 15.7787C715.487 14.7183 712.264 14.21 708.629 14.21V17.21ZM717.224 18.5926C719.578 19.4333 721.343 20.7499 722.593 22.5239L725.045 20.7961C723.402 18.4634 721.106 16.7934 718.233 15.7674L717.224 18.5926ZM722.602 22.5372C723.818 24.2245 724.489 26.4823 724.489 29.43H727.489C727.489 26.031 726.712 23.1088 725.036 20.7828L722.602 22.5372ZM724.489 29.43C724.489 31.4082 724.144 32.985 723.527 34.2192L726.21 35.5608C727.087 33.8084 727.489 31.7451 727.489 29.43H724.489ZM723.527 34.2192C722.892 35.4899 722.009 36.5078 720.867 37.2952L722.57 39.7648C724.135 38.6855 725.352 37.2768 726.21 35.5608L723.527 34.2192ZM720.847 37.3094C719.691 38.1353 718.328 38.7905 716.741 39.2622L717.596 42.1378C719.463 41.5829 721.133 40.7914 722.591 39.7506L720.847 37.3094ZM716.777 39.252C715.152 39.6911 713.405 39.98 711.532 40.1138L711.746 43.1062C713.792 42.96 715.732 42.6422 717.56 42.148L716.777 39.252ZM712.383 40.3076L711.403 39.7476L709.915 42.3524L710.895 42.9124L712.383 40.3076ZM710.637 42.5498C713.842 42.5956 716.403 42.8705 718.353 43.3471L719.065 40.4329C716.815 39.8829 714.009 39.5977 710.68 39.5502L710.637 42.5498ZM718.383 43.3543C720.246 43.7682 721.463 44.5141 722.219 45.4767L724.578 43.6233C723.281 41.9726 721.371 40.9451 719.034 40.4257L718.383 43.3543ZM722.257 45.5227C723.005 46.4007 723.509 47.8777 723.509 50.22H726.509C726.509 47.5223 725.939 45.2193 724.541 43.5773L722.257 45.5227ZM723.509 50.22V61H726.509V50.22H723.509ZM725.009 59.5H715.699V62.5H725.009V59.5ZM717.199 61V50.85H714.199V61H717.199ZM717.199 50.85C717.199 48.9808 716.876 47.3189 716.046 46.0425L713.531 47.6775C713.915 48.2678 714.199 49.2658 714.199 50.85H717.199ZM716.064 46.0705C715.174 44.6329 713.654 43.7962 711.842 43.3699L711.155 46.2901C712.517 46.6105 713.19 47.1271 713.513 47.6495L716.064 46.0705ZM711.852 43.3722C710.137 42.9564 707.755 42.77 704.779 42.77V45.77C707.683 45.77 709.781 45.9569 711.145 46.2878L711.852 43.3722ZM704.779 42.77H687.209V45.77H704.779V42.77ZM685.709 44.27V61H688.709V44.27H685.709ZM687.209 59.5H677.899V62.5H687.209V59.5ZM687.209 38.49H708.629V35.49H687.209V38.49ZM708.629 38.49C711.465 38.49 713.873 37.8063 715.601 36.1978L713.557 34.0022C712.578 34.9137 711.02 35.49 708.629 35.49V38.49ZM715.582 36.2149C717.344 34.6293 718.179 32.4962 718.179 29.99H715.179C715.179 31.7772 714.614 33.0507 713.575 33.9851L715.582 36.2149ZM718.179 29.99C718.179 27.5566 717.325 25.5156 715.491 24.1096L713.666 26.4904C714.632 27.2311 715.179 28.3167 715.179 29.99H718.179ZM715.511 24.1248C713.787 22.7573 711.415 22.19 708.629 22.19V25.19C711.069 25.19 712.664 25.6961 713.647 26.4752L715.511 24.1248ZM708.629 22.19H687.209V25.19H708.629V22.19ZM685.709 23.69V36.99H688.709V23.69H685.709ZM779.922 15.71L781.185 16.5196L782.666 14.21H779.922V15.71ZM760.042 46.72L758.779 45.9104L758.542 46.2805V46.72H760.042ZM760.042 61V62.5H761.542V61H760.042ZM750.662 61H749.162V62.5H750.662V61ZM750.662 46.72H752.162V46.2805L751.925 45.9104L750.662 46.72ZM730.782 15.71V14.21H728.039L729.519 16.5196L730.782 15.71ZM741.562 15.71L742.838 14.9218L742.399 14.21H741.562V15.71ZM758.292 42.8V44.3H760.982L759.568 42.0118L758.292 42.8ZM752.692 42.8L751.41 42.0214L750.026 44.3H752.692V42.8ZM769.142 15.71V14.21H768.298L767.86 14.9314L769.142 15.71ZM778.659 14.9004L758.779 45.9104L761.305 47.5295L781.185 16.5196L778.659 14.9004ZM758.542 46.72V61H761.542V46.72H758.542ZM760.042 59.5H750.662V62.5H760.042V59.5ZM752.162 61V46.72H749.162V61H752.162ZM751.925 45.9104L732.045 14.9004L729.519 16.5196L749.399 47.5295L751.925 45.9104ZM730.782 17.21H741.562V14.21H730.782V17.21ZM740.286 16.4982L757.016 43.5882L759.568 42.0118L742.838 14.9218L740.286 16.4982ZM758.292 41.3H752.692V44.3H758.292V41.3ZM753.974 43.5786L770.424 16.4886L767.86 14.9314L751.41 42.0214L753.974 43.5786ZM769.142 17.21H779.922V14.21H769.142V17.21ZM278.724 85.71H280.224V84.21H278.724V85.71ZM278.724 93.48V94.98H280.224V93.48H278.724ZM243.864 93.48V91.98H242.364V93.48H243.864ZM243.864 105.66H242.364V107.16H243.864V105.66ZM272.424 105.66H273.924V104.16H272.424V105.66ZM272.424 112.94V114.44H273.924V112.94H272.424ZM243.864 112.94V111.44H242.364V112.94H243.864ZM243.864 131V132.5H245.364V131H243.864ZM234.554 131H233.054V132.5H234.554V131ZM234.554 85.71V84.21H233.054V85.71H234.554ZM277.224 85.71V93.48H280.224V85.71H277.224ZM278.724 91.98H243.864V94.98H278.724V91.98ZM242.364 93.48V105.66H245.364V93.48H242.364ZM243.864 107.16H272.424V104.16H243.864V107.16ZM270.924 105.66V112.94H273.924V105.66H270.924ZM272.424 111.44H243.864V114.44H272.424V111.44ZM242.364 112.94V131H245.364V112.94H242.364ZM243.864 129.5H234.554V132.5H243.864V129.5ZM236.054 131V85.71H233.054V131H236.054ZM234.554 87.21H278.724V84.21H234.554V87.21ZM295.595 129.11L294.978 130.478L294.987 130.482L294.997 130.486L295.595 129.11ZM285.795 120.99L284.531 121.799L284.539 121.81L285.795 120.99ZM285.795 95.72L284.539 94.8995L284.531 94.9114L285.795 95.72ZM295.595 87.67L296.198 89.0432L296.205 89.0401L295.595 87.67ZM326.535 87.67L325.918 89.0377L325.931 89.0432L326.535 87.67ZM336.265 95.72L335.001 96.5286L335.009 96.5404L336.265 95.72ZM336.265 120.99L335.009 120.17L335.001 120.181L336.265 120.99ZM326.535 129.11L327.138 130.483L327.151 130.478L326.535 129.11ZM320.865 122.18L320.315 120.784L320.308 120.787L320.865 122.18ZM327.515 117.07L326.294 116.198L326.288 116.206L326.282 116.215L327.515 117.07ZM327.515 99.71L326.282 100.565L326.288 100.574L326.294 100.582L327.515 99.71ZM320.865 94.6L320.288 95.9846L320.302 95.9904L320.315 95.9958L320.865 94.6ZM301.195 94.6L301.736 95.9988L301.746 95.9951L301.756 95.9912L301.195 94.6ZM294.405 117.07L295.625 116.198L294.405 117.07ZM301.195 122.18L300.653 123.579L301.195 122.18ZM311.065 130.41C305.194 130.41 300.252 129.499 296.193 127.734L294.997 130.486C299.524 132.454 304.895 133.41 311.065 133.41V130.41ZM296.211 127.742C292.194 125.933 289.163 123.403 287.05 120.17L284.539 121.81C287 125.577 290.501 128.461 294.978 130.478L296.211 127.742ZM287.058 120.181C284.998 116.963 283.935 113.056 283.935 108.39H280.935C280.935 113.524 282.111 118.017 284.531 121.799L287.058 120.181ZM283.935 108.39C283.935 103.675 285 99.7445 287.058 96.5286L284.531 94.9114C282.109 98.6955 280.935 103.212 280.935 108.39H283.935ZM287.05 96.5404C289.161 93.3103 292.188 90.8061 296.198 89.0432L294.991 86.2968C290.508 88.2673 287.002 91.1297 284.539 94.8996L287.05 96.5404ZM296.205 89.0401C300.26 87.2329 305.198 86.3 311.065 86.3V83.3C304.891 83.3 299.515 84.2805 294.984 86.2999L296.205 89.0401ZM311.065 86.3C316.98 86.3 321.915 87.2337 325.918 89.0376L327.151 86.3024C322.661 84.2796 317.282 83.3 311.065 83.3V86.3ZM325.931 89.0432C329.94 90.8052 332.939 93.3062 335.001 96.5286L337.528 94.9114C335.11 91.1338 331.623 88.2681 327.138 86.2968L325.931 89.0432ZM335.009 96.5404C337.109 99.7547 338.195 103.68 338.195 108.39H341.195C341.195 103.206 339.994 98.6853 337.52 94.8996L335.009 96.5404ZM338.195 108.39C338.195 113.05 337.11 116.953 335.009 120.17L337.52 121.81C339.992 118.027 341.195 113.53 341.195 108.39H338.195ZM335.001 120.181C332.937 123.407 329.933 125.934 325.918 127.742L327.151 130.478C331.63 128.46 335.113 125.573 337.528 121.799L335.001 120.181ZM325.931 127.737C321.923 129.498 316.985 130.41 311.065 130.41V133.41C317.278 133.41 322.652 132.455 327.138 130.483L325.931 127.737ZM311.065 125.36C314.945 125.36 318.408 124.778 321.422 123.573L320.308 120.787C317.721 121.822 314.651 122.36 311.065 122.36V125.36ZM321.414 123.576C324.508 122.358 326.974 120.48 328.747 117.925L326.282 116.215C324.881 118.234 322.914 119.762 320.315 120.784L321.414 123.576ZM328.735 117.942C330.591 115.344 331.465 112.125 331.465 108.39H328.465C328.465 111.655 327.705 114.222 326.294 116.198L328.735 117.942ZM331.465 108.39C331.465 104.655 330.591 101.436 328.735 98.8381L326.294 100.582C327.705 102.558 328.465 105.125 328.465 108.39H331.465ZM328.747 98.8549C326.974 96.3003 324.508 94.4216 321.414 93.2041L320.315 95.9958C322.914 97.0184 324.881 98.5463 326.282 100.565L328.747 98.8549ZM321.442 93.2154C318.422 91.9572 314.952 91.35 311.065 91.35V94.35C314.644 94.35 317.707 94.9095 320.288 95.9846L321.442 93.2154ZM311.065 91.35C307.22 91.35 303.735 91.9585 300.634 93.2088L301.756 95.9912C304.441 94.9082 307.536 94.35 311.065 94.35V91.35ZM300.653 93.2011C297.516 94.4154 295.005 96.2888 293.184 98.8381L295.625 100.582C297.071 98.5578 299.086 97.0246 301.736 95.9988L300.653 93.2011ZM293.184 98.8381C291.329 101.436 290.455 104.655 290.455 108.39H293.455C293.455 105.125 294.214 102.558 295.625 100.582L293.184 98.8381ZM290.455 108.39C290.455 112.125 291.329 115.344 293.184 117.942L295.625 116.198C294.214 114.222 293.455 111.655 293.455 108.39H290.455ZM293.184 117.942C295.005 120.491 297.516 122.365 300.653 123.579L301.736 120.781C299.086 119.755 297.071 118.222 295.625 116.198L293.184 117.942ZM300.653 123.579C303.748 124.777 307.227 125.36 311.065 125.36V122.36C307.529 122.36 304.428 121.823 301.736 120.781L300.653 123.579ZM348.783 131H347.283V132.5H348.783V131ZM348.783 85.71V84.21H347.283V85.71H348.783ZM388.613 87.18L388.078 88.5813L388.093 88.5871L388.108 88.5926L388.613 87.18ZM394.703 91.66L393.476 92.5239L393.481 92.5306L393.486 92.5372L394.703 91.66ZM395.753 104.89L394.411 104.219L395.753 104.89ZM392.603 108.53L391.751 107.295L391.741 107.302L391.731 107.309L392.603 108.53ZM388.053 110.7L388.444 112.148L388.462 112.143L388.48 112.138L388.053 110.7ZM382.523 111.61L381.778 112.912L382.174 113.139L382.629 113.106L382.523 111.61ZM381.543 111.05L381.564 109.55L380.798 112.352L381.543 111.05ZM389.593 111.89L389.236 113.347L389.252 113.351L389.267 113.354L389.593 111.89ZM394.283 114.55L393.103 115.477L393.121 115.5L393.141 115.523L394.283 114.55ZM395.893 131V132.5H397.393V131H395.893ZM386.583 131H385.083V132.5H386.583V131ZM385.673 116.86L384.397 117.65L384.406 117.664L384.415 117.677L385.673 116.86ZM382.383 114.83L382.029 116.288L382.039 116.29L382.383 114.83ZM358.093 114.27V112.77H356.593V114.27H358.093ZM358.093 131V132.5H359.593V131H358.093ZM358.093 106.99H356.593V108.49H358.093V106.99ZM385.463 105.1L384.459 103.985L384.45 103.994L384.44 104.002L385.463 105.1ZM385.463 95.3L384.53 96.4752L384.54 96.4829L384.55 96.4904L385.463 95.3ZM358.093 93.69V92.19H356.593V93.69H358.093ZM350.283 131V85.71H347.283V131H350.283ZM348.783 87.21H379.513V84.21H348.783V87.21ZM379.513 87.21C382.878 87.21 385.721 87.6817 388.078 88.5813L389.148 85.7787C386.37 84.7183 383.148 84.21 379.513 84.21V87.21ZM388.108 88.5926C390.462 89.4333 392.227 90.7499 393.476 92.5239L395.929 90.7961C394.285 88.4634 391.99 86.7934 389.117 85.7674L388.108 88.5926ZM393.486 92.5372C394.702 94.2245 395.373 96.4823 395.373 99.43H398.373C398.373 96.031 397.596 93.1088 395.919 90.7828L393.486 92.5372ZM395.373 99.43C395.373 101.408 395.028 102.985 394.411 104.219L397.094 105.561C397.97 103.808 398.373 101.745 398.373 99.43H395.373ZM394.411 104.219C393.776 105.49 392.893 106.508 391.751 107.295L393.454 109.765C395.019 108.686 396.236 107.277 397.094 105.561L394.411 104.219ZM391.731 107.309C390.575 108.135 389.212 108.79 387.625 109.262L388.48 112.138C390.347 111.583 392.017 110.791 393.474 109.751L391.731 107.309ZM387.661 109.252C386.036 109.691 384.289 109.98 382.416 110.114L382.629 113.106C384.676 112.96 386.616 112.642 388.444 112.148L387.661 109.252ZM383.267 110.308L382.287 109.748L380.798 112.352L381.778 112.912L383.267 110.308ZM381.521 112.55C384.726 112.596 387.286 112.87 389.236 113.347L389.949 110.433C387.699 109.883 384.892 109.598 381.564 109.55L381.521 112.55ZM389.267 113.354C391.13 113.768 392.347 114.514 393.103 115.477L395.462 113.623C394.165 111.973 392.255 110.945 389.918 110.426L389.267 113.354ZM393.141 115.523C393.889 116.401 394.393 117.878 394.393 120.22H397.393C397.393 117.522 396.823 115.219 395.424 113.577L393.141 115.523ZM394.393 120.22V131H397.393V120.22H394.393ZM395.893 129.5H386.583V132.5H395.893V129.5ZM388.083 131V120.85H385.083V131H388.083ZM388.083 120.85C388.083 118.981 387.76 117.319 386.93 116.043L384.415 117.677C384.799 118.268 385.083 119.266 385.083 120.85H388.083ZM386.948 116.07C386.058 114.633 384.538 113.796 382.726 113.37L382.039 116.29C383.401 116.611 384.074 117.127 384.397 117.65L386.948 116.07ZM382.736 113.372C381.021 112.956 378.639 112.77 375.663 112.77V115.77C378.566 115.77 380.664 115.957 382.029 116.288L382.736 113.372ZM375.663 112.77H358.093V115.77H375.663V112.77ZM356.593 114.27V131H359.593V114.27H356.593ZM358.093 129.5H348.783V132.5H358.093V129.5ZM358.093 108.49H379.513V105.49H358.093V108.49ZM379.513 108.49C382.348 108.49 384.757 107.806 386.485 106.198L384.44 104.002C383.461 104.914 381.903 105.49 379.513 105.49V108.49ZM386.466 106.215C388.228 104.629 389.063 102.496 389.063 99.99H386.063C386.063 101.777 385.497 103.051 384.459 103.985L386.466 106.215ZM389.063 99.99C389.063 97.5566 388.209 95.5156 386.375 94.1096L384.55 96.4904C385.516 97.2311 386.063 98.3167 386.063 99.99H389.063ZM386.395 94.1247C384.67 92.7573 382.299 92.19 379.513 92.19V95.19C381.953 95.19 383.548 95.6961 384.53 96.4752L386.395 94.1247ZM379.513 92.19H358.093V95.19H379.513V92.19ZM356.593 93.69V106.99H359.593V93.69H356.593ZM468.579 85.71L469.842 86.5195L471.323 84.21H468.579V85.71ZM448.699 116.72L447.437 115.91L447.199 116.28V116.72H448.699ZM448.699 131V132.5H450.199V131H448.699ZM439.319 131H437.819V132.5H439.319V131ZM439.319 116.72H440.819V116.28L440.582 115.91L439.319 116.72ZM419.439 85.71V84.21H416.696L418.177 86.5195L419.439 85.71ZM430.219 85.71L431.496 84.9218L431.056 84.21H430.219V85.71ZM446.949 112.8V114.3H449.639L448.226 112.012L446.949 112.8ZM441.349 112.8L440.067 112.021L438.684 114.3H441.349V112.8ZM457.799 85.71V84.21H456.955L456.517 84.9314L457.799 85.71ZM467.317 84.9005L447.437 115.91L449.962 117.53L469.842 86.5195L467.317 84.9005ZM447.199 116.72V131H450.199V116.72H447.199ZM448.699 129.5H439.319V132.5H448.699V129.5ZM440.819 131V116.72H437.819V131H440.819ZM440.582 115.91L420.702 84.9005L418.177 86.5195L438.057 117.53L440.582 115.91ZM419.439 87.21H430.219V84.21H419.439V87.21ZM428.943 86.4982L445.673 113.588L448.226 112.012L431.496 84.9218L428.943 86.4982ZM446.949 111.3H441.349V114.3H446.949V111.3ZM442.632 113.579L459.082 86.4886L456.517 84.9314L440.067 112.021L442.632 113.579ZM457.799 87.21H468.579V84.21H457.799V87.21ZM483.378 129.11L482.762 130.478L482.771 130.482L482.78 130.486L483.378 129.11ZM473.578 120.99L472.314 121.799L472.322 121.81L473.578 120.99ZM473.578 95.72L472.322 94.8995L472.314 94.9114L473.578 95.72ZM483.378 87.67L483.981 89.0432L483.988 89.0401L483.378 87.67ZM514.318 87.67L513.702 89.0377L513.714 89.0432L514.318 87.67ZM524.048 95.72L522.784 96.5286L522.792 96.5404L524.048 95.72ZM524.048 120.99L522.792 120.17L522.784 120.181L524.048 120.99ZM514.318 129.11L514.921 130.483L514.934 130.478L514.318 129.11ZM508.648 122.18L508.099 120.784L508.091 120.787L508.648 122.18ZM515.298 117.07L514.077 116.198L514.071 116.206L514.065 116.215L515.298 117.07ZM515.298 99.71L514.065 100.565L514.071 100.574L514.077 100.582L515.298 99.71ZM508.648 94.6L508.071 95.9846L508.085 95.9904L508.099 95.9958L508.648 94.6ZM488.978 94.6L489.519 95.9988L489.529 95.9951L489.539 95.9912L488.978 94.6ZM482.188 117.07L483.408 116.198L482.188 117.07ZM488.978 122.18L488.436 123.579L488.978 122.18ZM498.848 130.41C492.977 130.41 488.035 129.499 483.976 127.734L482.78 130.486C487.307 132.454 492.678 133.41 498.848 133.41V130.41ZM483.994 127.742C479.978 125.933 476.946 123.403 474.834 120.17L472.322 121.81C474.783 125.577 478.285 128.461 482.762 130.478L483.994 127.742ZM474.841 120.181C472.782 116.963 471.718 113.056 471.718 108.39H468.718C468.718 113.524 469.894 118.017 472.314 121.799L474.841 120.181ZM471.718 108.39C471.718 103.675 472.783 99.7445 474.841 96.5286L472.314 94.9114C469.893 98.6955 468.718 103.212 468.718 108.39H471.718ZM474.834 96.5404C476.944 93.3103 479.971 90.8061 483.981 89.0432L482.774 86.2968C478.291 88.2673 474.785 91.1297 472.322 94.8996L474.834 96.5404ZM483.988 89.0401C488.044 87.2329 492.981 86.3 498.848 86.3V83.3C492.674 83.3 487.299 84.2805 482.767 86.2999L483.988 89.0401ZM498.848 86.3C504.764 86.3 509.698 87.2337 513.702 89.0376L514.934 86.3024C510.444 84.2796 505.065 83.3 498.848 83.3V86.3ZM513.714 89.0432C517.723 90.8052 520.722 93.3062 522.784 96.5286L525.311 94.9114C522.894 91.1338 519.406 88.2681 514.921 86.2968L513.714 89.0432ZM522.792 96.5404C524.892 99.7547 525.978 103.68 525.978 108.39H528.978C528.978 103.206 527.777 98.6853 525.304 94.8996L522.792 96.5404ZM525.978 108.39C525.978 113.05 524.893 116.953 522.792 120.17L525.304 121.81C527.775 118.027 528.978 113.53 528.978 108.39H525.978ZM522.784 120.181C520.72 123.407 517.716 125.934 513.702 127.742L514.934 130.478C519.413 128.46 522.896 125.573 525.311 121.799L522.784 120.181ZM513.714 127.737C509.707 129.498 504.768 130.41 498.848 130.41V133.41C505.061 133.41 510.436 132.455 514.921 130.483L513.714 127.737ZM498.848 125.36C502.728 125.36 506.191 124.778 509.205 123.573L508.091 120.787C505.505 121.822 502.434 122.36 498.848 122.36V125.36ZM509.197 123.576C512.291 122.358 514.758 120.48 516.53 117.925L514.065 116.215C512.665 118.234 510.698 119.762 508.099 120.784L509.197 123.576ZM516.518 117.942C518.374 115.344 519.248 112.125 519.248 108.39H516.248C516.248 111.655 515.488 114.222 514.077 116.198L516.518 117.942ZM519.248 108.39C519.248 104.655 518.374 101.436 516.518 98.8381L514.077 100.582C515.488 102.558 516.248 105.125 516.248 108.39H519.248ZM516.53 98.8549C514.758 96.3003 512.291 94.4216 509.197 93.2041L508.099 95.9958C510.698 97.0184 512.665 98.5463 514.065 100.565L516.53 98.8549ZM509.225 93.2154C506.205 91.9572 502.735 91.35 498.848 91.35V94.35C502.427 94.35 505.491 94.9095 508.071 95.9846L509.225 93.2154ZM498.848 91.35C495.003 91.35 491.518 91.9585 488.417 93.2088L489.539 95.9912C492.225 94.9082 495.319 94.35 498.848 94.35V91.35ZM488.436 93.2011C485.3 94.4154 482.788 96.2888 480.967 98.8381L483.408 100.582C484.854 98.5578 486.869 97.0246 489.519 95.9988L488.436 93.2011ZM480.967 98.8381C479.112 101.436 478.238 104.655 478.238 108.39H481.238C481.238 105.125 481.997 102.558 483.408 100.582L480.967 98.8381ZM478.238 108.39C478.238 112.125 479.112 115.344 480.967 117.942L483.408 116.198C481.997 114.222 481.238 111.655 481.238 108.39H478.238ZM480.967 117.942C482.788 120.491 485.3 122.365 488.436 123.579L489.519 120.781C486.869 119.755 484.854 118.222 483.408 116.198L480.967 117.942ZM488.436 123.579C491.532 124.777 495.01 125.36 498.848 125.36V122.36C495.312 122.36 492.211 121.823 489.519 120.781L488.436 123.579ZM578.146 85.71V84.21H576.646V85.71H578.146ZM587.456 85.71H588.956V84.21H587.456V85.71ZM586.126 119.8L584.731 119.248L584.726 119.261L584.721 119.273L586.126 119.8ZM576.886 129.25L577.495 130.621L577.502 130.618L577.509 130.615L576.886 129.25ZM569.956 131.28L569.709 129.8L569.705 129.801L569.956 131.28ZM553.996 131.28L553.754 132.76L553.996 131.28ZM546.926 129.25L546.291 130.609L546.309 130.618L546.328 130.626L546.926 129.25ZM541.466 125.47L540.405 126.531L541.466 125.47ZM537.826 119.8L536.421 120.327L536.426 120.339L536.431 120.352L537.826 119.8ZM536.566 85.71V84.21H535.066V85.71H536.566ZM545.876 85.71H547.376V84.21H545.876V85.71ZM547.976 119.1L546.776 120L546.781 120.007L546.787 120.015L547.976 119.1ZM553.716 122.88L553.3 124.321L553.316 124.326L553.333 124.33L553.716 122.88ZM570.236 122.88L570.633 124.326L570.642 124.324L570.652 124.321L570.236 122.88ZM575.976 119.1L574.79 118.181L574.787 118.185L575.976 119.1ZM579.646 110.98V85.71H576.646V110.98H579.646ZM578.146 87.21H587.456V84.21H578.146V87.21ZM585.956 85.71V111.96H588.956V85.71H585.956ZM585.956 111.96C585.956 114.801 585.534 117.22 584.731 119.248L587.521 120.352C588.491 117.9 588.956 115.092 588.956 111.96H585.956ZM584.721 119.273C583.953 121.323 582.856 123.02 581.441 124.394L583.531 126.546C585.289 124.84 586.619 122.757 587.53 120.327L584.721 119.273ZM581.441 124.394C579.986 125.806 578.264 126.972 576.263 127.885L577.509 130.615C579.801 129.568 581.813 128.214 583.531 126.546L581.441 124.394ZM576.277 127.879C574.304 128.756 572.118 129.399 569.709 129.8L570.202 132.76C572.834 132.321 575.267 131.611 577.495 130.621L576.277 127.879ZM569.705 129.801C567.322 130.206 564.793 130.41 562.116 130.41V133.41C564.945 133.41 567.643 133.194 570.207 132.759L569.705 129.801ZM562.116 130.41C559.343 130.41 556.718 130.205 554.238 129.8L553.754 132.76C556.407 133.195 559.195 133.41 562.116 133.41V130.41ZM554.238 129.8C551.78 129.398 549.545 128.753 547.524 127.874L546.328 130.626C548.6 131.614 551.078 132.322 553.754 132.76L554.238 129.8ZM547.56 127.891C545.608 126.98 543.935 125.818 542.526 124.409L540.405 126.531C542.076 128.202 544.043 129.56 546.291 130.609L547.56 127.891ZM542.526 124.409C541.146 123.029 540.04 121.318 539.221 119.248L536.431 120.352C537.385 122.762 538.706 124.831 540.405 126.531L542.526 124.409ZM539.23 119.273C538.467 117.238 538.066 114.81 538.066 111.96H535.066C535.066 115.084 535.505 117.882 536.421 120.327L539.23 119.273ZM538.066 111.96V85.71H535.066V111.96H538.066ZM536.566 87.21H545.876V84.21H536.566V87.21ZM544.376 85.71V110.98H547.376V85.71H544.376ZM544.376 110.98C544.376 114.692 545.103 117.77 546.776 120L549.176 118.2C548.048 116.697 547.376 114.362 547.376 110.98H544.376ZM546.787 120.015C548.401 122.113 550.598 123.542 553.3 124.321L554.132 121.439C551.98 120.818 550.35 119.727 549.165 118.185L546.787 120.015ZM553.333 124.33C555.955 125.023 558.887 125.36 562.116 125.36V122.36C559.091 122.36 556.423 122.044 554.099 121.43L553.333 124.33ZM562.116 125.36C565.254 125.36 568.098 125.022 570.633 124.326L569.839 121.434C567.614 122.044 565.044 122.36 562.116 122.36V125.36ZM570.652 124.321C573.353 123.542 575.55 122.113 577.165 120.015L574.787 118.185C573.601 119.727 571.972 120.818 569.82 121.439L570.652 124.321ZM577.161 120.019C578.892 117.786 579.646 114.7 579.646 110.98H576.646C576.646 114.353 575.953 116.68 574.79 118.181L577.161 120.019Z" fill="#262626"/>
</svg>
